<svg xmlns="http://www.w3.org/2000/svg" xmlns:xlink="http://www.w3.org/1999/xlink" viewBox="0 0 500 500"><defs><clipPath id="freepik--clip-path--inject-399"><polygon points="381.6 268.34 392.34 146.71 310.34 146.71 299.6 268.34 381.6 268.34" style="fill:none"></polygon></clipPath></defs><g id="freepik--background-complete--inject-399"><rect y="382.4" width="500" height="0.25" style="fill:#e0e0e0"></rect><rect x="430.48" y="391.92" width="33.12" height="0.25" style="fill:#e0e0e0"></rect><rect x="272.54" y="397" width="19.19" height="0.25" style="fill:#e0e0e0"></rect><rect x="435.72" y="404.79" width="19.19" height="0.25" style="fill:#e0e0e0"></rect><rect x="34.39" y="399.68" width="25.04" height="0.25" style="fill:#e0e0e0"></rect><rect x="68.33" y="399.68" width="6.33" height="0.25" style="fill:#e0e0e0"></rect><rect x="88.74" y="392.63" width="93.68" height="0.25" style="fill:#e0e0e0"></rect><path d="M237,337.8H43.91a5.71,5.71,0,0,1-5.7-5.71V60.66A5.71,5.71,0,0,1,43.91,55H237a5.71,5.71,0,0,1,5.71,5.71V332.09A5.71,5.71,0,0,1,237,337.8ZM43.91,55.2a5.46,5.46,0,0,0-5.45,5.46V332.09a5.46,5.46,0,0,0,5.45,5.46H237a5.47,5.47,0,0,0,5.46-5.46V60.66A5.47,5.47,0,0,0,237,55.2Z" style="fill:#e0e0e0"></path><path d="M453.31,337.8H260.21a5.72,5.72,0,0,1-5.71-5.71V60.66A5.72,5.72,0,0,1,260.21,55h193.1A5.71,5.71,0,0,1,459,60.66V332.09A5.71,5.71,0,0,1,453.31,337.8ZM260.21,55.2a5.47,5.47,0,0,0-5.46,5.46V332.09a5.47,5.47,0,0,0,5.46,5.46h193.1a5.47,5.47,0,0,0,5.46-5.46V60.66a5.47,5.47,0,0,0-5.46-5.46Z" style="fill:#e0e0e0"></path><rect x="63.67" y="80.41" width="370.67" height="282.6" rx="7.52" style="fill:#e0e0e0"></rect><rect x="65.67" y="80.41" width="370.67" height="282.6" rx="7.52" style="fill:#ebebeb"></rect><path d="M65.67,99.86V355.49A7.54,7.54,0,0,0,73.19,363H428.81a7.54,7.54,0,0,0,7.52-7.52V99.86Z" style="fill:#ebebeb"></path><rect x="67.06" y="109.86" width="367.89" height="243.15" style="fill:#fafafa"></rect><path d="M421.67,330.31H80.33a.12.12,0,0,1-.12-.13V132.68a.12.12,0,0,1,.12-.12H298.46a.12.12,0,0,1,.12.12.12.12,0,0,1-.12.13h-218V330.06H421.54V132.81H379.36a.12.12,0,0,1-.12-.13.12.12,0,0,1,.12-.12h42.31a.12.12,0,0,1,.12.12v197.5A.12.12,0,0,1,421.67,330.31Z" style="fill:#e0e0e0"></path><circle cx="82.17" cy="90.19" r="4" style="fill:#fafafa"></circle><circle cx="96.34" cy="90.19" r="4" style="fill:#fafafa"></circle><circle cx="110.51" cy="90.19" r="4" style="fill:#fafafa"></circle><rect x="65.67" y="99.36" width="370.67" height="1" style="fill:#e0e0e0"></rect><rect x="98.33" y="123.61" width="80.89" height="117.17" style="fill:#e0e0e0"></rect><path d="M379.36,240.91h-80.9a.12.12,0,0,1-.12-.13V123.61a.12.12,0,0,1,.12-.12h80.9a.12.12,0,0,1,.12.12V240.78A.13.13,0,0,1,379.36,240.91Zm-80.77-.25h80.64V123.74H298.59Z" style="fill:#e0e0e0"></path><rect x="100.67" y="123.61" width="83.56" height="117.17" style="fill:#ebebeb"></rect><rect x="90.86" y="147.42" width="103.17" height="69.56" transform="translate(324.64 39.75) rotate(90)" style="fill:#fafafa"></rect><rect x="125.14" y="181.7" width="103.17" height="1" transform="translate(358.92 5.47) rotate(90)" style="fill:#e0e0e0"></rect><circle cx="142.45" cy="182.2" r="21.33" transform="translate(-60.1 293.84) rotate(-80.84)" style="fill:#ebebeb"></circle><rect x="98.33" y="254.96" width="80.89" height="98.05" style="fill:#e0e0e0"></rect><rect x="100.67" y="254.96" width="83.56" height="98.05" style="fill:#ebebeb"></rect><rect x="96.92" y="272.71" width="91.05" height="69.56" transform="translate(449.93 165.04) rotate(90)" style="fill:#e6e6e6"></rect><rect x="131.2" y="306.98" width="91.05" height="1" transform="translate(484.21 130.76) rotate(90)" style="fill:#e0e0e0"></rect><rect x="122.79" y="293.88" width="39.32" height="39.32" style="fill:#fafafa"></rect><rect x="198.4" y="189" width="80.89" height="117.17" style="fill:#e0e0e0"></rect><rect x="200.73" y="189" width="83.56" height="117.17" style="fill:#ebebeb"></rect><rect x="190.93" y="212.81" width="103.17" height="69.56" transform="translate(490.1 5.07) rotate(90)" style="fill:#fafafa"></rect><rect x="225.2" y="247.09" width="103.17" height="1" transform="translate(524.38 -29.2) rotate(90)" style="fill:#e0e0e0"></rect><polygon points="242.6 224.44 221.26 261.39 263.93 261.39 242.6 224.44" style="fill:#e6e6e6"></polygon><path d="M459.85,369.82c-23,5-48.81-36.75-5.78-78.33C462.11,334.08,500,361.08,459.85,369.82Z" style="fill:#e0e0e0"></path><path d="M421,334.59c-5.53-6.73-12.07-14.3-10.48-22.31s5.54-14,2.39-22.49c-3.77-10.23-3-22.43,3.34-21.41s13.53,8.5,13.34,18.41c-.12,9.59,6.15,12.65,12.05,17.76s8.17,12.55,9.23,19.91c1.86,11.61,16.89,9.41,20.89,19.5,4.11,9.73-4.11,22.71-17.27,25.69S432,374.49,423,364.22C413.88,353.31,429.2,344.24,421,334.59Z" style="fill:#ebebeb"></path><path d="M451,324.67a.25.25,0,0,0,.08-.34.26.26,0,0,0-.35-.08A25.14,25.14,0,0,0,441,338.67c-1.66-5.6-3.48-11.3-5.36-16.9a.16.16,0,0,0,0-.09c-1.78-5.31-3.61-10.52-5.4-15.49h0c.09-4.12,3.6-8.32,3.63-8.37a.24.24,0,0,0,0-.35.25.25,0,0,0-.35,0,17.6,17.6,0,0,0-3.65,7.59c-.78-2.16-1.56-4.28-2.33-6.33h0c-.07-2.68,2.83-7.09,2.86-7.13a.25.25,0,0,0-.07-.35.25.25,0,0,0-.34.07,21.23,21.23,0,0,0-2.86,6.33c-2.08-5.58-4.05-10.67-5.75-15,0,0,0,0,0-.05-3.41-8.66-5.75-14.22-5.83-14.41a.25.25,0,0,0-.33-.13.23.23,0,0,0-.13.32c.08.19,2.32,5.52,5.62,13.87-6.36-2.66-9.76-2.25-9.91-2.23a.24.24,0,0,0-.21.28.25.25,0,0,0,.28.22s3.59-.44,10.09,2.38c3.87,9.83,9.11,23.63,14,38.14a40.64,40.64,0,0,0-24.62-7.93.25.25,0,0,0-.23.27.24.24,0,0,0,.27.23,40.17,40.17,0,0,1,24.85,8.25c3.68,11,7.13,22.29,9.63,32.59-8.54-7.7-22.18-8.22-22.32-8.23a.26.26,0,0,0-.26.25.24.24,0,0,0,.24.25c.14,0,14.2.54,22.55,8.61,1.33,5.54,2.37,10.78,3,15.48a.24.24,0,0,0,.24.22h0a.24.24,0,0,0,.21-.28c-.64-4.71-1.68-10-3-15.53v0c-1.19-5-2.61-10.24-4.18-15.58A24.34,24.34,0,0,1,451,324.67Z" style="fill:#e0e0e0"></path><polygon points="459.42 367.87 434.67 367.87 434.67 370.32 436.18 370.32 437.53 392.05 456.56 392.05 457.91 370.32 459.42 370.32 459.42 367.87" style="fill:#e0e0e0"></polygon></g><g id="freepik--Shadow--inject-399"><ellipse cx="250" cy="416.24" rx="193.89" ry="11.32" style="fill:#f5f5f5"></ellipse></g><g id="freepik--Picture--inject-399"><path d="M398.3,417.14c0,1.08-18.83,1.95-42.06,1.95s-42.07-.87-42.07-1.95,18.84-1.94,42.07-1.94S398.3,416.07,398.3,417.14Z" style="fill:#f5f5f5;mix-blend-mode:multiply"></path><rect x="389.32" y="243.81" width="18.72" height="1.03" transform="translate(120.39 620.07) rotate(-84.98)" style="fill:#263238"></rect><rect x="387.94" y="215.33" width="26.52" height="1.03" transform="matrix(0.09, -1, 1, 0.09, 151.01, 596.57)" style="fill:#263238"></rect><rect x="315.72" y="131.96" width="12.46" height="1.03" style="fill:#263238"></rect><polygon points="296.51 274.71 391.88 274.71 404.07 136.58 308.71 136.58 296.51 274.71" style="fill:#263238"></polygon><polygon points="324.07 417.14 319.74 417.14 351.91 205.49 356.24 205.49 324.07 417.14" style="fill:#263238"></polygon><polygon points="388.41 417.14 392.73 417.14 360.56 205.49 356.24 205.49 388.41 417.14" style="fill:#263238"></polygon><polygon points="290.62 276.6 389.12 276.6 401.32 138.46 302.81 138.46 290.62 276.6" style="fill:#407BFF"></polygon><polygon points="290.62 276.6 389.12 276.6 401.32 138.46 302.81 138.46 290.62 276.6" style="fill:#fafafa;opacity:0.8"></polygon><polygon points="381.6 268.34 392.34 146.71 310.34 146.71 299.6 268.34 381.6 268.34" style="fill:#407BFF"></polygon><g style="clip-path:url(#freepik--clip-path--inject-399)"><path d="M409,200.89c-20.56-12.22-28.16,1.86-43.54,10.09-13.16,7.05-41-13.11-55.79,12.44s28.17,86.9,84.74,60.07C425.06,268.93,442.51,220.82,409,200.89Z" style="fill:#407BFF"></path><path d="M409,200.89c-20.56-12.22-28.16,1.86-43.54,10.09-13.16,7.05-41-13.11-55.79,12.44s28.17,86.9,84.74,60.07C425.06,268.93,442.51,220.82,409,200.89Z" style="opacity:0.1"></path><path d="M363.35,194.51c12,3.64,14.09-4.47,20.89-10.58,5.82-5.23,22.5,1.55,26.85-13.3s-25.2-40.71-50.64-20C346.65,161.89,343.78,188.55,363.35,194.51Z" style="fill:#407BFF"></path><path d="M363.35,194.51c12,3.64,14.09-4.47,20.89-10.58,5.82-5.23,22.5,1.55,26.85-13.3s-25.2-40.71-50.64-20C346.65,161.89,343.78,188.55,363.35,194.51Z" style="opacity:0.1"></path></g><path d="M317.07,149.9a2.82,2.82,0,0,1-2.85-3.2,3.65,3.65,0,0,1,3.53-3.18,2.84,2.84,0,0,1,2.15.93,2.93,2.93,0,0,1,.7,2.28A3.65,3.65,0,0,1,317.07,149.9Zm.68-6.12a3.38,3.38,0,0,0-3.28,2.95,2.63,2.63,0,0,0,.64,2.07,2.6,2.6,0,0,0,2,.84,3.37,3.37,0,0,0,3.27-2.94,2.61,2.61,0,0,0-.63-2.07A2.58,2.58,0,0,0,317.75,143.78Z" style="fill:#fafafa"></path><path d="M326.08,149.9a2.85,2.85,0,0,1-2.16-.93,2.91,2.91,0,0,1-.7-2.27,3.66,3.66,0,0,1,3.53-3.18,2.82,2.82,0,0,1,2.85,3.21h0A3.63,3.63,0,0,1,326.08,149.9Zm.67-6.12a3.38,3.38,0,0,0-3.27,2.95,2.55,2.55,0,0,0,2.6,2.91,3.38,3.38,0,0,0,3.27-2.94h0a2.65,2.65,0,0,0-.63-2.07A2.59,2.59,0,0,0,326.75,143.78Z" style="fill:#fafafa"></path><path d="M346.48,182.38c-13.89,0-26.15,11.26-27.37,25.15a23,23,0,0,0,6.56,18.58l37.17-37.17A23,23,0,0,0,346.48,182.38Z" style="fill:#fafafa"></path><path d="M368.17,187.45a22.68,22.68,0,0,1,6.06,17.81C373,218.87,361,229.94,347.37,229.94a22.58,22.58,0,0,1-15.64-6.06l36.44-36.43m0-.73L331,223.89a23,23,0,0,0,16.37,6.56c13.89,0,26.14-11.26,27.37-25.15a23,23,0,0,0-6.57-18.58Z" style="fill:#407BFF"></path><path d="M368.17,187.45a22.68,22.68,0,0,1,6.06,17.81C373,218.87,361,229.94,347.37,229.94a22.58,22.58,0,0,1-15.64-6.06l36.44-36.43m0-.73L331,223.89a23,23,0,0,0,16.37,6.56c13.89,0,26.14-11.26,27.37-25.15a23,23,0,0,0-6.57-18.58Z" style="opacity:0.2"></path><polygon points="300.77 268.34 311.52 146.71 310.34 146.71 299.6 268.34 300.77 268.34" style="fill:#263238"></polygon><polygon points="291.78 275.72 292.16 276.6 389.12 276.6 389.2 275.72 291.78 275.72" style="fill:#407BFF"></polygon><polygon points="291.78 275.72 292.16 276.6 389.12 276.6 389.2 275.72 291.78 275.72" style="fill:#fafafa;opacity:0.1"></polygon><polygon points="283.58 273.75 283.95 276.6 382.46 276.6 382.08 273.75 283.58 273.75" style="fill:#407BFF"></polygon><polygon points="283.58 273.75 283.95 276.6 382.46 276.6 382.08 273.75 283.58 273.75" style="fill:#fafafa;opacity:0.30000000000000004"></polygon></g><g id="freepik--Character--inject-399"><path d="M211.44,417.14c0,1.08-18.83,1.95-42.06,1.95s-42.07-.87-42.07-1.95,18.84-1.94,42.07-1.94S211.44,416.07,211.44,417.14Z" style="fill:#f5f5f5;mix-blend-mode:multiply"></path><polygon points="181.12 409.47 188.64 409.47 189.39 392.06 181.87 392.06 181.12 409.47" style="fill:#e58a7b"></polygon><polygon points="135.99 409.47 143.5 409.47 147.28 392.06 139.76 392.06 135.99 409.47" style="fill:#e58a7b"></polygon><path d="M144,408.6h-8.45a.66.66,0,0,0-.64.51l-1.48,6.68a1.1,1.1,0,0,0,1.1,1.34c3-.05,4.38-.22,8.09-.22,2.29,0,7,.23,10.15.23s3.57-3.12,2.28-3.4c-5.8-1.26-8-3-9.83-4.68A1.83,1.83,0,0,0,144,408.6Z" style="fill:#263238"></path><path d="M188.59,408.6h-8.21a.65.65,0,0,0-.64.51l-1.48,6.68a1.09,1.09,0,0,0,1.08,1.34c3-.05,7.24-.22,11-.22,4.35,0,8.11.23,13.21.23,3.09,0,4-3.12,2.66-3.4-5.89-1.28-10.69-1.42-15.77-4.56A3.47,3.47,0,0,0,188.59,408.6Z" style="fill:#263238"></path><path d="M194.13,163.83l10.13-4s11.68,23.84,15.35,25c5,1.64,15.27,6.19,21.48,7,.78,1,2,4.1,1.79,5.23-8.56,2.8-26.79-.91-30.57-3.85C203.7,186.58,194.13,163.83,194.13,163.83Z" style="fill:#e58a7b"></path><path d="M191.39,158.42c-2.53,6.72,10.3,26.53,10.3,26.53l15-8.16a92,92,0,0,0-8.69-17.6C202.72,151.26,194.17,151,191.39,158.42Z" style="fill:#407BFF"></path><path d="M191.17,159.27c3-1.4,6.25-.23,9.57,5.33s6,14.84,6.23,17.49L201.69,185S189.84,166.66,191.17,159.27Z" style="fill:#407BFF"></path><path d="M191.17,159.27c3-1.4,6.25-.23,9.57,5.33s6,14.84,6.23,17.49L201.69,185S189.84,166.66,191.17,159.27Z" style="opacity:0.2"></path><path d="M199,184.28a.51.51,0,0,1-.45-.27.5.5,0,0,1,.2-.69l15-8.17a.51.51,0,0,1,.69.21.5.5,0,0,1-.2.69l-15,8.17A.5.5,0,0,1,199,184.28Z" style="fill:#fafafa"></path><path d="M239.82,191.82l8.48-3.48,2.87,9.16a34,34,0,0,1-10.23,0Z" style="fill:#e58a7b"></path><polygon points="254.46 188.12 254.32 194.21 251.17 197.5 248.3 188.34 254.46 188.12" style="fill:#e58a7b"></polygon><polygon points="189.39 392.06 189 401.04 181.48 401.04 181.87 392.06 189.39 392.06" style="fill:#cf6f64"></polygon><polygon points="139.76 392.06 147.28 392.06 145.33 401.04 137.81 401.04 139.76 392.06" style="fill:#cf6f64"></polygon><path d="M200.32,153.27s8.87,22.7.44,65h-40.2c-.28-6.17,3.6-36.28-2.36-65.36a103.77,103.77,0,0,1,13.46-1.7,147.7,147.7,0,0,1,17.1,0A75.48,75.48,0,0,1,200.32,153.27Z" style="fill:#407BFF"></path><path d="M189,183.29c-3.9,0-7.29-3.93-7.59-8.86a9.78,9.78,0,0,1,2.31-7.21,6.18,6.18,0,0,1,4.38-2.1c3.94-.1,7.45,3.86,7.75,8.86a9.78,9.78,0,0,1-2.3,7.2,6.15,6.15,0,0,1-4.38,2.1Zm-.73-17.15h-.14a5.07,5.07,0,0,0-3.65,1.76,8.79,8.79,0,0,0-2,6.46c.27,4.45,3.28,8,6.7,7.89a5.09,5.09,0,0,0,3.65-1.77,8.76,8.76,0,0,0,2-6.45C194.6,169.65,191.68,166.14,188.31,166.14Z" style="fill:#fafafa"></path><path d="M166.94,160.07c.67,4.78-.84,16.23-5.4,29.47a191,191,0,0,0-2.78-33.76v-.06C161.41,155.45,166.3,155.58,166.94,160.07Z" style="fill:#407BFF"></path><path d="M166.94,160.07c.67,4.78-.84,16.23-5.4,29.47a191,191,0,0,0-2.78-33.76v-.06C161.41,155.45,166.3,155.58,166.94,160.07Z" style="opacity:0.2"></path><path d="M191.35,151.48c-.84-.11-1.71-.21-2.59-.3a150,150,0,0,0-17.1,0l-2.15.15.25.61c.11.28,2.85,6.88,14.33,6.88,1.51,0,6.07,0,7.51-3.08A4.93,4.93,0,0,0,191.35,151.48Z" style="fill:#fafafa"></path><path d="M173.36,131.94c1.08,5.5,2.15,15.58-1.7,19.25,0,0,2.21,5.58,12.43,5.58,9.34,0,4.67-5.58,4.67-5.58-6.14-1.47-6-6-4.91-10.29Z" style="fill:#e58a7b"></path><path d="M177.64,135.6l6.21,5.3a17,17,0,0,0-.53,3c-2,1.9-5.56-2.91-5.81-5.36A8.07,8.07,0,0,1,177.64,135.6Z" style="fill:#cf6f64"></path><path d="M190.84,115c3.7,1.57,5.71,11.94,1,14.33S183.83,112.06,190.84,115Z" style="fill:#263238"></path><path d="M172.7,123.67c.46,7.44.35,11.82,4.11,15.65,5.66,5.75,14.85,2.33,16.63-5.1,1.6-6.69.58-17.74-6.71-20.71A10.18,10.18,0,0,0,172.7,123.67Z" style="fill:#e58a7b"></path><path d="M177,120.37c1.57,6.14,1.49,11-1.64,11.25s-8.91-9.43-8.72-13.81c.29-6.7,5.19-1.27,3.47-6.94-1.07-3.53,4.87-6.74,9.47-5.52,7.59,2,9.87,12,15.91,4.93,3.5-4.07,13.91,0,7.28,6.21s-.91,6.57-.91,6.57-8.39-.36-5.26-5-5.72,1.76-11.34.1C179.9,116.54,175.84,115.76,177,120.37Z" style="fill:#263238"></path><path d="M169.34,131.87a7.06,7.06,0,0,0,4.42,3.13c2.43.54,3.5-1.67,2.71-3.89-.71-2-2.83-4.68-5.21-4.22A3.18,3.18,0,0,0,169.34,131.87Z" style="fill:#e58a7b"></path><path d="M171,113.63a5,5,0,0,1-2.78-3.83S166.31,114.4,171,113.63Z" style="fill:#263238"></path><path d="M200.76,218.25s1,56.21.22,79.13c-.85,23.85-9.18,101.92-9.18,101.92H179.07s-.47-76.68-1-100.1c-.61-25.53-3.7-80.95-3.7-80.95Z" style="fill:#407BFF"></path><path d="M200.76,218.25s1,56.21.22,79.13c-.85,23.85-9.18,101.92-9.18,101.92H179.07s-.47-76.68-1-100.1c-.61-25.53-3.7-80.95-3.7-80.95Z" style="opacity:0.6000000000000001"></path><path d="M178.09,395.55c-.05,0-.46,3.86-.46,3.86h15.16l1.08-4.43Z" style="fill:#407BFF"></path><path d="M178.09,395.55c-.05,0-.46,3.86-.46,3.86h15.16l1.08-4.43Z" style="opacity:0.1"></path><path d="M183.18,233.13c-.25,27.89-1.93,44.83-5.37,58.45-.45-13.31-1.27-30.9-2-45.51Z" style="fill:#407BFF"></path><path d="M183.18,233.13c-.25,27.89-1.93,44.83-5.37,58.45-.45-13.31-1.27-30.9-2-45.51Z" style="opacity:0.8"></path><path d="M186.5,218.25s-8.53,57.45-13.21,79c-5.13,23.57-24.45,102.08-24.45,102.08H135.07s12.74-76.61,15.66-99.94c3.18-25.33,9.83-81.11,9.83-81.11Z" style="fill:#407BFF"></path><path d="M186.5,218.25s-8.53,57.45-13.21,79c-5.13,23.57-24.45,102.08-24.45,102.08H135.07s12.74-76.61,15.66-99.94c3.18-25.33,9.83-81.11,9.83-81.11Z" style="opacity:0.6000000000000001"></path><path d="M134.49,395.55c-.06,0-.48,3.86-.48,3.86H150l1.13-4.43Z" style="fill:#407BFF"></path><path d="M134.49,395.55c-.06,0-.48,3.86-.48,3.86H150l1.13-4.43Z" style="opacity:0.1"></path><path d="M140.62,391.17h0a.12.12,0,0,1-.1-.14c.11-.7,11.61-69.86,14.24-90.82,2.85-22.75,8.86-73.19,8.92-73.7a.12.12,0,0,1,.14-.11.13.13,0,0,1,.12.14c-.06.51-6.08,51-8.93,73.7-2.63,21-14.12,90.13-14.24,90.83A.13.13,0,0,1,140.62,391.17Z" style="fill:#407BFF"></path><path d="M140.62,391.17h0a.12.12,0,0,1-.1-.14c.11-.7,11.61-69.86,14.24-90.82,2.85-22.75,8.86-73.19,8.92-73.7a.12.12,0,0,1,.14-.11.13.13,0,0,1,.12.14c-.06.51-6.08,51-8.93,73.7-2.63,21-14.12,90.13-14.24,90.83A.13.13,0,0,1,140.62,391.17Z" style="opacity:0.2"></path><path d="M248.59,191.53a179.35,179.35,0,0,1-22.65,12.84c-3.9,1.92-7.87,3.71-11.81,5.53s-7.89,3.66-11.88,5.42q-11.9,5.37-23.92,10.5c-8,3.43-16.09,6.75-24.26,9.89a6,6,0,0,1-5.68-10.47c7.09-5.14,14.28-10.09,21.52-14.94s14.52-9.63,21.85-14.33c3.64-2.38,7.33-4.68,11-7s7.35-4.66,11.08-6.88a178.8,178.8,0,0,1,23.12-12,12.26,12.26,0,0,1,11.62,21.43Z" style="fill:#407BFF"></path><path d="M248.59,191.53a179.35,179.35,0,0,1-22.65,12.84c-3.9,1.92-7.87,3.71-11.81,5.53s-7.89,3.66-11.88,5.42q-11.9,5.37-23.92,10.5c-8,3.43-16.09,6.75-24.26,9.89a6,6,0,0,1-5.68-10.47c7.09-5.14,14.28-10.09,21.52-14.94s14.52-9.63,21.85-14.33c3.64-2.38,7.33-4.68,11-7s7.35-4.66,11.08-6.88a178.8,178.8,0,0,1,23.12-12,12.26,12.26,0,0,1,11.62,21.43Z" style="opacity:0.30000000000000004"></path><path d="M278.23,151.29c-3,1.61-5.42,2.88-9.31,2.88v.44c4,0,6.44-1.29,9.52-2.93Z" style="fill:#407BFF"></path><path d="M278.23,151.29c-3,1.61-5.42,2.88-9.31,2.88v.44c4,0,6.44-1.29,9.52-2.93Z" style="opacity:0.30000000000000004"></path><path d="M263.32,153.66v.44a8.78,8.78,0,0,1,1.53.13h0l0-.43A8.83,8.83,0,0,0,263.32,153.66Z" style="fill:#407BFF"></path><path d="M263.32,153.66v.44a8.78,8.78,0,0,1,1.53.13h0l0-.43A8.83,8.83,0,0,0,263.32,153.66Z" style="opacity:0.30000000000000004"></path><path d="M278,174.59c-4.37,4-8.93,6.11-13.19,6.11v.44c4.37,0,9-2.16,13.49-6.23Z" style="fill:#407BFF"></path><path d="M278,174.59c-4.37,4-8.93,6.11-13.19,6.11v.44c4.37,0,9-2.16,13.49-6.23Z" style="opacity:0.30000000000000004"></path><path d="M281.85,151.38c-5.14,2.71-9.3,5.28-18.48,3.69-8.46-1.47-15.35,11.7-8.62,19.83,6.23,7.53,15.19,5,22.65-1.78a37.3,37.3,0,0,0,8.43-12.31c-1.18.61-2.4,1.23-3.74,1.8C278.42,164.2,278.82,158.2,281.85,151.38Z" style="fill:#407BFF"></path><path d="M281.85,151.38c-5.14,2.71-9.3,5.28-18.48,3.69-8.46-1.47-15.35,11.7-8.62,19.83,6.23,7.53,15.19,5,22.65-1.78a37.3,37.3,0,0,0,8.43-12.31c-1.18.61-2.4,1.23-3.74,1.8C278.42,164.2,278.82,158.2,281.85,151.38Z" style="fill:#fafafa;opacity:0.5"></path><path d="M285.51,149.59c-1.31.57-2.52,1.18-3.66,1.79-3,6.82-3.43,12.82.24,11.23,1.34-.57,2.56-1.19,3.74-1.8C288.81,154,289.17,148,285.51,149.59Z" style="fill:#407BFF"></path><path d="M285.51,149.59c-1.31.57-2.52,1.18-3.66,1.79-3,6.82-3.43,12.82.24,11.23,1.34-.57,2.56-1.19,3.74-1.8C288.81,154,289.17,148,285.51,149.59Z" style="opacity:0.30000000000000004"></path><path d="M277.86,157.93c-.36,1.22-1.18,2-1.84,1.85s-.91-1.33-.55-2.55,1.18-2,1.84-1.85S278.22,156.72,277.86,157.93Z" style="fill:#407BFF"></path><path d="M277.86,157.93c-.36,1.22-1.18,2-1.84,1.85s-.91-1.33-.55-2.55,1.18-2,1.84-1.85S278.22,156.72,277.86,157.93Z" style="opacity:0.30000000000000004"></path><path d="M184,125.75c0,.6.32,1.09.72,1.09s.71-.49.71-1.09-.32-1.1-.71-1.1S184,125.14,184,125.75Z" style="fill:#263238"></path><path d="M190.85,125.75c0,.6.32,1.09.72,1.09s.72-.49.72-1.09-.32-1.1-.72-1.1S190.85,125.14,190.85,125.75Z" style="fill:#263238"></path><path d="M188.67,126.05a21.54,21.54,0,0,0,2.9,5.18,3.48,3.48,0,0,1-2.9.55Z" style="fill:#df5753"></path><path d="M186.91,133.45a.18.18,0,0,0,.17-.18.18.18,0,0,0-.17-.17,4.78,4.78,0,0,1-3.92-1.88.18.18,0,0,0-.25-.05.18.18,0,0,0-.05.24A5.08,5.08,0,0,0,186.91,133.45Z" style="fill:#263238"></path><path d="M181.93,123.54a.37.37,0,0,0,.29-.14,2.8,2.8,0,0,1,2.28-1.19.36.36,0,0,0,.38-.33.36.36,0,0,0-.33-.38,3.49,3.49,0,0,0-2.9,1.47.36.36,0,0,0,.28.57Z" style="fill:#263238"></path><path d="M193.93,123.32a.38.38,0,0,0,.15,0,.36.36,0,0,0,.14-.48,3.5,3.5,0,0,0-2.68-1.84.35.35,0,0,0-.38.33.36.36,0,0,0,.33.38h0a2.81,2.81,0,0,1,2.11,1.48A.36.36,0,0,0,193.93,123.32Z" style="fill:#263238"></path><path d="M156.05,158l9.06,6.07s-13,23.13-11.92,26.84c1.49,5,3.56,16.08,6.38,21.68-.37,1.21-2.24,4-3.29,4.45-7.16-5.47-14.44-22.59-14.17-27.37C142.74,178.75,156.05,158,156.05,158Z" style="fill:#e58a7b"></path><path d="M158.2,152.89c-7.11,1-15.25,25.68-15.25,25.68L157.88,187s6.58-11.72,9.83-20.42C171.11,157.46,165.83,151.78,158.2,152.89Z" style="fill:#407BFF"></path><path d="M157.5,184.59a.54.54,0,0,1-.25-.06l-14.46-8.17a.51.51,0,0,1-.19-.7.52.52,0,0,1,.7-.19l14.45,8.16a.52.52,0,0,1,.2.7A.52.52,0,0,1,157.5,184.59Z" style="fill:#fafafa"></path><path d="M146.52,409.91a2.31,2.31,0,0,0,1.45-.38,1.1,1.1,0,0,0,.37-.94.58.58,0,0,0-.31-.51c-.82-.42-3.25,1.07-3.53,1.24a.17.17,0,0,0,.06.32A8.59,8.59,0,0,0,146.52,409.91Zm1.12-1.55a.53.53,0,0,1,.23,0,.21.21,0,0,1,.11.21.74.74,0,0,1-.24.65,3.64,3.64,0,0,1-2.67.13A7.18,7.18,0,0,1,147.64,408.36Z" style="fill:#407BFF"></path><path d="M144.6,409.65l.08,0c.78-.43,2.29-2.07,2.13-2.91a.58.58,0,0,0-.57-.47,1,1,0,0,0-.76.23c-.87.71-1,2.88-1.06,3a.21.21,0,0,0,.08.17A.17.17,0,0,0,144.6,409.65Zm1.52-3h.08c.23,0,.25.14.26.18.09.5-.87,1.74-1.64,2.33a4.34,4.34,0,0,1,.89-2.36A.63.63,0,0,1,146.12,406.6Z" style="fill:#407BFF"></path><path d="M191.72,409.91a2.82,2.82,0,0,0,1.82-.46,1,1,0,0,0,.34-.87.57.57,0,0,0-.3-.47c-.91-.51-3.93,1-4.27,1.2a.17.17,0,0,0-.1.18.17.17,0,0,0,.14.15A12.58,12.58,0,0,0,191.72,409.91Zm1.36-1.55a.75.75,0,0,1,.33.06.22.22,0,0,1,.11.19.64.64,0,0,1-.21.57c-.47.42-1.7.48-3.36.21A9.69,9.69,0,0,1,193.08,408.36Z" style="fill:#407BFF"></path><path d="M189.39,409.65l.07,0c.91-.41,2.71-2,2.57-2.88,0-.2-.18-.45-.66-.5a1.3,1.3,0,0,0-1,.31c-1,.78-1.16,2.81-1.17,2.89a.16.16,0,0,0,.07.16A.15.15,0,0,0,189.39,409.65Zm1.83-3h.11c.32,0,.34.16.35.21.08.51-1.14,1.78-2.07,2.34a4.28,4.28,0,0,1,1-2.32A1,1,0,0,1,191.22,406.6Z" style="fill:#407BFF"></path><path d="M159.57,212.55l7.15-.55L163,219.91s-6.27.28-7.32-4.51Z" style="fill:#e58a7b"></path><polygon points="172.53 215.6 168.78 222.6 162.96 219.91 166.72 212 172.53 215.6" style="fill:#e58a7b"></polygon></g></svg>