<?xml version="1.0" encoding="UTF-8" standalone="no"?>
<svg xmlns:dc="http://purl.org/dc/elements/1.1/" xmlns:cc="http://creativecommons.org/ns#" xmlns:rdf="http://www.w3.org/1999/02/22-rdf-syntax-ns#" xmlns:svg="http://www.w3.org/2000/svg" xmlns="http://www.w3.org/2000/svg" xmlns:sodipodi="http://sodipodi.sourceforge.net/DTD/sodipodi-0.dtd" xmlns:inkscape="http://www.inkscape.org/namespaces/inkscape" width="12pt" height="12pt" viewBox="0 0 12 12" version="1.1" id="svg9" sodipodi:docname="le.svg" inkscape:version="0.92.5 (2060ec1f9f, 2020-04-08)">
  <metadata id="metadata15">
    <rdf:RDF>
      <cc:Work rdf:about="">
        <dc:format>image/svg+xml</dc:format>
        <dc:type rdf:resource="http://purl.org/dc/dcmitype/StillImage"/>
      </cc:Work>
    </rdf:RDF>
  </metadata>
  <defs id="defs13">
    <clipPath id="clip1">
      <path inkscape:connector-curvature="0" d="M 0,0 H 80.398438 V 80.398438 H 0 Z m 0,0" id="path2-3"/>
    </clipPath>
  </defs>
  <sodipodi:namedview pagecolor="#ffffff" bordercolor="#666666" borderopacity="1" objecttolerance="10" gridtolerance="10" guidetolerance="10" inkscape:pageopacity="0" inkscape:pageshadow="2" inkscape:window-width="1920" inkscape:window-height="1015" id="namedview11" showgrid="false" inkscape:zoom="14.75" inkscape:cx="-7.016949" inkscape:cy="8" inkscape:window-x="0" inkscape:window-y="0" inkscape:window-maximized="1" inkscape:current-layer="svg9"/>
  <g id="g824">
    <path id="path7" d="m 4.7500312,7.2499692 c 0,-0.6902813 -0.5596875,-1.2499688 -1.2499687,-1.2499688 -0.6902812,0 -1.2499687,0.5596875 -1.2499687,1.2499688 0,0.6902812 0.5596875,1.2499687 1.2499687,1.2499687 0.6902812,0 1.2499687,-0.5596875 1.2499687,-1.2499687 z m 0,0" style="clip-rule:nonzero;fill:none;stroke:#000000;stroke-width:0.59999996;stroke-linecap:round;stroke-linejoin:round;stroke-miterlimit:4;stroke-dasharray:none;stroke-opacity:1" inkscape:connector-curvature="0"/>
    <path id="path9" d="m 4.7500312,7.2499692 c 0,-1.2499688 -1.2499687,-2.4999375 -1.2499687,-3.7499063 0,-1.3805625 1.119375,-2.4999375 2.4999375,-2.4999375 1.3805625,0 2.4999375,1.119375 2.4999375,2.4999375 0,2.4999375 -1.2499688,3.7499063 -1.2499688,6.2498438 0,0.6902813 0.5596875,1.2499683 1.2499688,1.2499683 0.6902813,0 1.2499687,-0.559687 1.2499687,-1.2499683" style="clip-rule:nonzero;fill:none;stroke:#000000;stroke-width:0.59999996;stroke-linecap:round;stroke-linejoin:round;stroke-miterlimit:4;stroke-dasharray:none;stroke-opacity:1" inkscape:connector-curvature="0"/>
  </g>
</svg>