<?xml version="1.0" encoding="UTF-8" standalone="no"?>
<svg xmlns:dc="http://purl.org/dc/elements/1.1/" xmlns:cc="http://creativecommons.org/ns#" xmlns:rdf="http://www.w3.org/1999/02/22-rdf-syntax-ns#" xmlns:svg="http://www.w3.org/2000/svg" xmlns="http://www.w3.org/2000/svg" xmlns:sodipodi="http://sodipodi.sourceforge.net/DTD/sodipodi-0.dtd" xmlns:inkscape="http://www.inkscape.org/namespaces/inkscape" width="12pt" height="12pt" viewBox="0 0 12 12" version="1.1" id="svg9" sodipodi:docname="sco.svg" inkscape:version="0.92.5 (2060ec1f9f, 2020-04-08)">
  <metadata id="metadata15">
    <rdf:RDF>
      <cc:Work rdf:about="">
        <dc:format>image/svg+xml</dc:format>
        <dc:type rdf:resource="http://purl.org/dc/dcmitype/StillImage"/>
      </cc:Work>
    </rdf:RDF>
  </metadata>
  <defs id="defs13">
    <clipPath id="clip1">
      <path inkscape:connector-curvature="0" d="M 0,0 H 80.398438 V 80.398438 H 0 Z m 0,0" id="path2-3"/>
    </clipPath>
  </defs>
  <sodipodi:namedview pagecolor="#ffffff" bordercolor="#666666" borderopacity="1" objecttolerance="10" gridtolerance="10" guidetolerance="10" inkscape:pageopacity="0" inkscape:pageshadow="2" inkscape:window-width="1920" inkscape:window-height="1015" id="namedview11" showgrid="false" inkscape:zoom="14.75" inkscape:cx="6.542373" inkscape:cy="8" inkscape:window-x="0" inkscape:window-y="0" inkscape:window-maximized="1" inkscape:current-layer="svg9"/>
  <g id="g832">
    <g transform="matrix(0.14925,0,0,0.14925,2.6657917e-4,2.6656425e-4)" style="clip-rule:nonzero;stroke-width:4.0201005;stroke-miterlimit:4;stroke-dasharray:none;stroke-linejoin:round;stroke-linecap:round" clip-path="url(#clip1)" id="g13">
      <path inkscape:connector-curvature="0" style="fill:none;stroke:#000000;stroke-width:40.20100503;stroke-linecap:round;stroke-linejoin:round;stroke-miterlimit:4;stroke-dasharray:none;stroke-opacity:1" d="m 91.523438,510.28906 c -15.703126,15.70313 -24.53125,36.99219 -24.53125,59.21875 0,22.1875 8.828124,43.51563 24.53125,59.21875 15.703122,15.70313 37.031252,24.53125 59.218752,24.53125 46.25,0 83.75,-37.5 83.75,-83.75 v -335" transform="matrix(0.1,0,0,-0.1,0,80.4)" id="path7"/>
      <path inkscape:connector-curvature="0" style="fill:none;stroke:#000000;stroke-width:40.20100503;stroke-linecap:round;stroke-linejoin:round;stroke-miterlimit:4;stroke-dasharray:none;stroke-opacity:1" d="m 234.49219,569.50781 c 0,46.25 37.5,83.75 83.75,83.75 46.25,0 83.75,-37.5 83.75,-83.75 v -335" transform="matrix(0.1,0,0,-0.1,0,80.4)" id="path9"/>
      <path inkscape:connector-curvature="0" style="fill:none;stroke:#000000;stroke-width:40.20100503;stroke-linecap:round;stroke-linejoin:round;stroke-miterlimit:4;stroke-dasharray:none;stroke-opacity:1" d="m 401.99219,569.50781 c 0,46.25 37.5,83.75 83.75,83.75 46.25,0 83.75,-37.5 83.75,-83.75 v -335 c 0,-46.25 37.5,-83.75 83.75,-83.75 22.22656,0 43.51562,8.82813 59.21875,24.53125 15.70312,15.70313 24.53125,36.99219 24.53125,59.21875 0,22.1875 -8.82813,43.51563 -24.53125,59.21875 l -33.47657,33.47656" transform="matrix(0.1,0,0,-0.1,0,80.4)" id="path11"/>
    </g>
    <path inkscape:connector-curvature="0" style="fill:none;stroke:#000000;stroke-width:0.6;stroke-linecap:round;stroke-linejoin:round;stroke-miterlimit:4;stroke-dasharray:none;stroke-opacity:1" d="M 10.008762,8.2410825 V 6.9911137 h 1.249968" id="path15"/>
  </g>
</svg>