<?xml version="1.0" encoding="UTF-8" standalone="no"?>
<svg xmlns:dc="http://purl.org/dc/elements/1.1/" xmlns:cc="http://creativecommons.org/ns#" xmlns:rdf="http://www.w3.org/1999/02/22-rdf-syntax-ns#" xmlns:svg="http://www.w3.org/2000/svg" xmlns="http://www.w3.org/2000/svg" xmlns:sodipodi="http://sodipodi.sourceforge.net/DTD/sodipodi-0.dtd" xmlns:inkscape="http://www.inkscape.org/namespaces/inkscape" width="12pt" height="12pt" viewBox="0 0 12 12" version="1.1" id="svg9" sodipodi:docname="cap.svg" inkscape:version="0.92.5 (2060ec1f9f, 2020-04-08)">
  <metadata id="metadata15">
    <rdf:RDF>
      <cc:Work rdf:about="">
        <dc:format>image/svg+xml</dc:format>
        <dc:type rdf:resource="http://purl.org/dc/dcmitype/StillImage"/>
      </cc:Work>
    </rdf:RDF>
  </metadata>
  <defs id="defs13">
    <clipPath id="clip1">
      <path inkscape:connector-curvature="0" d="M 0,0 H 80.398438 V 80.398438 H 0 Z m 0,0" id="path2-5"/>
    </clipPath>
  </defs>
  <sodipodi:namedview pagecolor="#ffffff" bordercolor="#666666" borderopacity="1" objecttolerance="10" gridtolerance="10" guidetolerance="10" inkscape:pageopacity="0" inkscape:pageshadow="2" inkscape:window-width="1920" inkscape:window-height="1015" id="namedview11" showgrid="false" inkscape:zoom="14.75" inkscape:cx="-12.440678" inkscape:cy="8" inkscape:window-x="0" inkscape:window-y="0" inkscape:window-maximized="1" inkscape:current-layer="svg9"/>
  <g transform="matrix(0.14925,0,0,0.14925,-0.14973342,2.6657917e-4)" id="surface1" style="stroke:#000000;stroke-width:4.0201005;stroke-miterlimit:4;stroke-dasharray:none;stroke-opacity:1;stroke-linejoin:round;stroke-linecap:round">
    <g style="clip-rule:nonzero;stroke:#000000;stroke-width:4.0201005;stroke-miterlimit:4;stroke-dasharray:none;stroke-opacity:1;stroke-linejoin:round;stroke-linecap:round" clip-path="url(#clip1)" id="g9">
      <path inkscape:connector-curvature="0" style="fill:none;stroke:#000000;stroke-width:40.20100503;stroke-linecap:round;stroke-linejoin:round;stroke-miterlimit:4;stroke-dasharray:none;stroke-opacity:1" d="M 66.992188,513.6875 H 178.67187 L 290.3125,67.007812 401.99219,513.6875 H 625.3125 c 61.67969,0 111.67969,49.96094 111.67969,111.64062 0,19.60938 -5.15625,38.86719 -14.96094,55.85938 -19.92188,34.53125 -56.79688,55.82031 -96.71875,55.82031 -61.64063,0 -111.64063,-50 -111.64063,-111.67969 0,-19.60937 5.15625,-38.86718 14.96094,-55.82031 l 193.39844,-335 c 9.80469,-16.99219 14.96094,-36.25 14.96094,-55.82031 0,-61.67969 -50,-111.679688 -111.67969,-111.679688 -61.64063,0 -111.64063,49.999998 -111.64063,111.679688" transform="matrix(0.1,0,0,-0.1,0,80.4)" id="path7"/>
    </g>
  </g>
</svg>