<?xml version="1.0" encoding="UTF-8"?>
<!-- Generator: Adobe Illustrator 22.0.1, SVG Export Plug-In . SVG Version: 6.00 Build 0)  -->
<svg version="1.1" id="svg1131" inkscape:version="0.92.4 5da689c313, 2019-01-14" sodipodi:docname="logo.svg" xmlns:cc="http://creativecommons.org/ns#" xmlns:dc="http://purl.org/dc/elements/1.1/" xmlns:inkscape="http://www.inkscape.org/namespaces/inkscape" xmlns:rdf="http://www.w3.org/1999/02/22-rdf-syntax-ns#" xmlns:sodipodi="http://sodipodi.sourceforge.net/DTD/sodipodi-0.dtd" xmlns:svg="http://www.w3.org/2000/svg" xmlns="http://www.w3.org/2000/svg" xmlns:xlink="http://www.w3.org/1999/xlink" x="0px" y="0px" viewBox="0 0 2270.8 1813.3" style="enable-background:new 0 0 2270.8 1813.3;" xml:space="preserve">
<style type="text/css">
	.st0{fill:#F9F9F9;stroke:#000000;stroke-width:0.75;}
</style>
<defs>
	
	
		<inkscape:path-effect apply_no_weight="true" apply_with_weight="true" effect="bspline" helper_size="0" id="path-effect1158" is_visible="true" only_selected="false" steps="2" weight="33.333333">
		</inkscape:path-effect>
</defs>
<sodipodi:namedview bordercolor="#666666" borderopacity="1" gridtolerance="10" guidetolerance="10" id="namedview1133" inkscape:current-layer="layer1" inkscape:cx="2360.1615" inkscape:cy="1944.6051" inkscape:pageopacity="0" inkscape:pageshadow="2" inkscape:window-height="900" inkscape:window-maximized="0" inkscape:window-width="1600" inkscape:window-x="0" inkscape:window-y="0" inkscape:zoom="0.20682873" objecttolerance="10" pagecolor="#ffffff" showgrid="false">
	</sodipodi:namedview>
<g id="layer1" inkscape:groupmode="layer" inkscape:label="Layer 1">
	
		<path id="path1156" inkscape:connector-curvature="0" inkscape:original-d="m 767.2,1239 c -4.31685,-28.4306 -8.63438,-56.8605 -12.95273,-85.2896 20.54865,-57.4141 41.09753,-114.8301 61.6452,-172.24395 9.67043,-15.10965 19.3404,-30.219 29.00948,-45.32738 18.13065,-19.33927 36.26265,-38.68012 54.39285,-58.01902 12.0876,-26.5917 24.17535,-53.18483 36.2619,-79.77615 22.36148,-38.67878 44.7237,-77.35945 67.0845,-116.03804 27.1965,-26.59219 54.3935,-53.18485 81.5892,-79.77615 21.1529,-15.71379 42.3063,-31.42772 63.4583,-47.14045 46.1694,-20.09637 92.3416,-40.19359 138.5113,-60.28926 20.9144,-7.10061 41.8289,-14.20074 62.7422,-21.29999 58.6216,-12.08753 117.2475,-24.17534 175.8702,-36.26189 44.7231,13.29508 89.4467,26.5913 134.169,39.88808 44.7232,26.59101 89.4467,53.18335 134.1689,79.77615 39.2842,8.46031 78.5682,16.92147 117.8512,25.38332 41.7013,36.26062 83.4031,72.52303 125.1035,108.78566 42.3062,31.42618 84.6118,62.85322 126.9166,94.28092 22.9665,33.23917 44.7237,66.4794 67.0845,99.72015 13.2968,13.89975 26.5927,27.80002 39.8881,41.7012 9.6705,35.05245 19.3404,70.10558 29.0094,105.1595 -4.2298,56.8104 -8.4603,113.6198 -12.6916,170.4309 1.2095,3.021 2.4182,6.0429 3.6262,9.0654 47.1472,30.2214 94.2816,60.4357 141.4213,90.6547 9.0662,5.4386 18.1317,10.8779 27.1964,16.3179 16.3182,25.382 32.6365,50.7659 48.9536,76.1499 -1.208,4.8342 -2.4167,9.6692 -3.6262,14.5048 -12.0887,30.8275 -24.1738,61.6444 -36.2619,92.4678 -13.2956,18.7351 -26.5913,37.4699 -39.8881,56.206 -42.9111,32.6364 -85.819,65.2706 -128.7297,97.9071 -3.4005,6.1868 -6.8016,12.3741 -10.2036,18.5624 -8.0821,54.8605 -16.1627,109.7059 -24.2451,164.56 -14.6178,24.2463 -29.2359,48.4926 -43.8549,72.74 -4.3661,-8.6344 -8.7326,-17.2674 -13.1,-25.9 -13.3321,10.7655 -26.6659,21.5326 -40,32.3 -11.8003,5.6509 -23.5999,11.302 -35.401,16.9541 -4.8346,2.4169 -9.6691,4.8341 -14.5048,7.2524 -2.9645,-18.1397 -5.9287,-36.2718 -8.8942,-54.4065 0.3674,-4.1673 0.7341,-8.334 1.1,-12.5 -5.4982,5.6648 -10.9992,11.3326 -16.5,17 -4.5935,5.757 -9.1864,11.5131 -13.7807,17.2707 11.1831,-30.2232 22.3622,-60.4372 33.5422,-90.6547 -1.8123,-1.8138 -3.6255,-3.627 -5.4393,-5.4393 -19.7922,14.2019 -39.5851,28.4044 -59.3788,42.6078 -16.62,58.3229 -33.2394,116.6416 -49.8601,174.9636 -8.7627,10.5757 -17.5259,21.152 -26.2899,31.7291 -26.2025,25.5901 -52.4016,51.1769 -78.6036,76.7665 -44.0176,26.923 -88.0335,53.8453 -132.0513,80.7692 -17.0936,9.8285 -34.1873,19.6574 -51.282,29.4872 -78.6359,2.136 -157.2642,3.418 -235.8975,5.1282 -26.4952,-4.7017 -52.9907,-9.4025 -79.4871,-14.1026 -46.5816,-15.3857 -93.1617,-30.77 -139.7436,-46.1539 -10.6832,-11.1119 -21.3669,-22.2229 -32.0514,-33.3333 -7.2642,-14.958 -14.5291,-29.9153 -21.7948,-44.8718 -17.3929,-17.4226 -34.7873,-34.8452 -52.1821,-52.2667 -25.3402,-16.7665 -50.6812,-33.5323 -76.0231,-50.2974 -35.4695,-28.6334 -70.9394,-57.2657 -106.4102,-85.8974 -9.82837,-7.6931 -19.65735,-15.3854 -29.48715,-23.077 -43.58948,-73.0784 -87.1788,-146.1546 -130.76925,-219.2308 -12.3924,-18.804 -24.78563,-37.6075 -37.17953,-56.4102 -5.12737,-4.7016 -10.25565,-10.2571 -15.3846,-15.3846 2.8854,-23.7683 5.76998,-47.5358 8.6538,-71.3026 0.10763,-7.0022 0.2145,-14.0042 0.32055,-21.0051 -21.36443,-11.5379 -42.73428,-23.0777 -64.10255,-34.6154 -35.46978,19.2303 -70.93942,38.4608 -106.41026,57.6924 -41.88065,27.7776 -83.75994,55.5547 -125.64103,83.3333 -35.89743,8.119 -71.79412,16.2385 -107.69231,24.3589 -11.15765,-0.1554 -22.31549,-0.3102 -33.47437,-0.4641 1.22306,-0.861 2.55204,-1.7212 3.82694,-2.5807 -8.84,-39.9887 -17.69271,-80.0309 -26.54018,-120.0451 -8.00697,-10.1237 -16.01491,-20.247 -24.02351,-30.3694 -6.34501,-24.9305 -12.6909,-49.8608 -19.03749,-74.79 -3.47427,-13.4477 -6.94944,-26.895 -10.42529,-40.3414 4.08006,-15.8648 8.15968,-31.7299 12.23839,-47.5937 -1.35899,-14.0515 -2.71889,-28.1037 -4.07946,-42.1545 11.02988,-26.2893 22.06006,-52.5805 33.08897,-78.8696 -2.7188,-5.5909 -5.43853,-11.1815 -8.15892,-16.7711 12.23845,-29.9152 24.47752,-59.8329 36.71516,-89.7482 1.05835,-2.2671 2.41821,-4.5335 3.62619,-6.7991 43.04473,11.7797 86.12273,23.5695 129.18297,35.3554 37.47093,22.2094 74.94198,44.42 112.41185,66.6312 47.29201,29.1596 94.58384,58.3204 141.87463,87.4818 4.53347,1.9634 9.06623,3.9276 13.59821,5.8925 7.10148,-7.1014 14.20332,-14.2033 21.30386,-21.3038 8.69906,-12.3642 17.39918,-24.7303 26.09768,-37.0943 0,0 7.5e-4,-7e-4 0,0 0,0 7.5e-4,-7e-4 0,0 z" inkscape:path-effect="#path-effect1158" class="st0" d="   M526.8,775c-2.2-14.2-6.5-42.6,1.6-85.6c8.1-42.9,28.7-100.3,43.8-136.6c15.1-36.3,24.8-51.4,38.7-68.6s32-36.6,47.1-59.5   s27.2-49.6,44.4-82.2c17.2-32.6,39.6-71.3,64.4-104c24.8-32.6,52-59.2,76.2-80.4c24.2-21.2,45.3-36.9,79-54.8s79.8-38,113.4-51.6   c33.5-13.6,54.5-20.7,94.2-30.3S1228-0.2,1279.7,0.4c51.7,0.6,96.4,13.9,141.1,33.8s89.4,46.5,131.4,64.1s81.3,26,121.8,48.3   s82.2,58.6,124.2,92.5c42,33.8,84.3,65.3,116.7,97.7s54.6,65.4,72.4,89s31.1,37.5,42.6,61.9s21.2,59.5,23.9,105.5   c2.7,45.9-1.5,102.7-3,132.7s-0.3,32.9,23.9,49.6s71.3,46.8,99.4,64.7c28.1,17.8,37.2,23.3,49.9,38.7c12.7,15.4,29,40.8,36.6,55.9   c7.6,15.1,6.3,19.9-0.3,37.8c-6.6,17.8-18.7,48.6-31.4,73.4c-12.7,24.8-26,43.5-54.1,69.2c-28.1,25.7-71,58.3-94.2,77.7   c-23.2,19.4-26.6,25.6-32.3,56.1c-5.7,30.5-13.8,85.4-25.2,124.9c-11.3,39.6-26,63.8-35.5,71.6c-9.5,7.8-13.9-0.8-22.7,0.2   c-8.8,1.1-22.2,11.8-34.8,20s-24.4,13.9-32.7,17.9c-8.3,4-13.2,6.5-17.1-1.4s-6.9-26-8.2-37.1c-1.3-11.2-0.9-15.3-3.5-14.6   c-2.6,0.7-8.1,6.4-13.1,12.1c-5,5.7-9.6,11.5-6.3-0.8c3.3-12.2,14.5-42.4,19.2-58.5s2.9-17.8-7.9-11.6   c-10.8,6.2-30.6,20.4-48.8,56.7c-18.2,36.3-34.8,94.6-47.5,129c-12.7,34.4-21.5,45-38.9,63.1s-43.7,43.7-78.8,69.9   c-35.1,26.3-79.1,53.2-109.7,71.6c-30.6,18.4-47.6,28.2-95.5,34s-126.5,7.5-179.1,6c-52.6-1.5-79.1-6.2-115.6-16.2   c-36.5-10-83.1-25.4-111.8-38.7c-28.6-13.2-39.3-24.4-48.3-37.4c-9-13-16.2-28-28.6-44.2c-12.3-16.2-29.7-33.6-51.1-50.7   c-21.4-17.1-46.7-33.9-77.1-56.6c-30.4-22.7-65.9-51.3-88.5-69.5c-22.6-18.2-32.5-25.9-59.2-66.2c-26.7-40.4-70.3-113.5-98.3-159.4   s-40.4-64.7-49-76.6c-8.7-11.9-14-17.2-15.1-31.6s1.8-38.2,3.3-53.6c1.5-15.4,1.6-22.4-9-31.7c-10.6-9.3-32-20.8-60.4-17   c-28.4,3.8-63.9,23.1-102.6,46.6c-38.7,23.5-80.6,51.3-119.4,69.2s-74.8,26.1-98.3,30.1s-34.7,3.8-39.6,3.3   c-5-0.5-3.6-1.4-7.4-21.8c-3.8-20.4-12.6-60.5-21.1-85.5c-8.4-25.1-16.4-35.2-23.6-52.7c-7.2-17.5-13.5-42.5-18.4-61.6   c-4.9-19.2-8.4-32.6-8.1-47.3c0.3-14.7,4.4-30.5,5.7-45.5c1.4-15,0-29,4.8-49.2c4.8-20.2,15.9-46.5,20-62.4s1.4-21.5,6.2-39.3   c4.8-17.8,17-47.7,23.7-63.7s7.9-18.4,30.1-13.6s65.2,16.5,105.5,33.5S288.7,732,331,757.7s89.7,54.8,115.6,70.4   c25.9,15.6,30.4,17.5,36.3,15s12.9-9.7,20.8-19.4c7.9-9.7,16.6-22.1,25.3-34.5l0,0C529,789.2,529,789.2,526.8,775L526.8,775z"/>
</g>
<g id="layer2" inkscape:groupmode="layer" inkscape:label="Layer 2">
	<g id="g1129" transform="matrix(0.1,0,0,-0.1,0,2800)">
		<path id="path1005" d="M12413.1,27977.3c-457-17-906-85-1437-217c-150-37-198-46-198-36c0,22-49,17-177-21    c-220-64-518-193-973-420c-760-380-1422-886-1874-1431c-253-305-505-698-631-984c-171-389-479-932-701-1236    c-46-62-145-189-222-281c-164-199-242-301-307-402c-156-244-279-550-355-876c-18-77-52-207-76-290c-24-82-55-190-68-240l-25-90v53    c-1,29-6,52-12,52c-25,0-68-166-110-422c-18-113-24-135-34-121c-22,30-32,5-38-97c-8-130,27-421,79-648l36-162l-194-203    c-107-111-220-229-251-262l-56-60l-114,58c-165,84-668,386-853,512c-148,101-235,163-634,455c-481,352-826,534-1317,693    c-334,109-632,171-903,188c-91,6-175,16-188,22c-18,9-29,7-51-6c-16-9-36-17-45-17c-22,0-20-10,7-44l24-29l-37-131    c-21-72-56-189-78-261c-22-71-53-174-68-228c-21-77-36-109-66-145c-56-68-100-166-106-234c-4-51-2-59,22-83s26-31,17-57    c-16-46,5-64,39-33c32,29-55-195-153-395c-53-107-112-242-131-298c-31-90-36-117-36-197c0-82,23-346,35-400c3-15-6-26-36-43    c-88-51-124-160-116-347c8-180,35-263,138-421c85-130,149-250,149-280c0-56,59-321,97-434c27-83,43-116,56-118c9-2,20,5,25,15    c6,15,15,10,61-39l54-58l-54,16c-30,9-76,25-102,35c-59,24-67,24-67,0c0-23,61-64,160-107c47-21,74-38,72-47    c-5-29,108-567,144-682c20-66,49-164,65-217c15-53,34-107,42-120c18-29,40-116,32-129c-4-5-15-9-26-9c-33,0-21-44,12-48    c17-2,29-11,32-24c5-18,11-20,49-15c24,4,95,9,158,12c154,9,264,22,385,46c96,20,144,32,405,100c63,17,279,80,480,140    c402,121,551,183,665,276c59,48,96,96,83,109c-4,3-34-10-67-30c-64-39-210-109-251-121c-14-4,9,15,50,41c87,54,605,398,860,571    c223,151,400,257,410,246c5-4,12-24,17-43c6-22,16-36,28-39c16-3,18,2,12,58c-6,50-4,61,8,61c9,0,47,11,85,24l70,25l26-60    c42-92,55-72,29,46c-6,29-5,31,57,52c45,16,104,25,206,32l142,10l139-77l140-78l76-102c41-56,82-105,90-110c14-7,14-13,0-52    c-24-68-53-223-65-352c-6-65-15-132-21-150c-5-21-5-65,2-123c11-98,26-128,136-287c56-82,62-98,37-98c-9,0-14-7-12-17    c2-12,14-19,38-21c29-3,41-12,75-58c22-30,81-101,132-157c101-110,156-187,223-312c36-66,39-75,17-52c-31,32-57,35-57,7    c0-17,219-398,328-569c114-181,218-333,373-546c95-132,197-278,225-325s124-196,215-332c90-136,212-326,272-421    c122-198,180-263,228-253c15,3,31,1,34-4c3-6,14-10,24-10s24-7,31-15s45-36,84-62s103-74,141-108c103-91,410-331,488-382    c37-24,92-55,121-68c36-16,124-84,262-203c273-233,502-424,591-492c69-52,73-57,84-110c17-82,56-160,81-160c15,0,18,4,13,18    c-14,37-35,126-30,131c8,8,157-142,244-246c100-118,377-504,373-520c-1-6,16-27,39-45c22-18,57-55,77-81c33-45,38-49,69-44    c26,5,46-1,86-25c176-105,619-285,855-348c43-11,44-12,38-46c-9-43,14-47,35-6l14,28l205-48c113-27,252-60,310-74    c132-30,727-117,1035-149c182-20,630-22,975-5c188,9,261,17,370,40c216,46,429,87,655,125c260,44,442,93,560,150    c102,49,263,153,375,241c41,33,109,77,150,99c113,59,259,143,313,182c26,18,71,43,100,53c128,49,327,222,596,519    c223,245,242,263,316,291c73,29,92,40,176,107c129,103,316,333,393,483c53,104,80,177,146,390c107,346,155,484,270,780    c244,626,260,655,481,847l116,101l-58-171c-56-168-156-547-163-624c-2-21-10-50-16-65c-16-34-7-58,21-58c25,0,126,99,191,188    l46,62l6-67c3-38,11-97,17-133s17-112,24-169c9-64,23-121,37-150c20-39,28-46,57-49c18-2,38,1,44,7c14,14,9,153-8,226    c-8,33-19,94-25,135s-15,87-20,101c-15,49,18,175,105,388c46,113,118,301,160,416c119,326,138,376,141,372c2-2-10-44-27-93    c-60-177-208-682-238-815c-35-154-40-239-15-260c14-11,20-9,43,17c14,17,32,39,39,50c7,10,3-1-9-26c-27-56-107-170-120-170    c-5,0-9-4-9-10c0-40,91,33,149,120c54,80,414,753,513,960c114,236,227,509,283,679c21,63,36,92,64,118c53,50,585,491,589,488    c2-2-17-68-43-147c-94-292-148-558-160-793c-5-97-14-146-46-258c-22-75-57-213-78-305c-44-189-66-247-183-492    c-47-96-95-201-108-233l-23-57l-32,92c-18,51-45,120-62,153c-28,58-29,65-27,185c2,117,6,141,68,385c55,222,77,288,145,453    c80,192,131,338,131,370c-1,9-20-28-44-83c-73-172-138-305-147-299c-5,2-16-21-25-53s-70-182-136-333s-149-342-185-425    c-35-82-98-222-140-311l-76-161l-120-64c-91-48-140-82-199-137c-43-41-81-85-84-98c-9-35,13-57,48-50c49,10,160,81,238,154l76,70    l-4-34c-3-22-11-35-24-40c-33-10-19-47,21-55c38-8,88,9,137,47c44,32,170,210,225,316l45,89l12-62c12-67,37-113,56-106    c6,3,23-16,37-43l26-48l-21-43c-18-34-38-55-64-65c-1-1,0-9,4-18c11-28,76-21,106,12s140,226,192,337c21,44,51,94,68,110    c46,45,89,146,161,385c97,318,139,499,182,785c9,61,27,153,40,205s37,174,54,271c26,144,63,330,97,489c4,17,22,36,52,55    c99,62,557,415,787,606c44,36,120,95,169,129c49,35,121,91,159,124c38,34,82,70,98,82c16,11,55,52,86,91c32,38,79,94,104,124    c26,30,55,72,66,94s44,78,74,125c70,110,228,410,297,565c102,226,172,480,172,620c0,74-23,166-51,206c-10,15-23,39-29,55    c-6,15-41,78-77,138c-170,287-317,461-548,654c-151,126-454,322-523,338c-15,4-77,35-139,70c-104,60-315,161-373,179    c-14,4-100,45-192,90c-146,72-173,89-219,139c-64,71-104,89-194,91c-41,1-79,7-93,16c-32,20-175,304-174,346c1,18,10,85,21,150    c38,221,101,687,121,893c11,113,23,220,26,238c4,17,4,32,0,32c-14,0-36-63-52-148c-10-50-19-90-21-88s4,114,13,250    c12,171,14,250,6,258c-13,13-22-30-71-357c-33-221-59-430-93-760c-2-16-7,31-11,105c-31,538-104,1271-128,1286    c-41,25,61-1472,107-1571c11-23,12-48,7-100l-8-70l-37,75l-37,75l-10,280c-19,498-112,1509-142,1540c-29,30,29-1085,80-1530    c10-88,18-161,17-162s-62,137-135,308l-132,309l-3,228c-2,125-2,216,1,202c2-14,17-119,34-235c35-249,49-317,68-323    c12-4,13,12,8,97c-9,133-68,566-117,861c-22,129-44,296-50,370c-26,331-80,783-112,932c-10,48-22,66-32,49c-4-5,5-171,18-368    c14-197,32-470,41-608c20-323,40-569,66-828c11-114,19-212,17-217c-2-6-33,61-71,147c-66,154-68,162-87,318    c-50,391-163,1054-217,1275c-24,100-36,130-48,118c-10-10,146-962,212-1293c37-187,51-317,30-280c-6,11-64,109-128,218    c-65,109-113,194-107,191c25-16-4,74-47,145c-40,65-50,94-75,210c-138,646-271,1186-299,1214c-8,8-11,6-11-6    c0-33,204-958,261-1181c11-43,19-80,17-81c-3-4-268,297-329,374c-26,32-35,51-27,53c25,9-15,58-157,197l-142,137l-7,70    c-20,202-130,841-156,910c-16,40-31,18-25-34c3-26,15-123,26-217c20-170,95-642,107-673c3-9-23,7-58,36c-36,29-98,78-138,109    c-40,30-74,65-76,77c-3,11-10,57-16,101c-35,239-147,757-181,834c-24,54-33,49-20-11c6-25,22-119,35-209c20-130,94-532,124-668    c4-20-10-12-94,50c-54,40-113,83-130,95c-29,22-32,28-38,106c-38,454-90,841-110,817c-6-8,22-406,44-627c13-122,21-225,18-227    c-3-3-79,43-169,103c-190,126-333,215-475,298l-101,59l-6,115c-7,140-53,456-106,722c-39,201-66,274-110,297c-17,9-16,5,5-47    c17-44,28-108,44-258c11-109,30-257,40-329c45-302,64-445,59-449c-3-3-73,31-156,74l-150,80l-7,93c-11,140-40,259-126,517    c-99,296-187,523-231,596c-39,64-94,132-102,124c-3-3,14-45,38-93s58-133,75-190c47-154,110-347,199-607c68-200,128-420,115-420    c-2,0-61,26-131,59c-71,32-153,69-183,81c-30,13-62,29-70,37c-12,11-7,13,33,13c26,0,47,5,47,10c0,6-20,10-45,10c-38,0-45,3-50,23    c-19,76-52,227-49,227c2,0,22-37,45-82c53-105,91-166,96-152c13,38-506,1194-535,1194c-18,0,7-80,83-264c41-99,75-187,75-196    c0-36,90-412,146-608c20-68,34-125,32-127s-54,15-115,38l-111,41l-56,226c-31,124-74,288-96,365c-25,89-45,187-55,270    c-8,72-18,142-21,158c-9,44-24,20-25-41c-1-53-2-54-10-24c-5,17-15,32-21,32c-13,0-7-59,20-195c20-100,59-601,48-613    c-3-3-6,9-6,28c0,95-76,676-96,740c-5,13-6,13-14,0c-17-30,39-622,75-800c7-36,12-66,11-67c-2-2-289,76-294,81c-2,3-22,191-42,418    c-38,406-76,747-85,757c-16,15,2-311,36-672c11-121,19-221,16-223c-2-2-18,65-37,149c-47,217-164,656-179,670c-11,10-12-1-6-53    c14-135,115-622,191-924c14-54,23-100,21-102c-6-6-322,60-325,68c-2,4-27,8-55,9c-29,0-88,6-132,12l-80,12l-6,160    c-4,88-14,219-23,290c-42,336-106,741-133,840c-19,70-51,150-58,143c-3-2,2-42,10-89c8-46,26-199,40-339s44-385,66-545    c51-369,61-447,57-451c-4-3-138,13-143,18c-2,2-63,152-135,333c-155,390-302,733-308,717c-7-21,239-659,393-1016l16-39l-48,6    c-26,4-105,9-175,13c-71,4-128,8-128,10c0,11-99,366-165,589c-101,347-187,613-192,598c-8-22,216-821,302-1078    c20-59,35-109,33-110c-2-2-36,0-76,2l-74,6l-18,43c-42,97-183,554-211,681c-32,147-173,705-188,744c-8,21-10,22-16,7    c-4-9,5-79,19-155s28-154,31-173c4-32,4-31-8,7c-6,23-15,44-18,48c-36,35-4-919,33-975c9-15,4,559-7,685l-5,60l30-90    c16-49,41-151,55-225c32-166,97-424,160-640c4-13-32-15-280-16c-157-1-285,1-285,5s41,19,92,34c72,22,93,25,99,15    c35-56,23,126-41,622c-42,328-127,856-140,878c-37,57,53-755,141-1282c16-98,28-181,25-183c-2-2-73-6-157-8c-183-5-249-16-524-89    c-116-30-225-58-243-61l-34-7l7,184c3,100,11,284,16,408c11,224,29,1341,23,1349c-2,2-10-12-19-32c-39-94-70-691-70-1360    c0-284-3-517-6-517c-26,0-201-35-278-56c-51-14-95-23-98-20c-7,7,124,227,186,311c28,38,51,74,51,80c-2,34-184-214-266-362    c-27-49-64-84-50-48c7,19-8,19-24,0c-7-8-15-15-19-15c-3,0-6,114-5,252c2,572-42,1492-74,1542c-15,24-20-63-21-379    c-1-356,10-727,34-1115c8-135,16-262,17-284l2-38l-233-80c-128-44-234-78-236-76s0,64,5,138c19,280,31,599,37,1015    c6,409,2,529-17,495c-16-31-48-611-55-1035c-4-170-8-332-10-360c-2-27-4-101-5-163c0-100-2-114-18-118c-9-3-103-38-207-79    c-137-54-192-71-197-62c-21,33-7,70,57,148c36,45,65,85,65,89c0,27-25,12-78-46c-55-61-60-64-65-42c-4,13-13,133-22,268    c-19,306-30,450-56,760c-20,232-22,456-4,580c5,33,4,33-19-15c-14-28-32-97-42-155c-16-96-16-134-5-435c19-533,42-832,77-1017    l15-79l-73-83c-71-81-78-86-216-155c-79-39-146-71-149-71c-6,0,1,54,12,88c5,16,3,22-8,22c-8,0-17,10-21,23c-9,34-7,324,4,482    c5,77,14,280,20,450c12,343,22,404,80,483c34,48,26,54-20,15c-70-59-102-142-120-308c-54-522-64-916-30-1110l19-110l-25-36    c-41-60-62-78-134-114c-179-90-642-374-1054-646c-99-66-181-117-183-115c-9,9-45,260-78,556c-20,173-54,443-76,600s-44,323-47,370    c-7,78-8,83-21,61c-20-36-15-158,19-496c48-479,84-727,141-984c16-74,26-137,22-141s-53-38-108-75c-55-38-142-99-193-137    c-50-37-96-68-101-68c-18,0-54,289-71,565c-6,99-22,326-36,505c-25,307-27,418-8,465c7,18,6,18-9,7c-33-27-42-82-40-237    c6-332,31-757,59-963l15-114l-113-173c-62-95-114-172-115-171s-11,96-23,211c-11,116-37,332-56,482c-18,149-34,292-34,318    c0,57-15,51-23-10c-10-73,47-728,83-950l18-110l-69-110c-37-60-89-130-114-155c-46-45-56-45-30,0c16,28,20,60,7,60    c-5,0-28-37-51-81c-41-77-94-149-110-149c-4,0-16,35-25,78c-50,210-228,776-272,864c-22,43-44,69-44,52c0-31,186-668,254-870    l54-161l-56-56l-55-56l-93,277c-109,330-228,651-232,630c-4-20,123-424,220-702c80-226,80-228,62-251c-40-49-159-183-164-184    c-3,0-54,101-115,226c-123,253-116,221-90,423c7,58,16,114,20,125c7,20,6,20-9,0c-21-24-34-70-48-167c-7-43-15-78-19-78    s-34,52-66,115c-97,192-100,128-4-90l58-130l-27-190c-25-170-29-187-39-161c-73,183-116,283-123,291c-18,21-5-31,58-224l66-202    l-16-115c-9-64-16-132-16-152c-1-35-1-36-16-17c-8,11-40,66-70,122l-55,102l5,88c3,48,8,222,11,387c3,164,8,312,11,330    c4,22,3,27-4,16c-19-29-31-136-42-375c-7-132-15-271-18-308l-7-69l-37,65c-36,60-38,69-39,153c-1,87-16,88-18,2c-1-21-5-38-9-38    c-10,0-48,74-57,112c-10,38-25,25-25-21c0-22,15-69,38-117l37-79l-5-225l-5-225l-55,170c-49,153-54,181-58,278c-2,59-8,107-14,107    c-16,0-39-71-45-139c-9-110,63-430,137-610c34-83,41-112,49-211c5-63,8-116,6-118c-1-1-17,48-34,110c-57,200-88,299-158,503    c-37,110-69,202-71,205c-2,2-7-2-12-10c-45-71,68-546,186-784c24-49,44-93,44-98s-57-80-127-165c-117-143-128-153-134-130    c-9,34-18,158-29,433c-6,128-17,310-26,405c-8,96-13,203-9,239c6,65,6,65-14,43c-28-34-41-131-41-319c0-309,21-567,62-772l20-102    l-42-56c-43-55-58-69-65-62c-3,2-13,96-25,209c-28,289-48,464-71,617c-10,73-19,180-19,238c0,57-4,104-8,104c-13,0-30-66-38-141    c-13-135,58-809,107-1006l20-81l-93-115l-93-116l-7,107c-25,360-53,602-70,602c-20,0,31-688,53-716c5-6-32-59-99-142    c-82-100-109-127-113-114c-4,9-19,105-33,212c-25,182-82,526-94,560c-3,9-8,1-14-20c-15-53,45-514,93-722l21-88l-83-100    c-46-55-84-98-85-97c0,1-4,121-8,267c-8,326-16,460-28,460c-6,0-9-148-7-385l3-385l-59-60c-32-33-60-58-62-56c-4,3-21,163-34,316    c-5,58-11,123-14,145s-10,76-16,120c-9,72-8,85,10,127c11,25,29,93,41,150c44,213,130,470,254,762c36,83,79,202,96,265    c74,274,172,529,261,684c71,122,207,316,313,447c297,365,477,639,646,981c42,86,86,170,97,185c21,30,181,314,286,509    c32,61,65,120,73,132s39,68,70,125c65,118,192,313,294,448c409,546,963,1018,1670,1422c91,52,371,199,624,326l458,231l182,40    c936,204,1634,281,2292,252c392-17,628-46,884-111c347-87,656-231,1316-610c329-189,456-241,764-310c691-154,988-305,1340-680    c297-317,353-369,525-482c185-122,278-174,390-219c44-17,83-33,88-36c4-2-6-16-23-30c-53-44-36-66,60-76c117-14,273-122,530-367    c176-168,356-361,438-470c27-36,127-177,222-315c309-445,403-560,574-707c48-41,118-147,167-255c22-48,53-115,68-148    c16-33,35-76,43-95c9-19,43-98,77-175l61-140l15-170c31-362,38-582,32-1023c-6-413-17-611-48-850c-6-51-8-96-4-100    c12-12,44,38,64,102c91,295,145,912,121,1386c-11,235-21,331-51,520c-41,248-81,390-142,491c-18,30-50,97-71,149s-66,149-99,215    c-58,114-68,127-202,265c-153,157-211,231-444,560c-281,399-295,415-586,677c-99,89-209,195-245,234c-76,85-213,207-288,257    c-40,27-50,38-41,48c17,21,4,31-73,54c-104,31-190,78-362,194c-351,238-388,269-575,486c-236,274-432,440-674,570    c-173,93-470,190-825,270c-125,29-263,64-307,78c-102,35-257,113-575,292c-310,174-613,329-778,398c-399,168-757,238-1342,262    C12713.1,27989.3,12710.1,27989.3,12413.1,27977.3z M15612.1,25542.3c19-67,50-159,69-206l34-85l-62,20l-62,20l-7,146    c-3,80-9,169-11,196C15567.1,25697.3,15570.1,25689.3,15612.1,25542.3z M13083.1,25377.3c-94-31-230-94-325-150l-55-32l90,94    c49,52,96,100,104,107c10,8,55,12,145,11l131-1L13083.1,25377.3z M13292.1,25336.3c-101-96-238-250-535-603    c-461-548-619-745-634-795c-4-13-30-53-57-88c-50-66-80-119-92-162c-4-14,9,3,29,37c43,74,56,89,341,387c187,196,686,725,905,960    c67,73,310,299,344,322c13,8,35,11,63,7c34-5,46-12,58-34c19-39,38-38,31,1c-6,29-5,30,28,30h34l-137-182c-76-101-200-269-276-375    l-138-192l-281-253c-473-424-491-444-586-635c-69-136-111-270-117-363l-4-75l14,70c37,191,145,412,268,553c54,61,529,482,544,482    c3,0-14-28-38-62c-133-189-192-278-184-278c3,0,82,101,175,226c167,222,172,227,358,391c216,190,380,328,473,398    c79,59,74,53-165-200c-168-177-325-350-384-420c-33-40,291,286,554,556c206,212,212,217,311,267c71,36,113,52,140,52    c40,0,374-46,380-53c2-2-51-51-117-110c-117-103-122-107-167-107c-147,0-471-12-492-18c-14-4,93-9,238-12l262-5l-222-200    c-378-340-601-552-620-589c-6-12,18,6,53,40s134,122,219,196s259,228,385,342c127,115,238,211,248,215c17,6,122,0,202-12l40-7    l-45,16c-25,8-67,18-95,21c-27,3-55,8-61,12c-10,5,173,181,211,204c8,4,89-9,182-28c216-45,241-52,256-76c14-23,27-25,27-3    c0,10,6,14,18,10c9-2,86-24,170-47c146-41,176-59,101-61c-19,0-45,3-58,7c-20,7-23,5-18-9c13-33-21-27-84,17    c-101,70-119,80-119,68c0-6,29-34,65-63c36-28,62-55,58-59c-14-11-168-49-203-49c-18,0-41-6-49-14c-9-7-42-21-73-30l-56-16    l-127,45c-177,63-217,58-138-16c35-32,36-33,19-6c-18,29-18,29,5,22c47-15,154-68,144-71c-5-2-126-37-267-78    c-142-42-281-87-310-102c-70-35-157-95-188-129c-23-26-22-25,30,7c141,89,200,111,585,208l250,64l110-43c132-51,265-112,265-121    c0-3-57-46-127-96c-210-146-424-307-373-279c32,18,231,153,377,257l154,109l145-75c80-41,144-70,141-63c-2,7-57,44-121,84    c-65,40-120,74-123,77c-3,2,13,17,36,31l40,27l198-120c189-115,353-203,306-165c-12,10-121,83-243,163c-121,80-220,147-220,150    s16,15,35,28l36,23l97-67c53-37,126-88,162-113l65-46l-40,49c-22,27-81,88-133,136c-82,78-91,89-75,98c10,6,15,14,11,18    s-14,1-23-6c-12-10-21-7-52,18c-21,16-49,41-61,55c-27,28-29,27,60,47c52,11,83,2,341-102c104-42,129-56,133-75c7-26,24-32,24-8    c0,8,3,15,6,15c13,0,415-200,544-269c278-152,685-404,1190-740c217-143,284-193,368-275c56-54,102-102,102-106s83-92,185-196    l185-189l157-260c86-143,194-320,240-392c47-73,117-204,157-290c144-310,214-452,353-713c78-146,177-346,221-445s103-229,131-289    s51-113,51-118c0-13,109-196,121-204c6-3-19-19-55-34c-182-77-281-209-308-415c-2-14-20,3-72,68c-68,86-92,101-115,73    c-30-36,19-123,174-312c111-136,161-182,209-196c23-6,57-24,77-40c80-61,226-118,304-118c84,0,260,63,313,112c27,26,31,64,5,53    c-10-3-42-11-70-16c-29-6-78-19-108-29c-66-23-68-22-204,54c-53,30-143,75-201,101c-74,33-119,60-153,93l-49,47l5,76    c7,103,43,185,109,244c136,123,305,138,455,42c57-36,180-182,199-236c19-53,17-123-7-186c-20-54-78-127-108-137c-28-8-4-38,31-38    c76,1,168,73,209,164c24,55,29,189,10,240c-7,16-10,30-9,32c2,1,44-20,93-48c154-86,455-235,565-279c73-29,135-63,205-113    c55-40,168-115,251-169c135-87,156-104,211-175c34-43,90-108,125-143c57-57,253-306,286-362c10-19,70-154,105-239    c9-23,5-39-28-115c-33-74-55-104-133-188l-94-100l-156-51c-301-99-603-232-720-318c-103-77-169-185-143-235c15-28,24-27,63,8    c93,80,330,213,555,310c281,122,376,168,453,219c41,28,76,49,78,47s-40-90-92-197c-317-643-550-957-894-1206    c-165-120-463-353-576-451c-91-79-112-92-265-161c-118-53-169-81-176-97c-6-14-67-51-180-110c-150-77-265-144-479-276    c-67-41-83-42-234-5c-146,35-350,132-487,231c-298,216-613,510-723,675c-78,117-129,222-163,337c-16,53-32,90-40,90    c-22,0-30-56-19-138c36-258,213-546,483-788c322-287,593-439,892-498c72-14,85-19,66-25c-13-5-40-15-58-23c-30-12-33-16-22-30    c27-32,173,6,424,112c60,25,105,41,100,36c-12-12-357-293-655-534c-221-178-487-406-685-586c-59-54-109-91-121-91    c-14,0-46-27-90-76c-47-53-103-100-184-154c-64-43-179-127-255-187c-77-60-185-144-240-187c-123-96-145-116-145-132    c0-7,10-14,23-16c37-5-392-276-848-533c-393-223-717-379-1075-520c-209-83-624-225-655-225c-11,0-44-9-74-21    c-246-93-720-141-1406-143c-383,0-517,6-865,44c-216,24-330,40-330,49c0,3-5,13-10,21c-8,13-11,13-22-3c-13-17-20-16-153,8    c-146,27-413,85-500,109c-35,10-43,15-25,16c14,1-31,20-105,46c-180,60-312,127-432,218c-57,43-103,79-103,81s45-17,100-41    c178-78,530-188,547-170c12,11-10,23-97,51c-191,63-415,163-612,275l-107,60l-97,143c-54,78-109,158-123,177l-26,35l35-26    c298-222,578-388,870-518c74-32,173-85,220-117c81-54,199-115,248-127c36-9,18,7-67,56c-44,26-82,50-85,55c-9,14,258-71,394-125    c260-104,499-174,755-219c131-24,177-27,365-27c189-1,224,2,292,20c82,23,178,68,178,83c0,18-17,18-95-2c-109-28-379-30-544-5    c-335,53-727,182-1221,403c-107,47-234,104-281,125c-139,61-202,95-230,126c-15,15-102,120-194,232c-92,113-290,348-439,524    c-402,474-418,496-578,807c-231,449-469,896-623,1170c-26,47-58,114-70,150c-18,53-23,61-29,42c-4-12-1-46,8-75    c19-65,214-459,446-902c96-181,207-397,248-479c154-311,252-443,791-1070c113-132,219-255,236-274c25-31,15-26-75,35    c-169,113-326,240-450,363c-131,130-203,222-258,327c-70,136-66,62,4-84c25-51,73-130,106-175c122-164,386-405,611-559    c48-33,87-62,87-65c0-20-365,233-608,421l-232,179l-140,197c-137,192-145,206-286,506c-174,368-473,979-783,1603    c-125,250-250,506-279,568c-48,103-72,135-72,97c0-24,84-239,159-408c116-261,294-629,617-1276c171-343,303-613,293-600    c-11,13-80,114-153,224c-186,277-275,446-383,720c-20,50-40,63-36,22c2-12,21-79,44-149c66-207,229-520,410-790    c52-76,323-464,363-518c14-19,28-29-209,150c-251,190-300,233-371,331c-76,107-166,287-189,378c-9,39-20,71-23,71c-2,0-2-33,1-72    c6-73,32-160,81-273c25-57,25-59,3-33c-12,15-55,114-96,220c-40,106-238,605-438,1108c-409,1026-430,1080-518,1344    c-35,103-66,191-69,194c-44,43,59-326,192-688c93-255,687-1757,758-1918c13-30,23-57,21-58c-2-2-50,55-106,127l-103,132l-195,426    c-107,234-294,642-415,906c-122,264-236,525-255,580c-18,55-42,107-52,115s-33,52-52,98c-18,45-39,82-46,82c-13,0,21-104,89-270    c20-47,65-189,101-316c75-261,130-420,135-388c2,12-11,79-28,149c-16,70-29,130-27,131c2,2,138-290,302-649    c164-358,305-665,313-682c8-16,10-25,4-20c-12,12-149,203-221,308c-30,42-60,77-67,77c-19,0-18-3,11-60c62-122,181-307,340-525    c121-167,139-199,154-287c13-77,46-189,68-232c14-26,9-24-42,20c-122,103-181,188-435,614c-448,755-609,1074-745,1479    c-49,148-75,195-75,136c0-45,58-260,115-430c4-11-12,9-35,45c-85,130-139,234-151,289c-19,89-31,95-26,14c5-91,22-127,225-481    c87-152,220-396,294-542c210-412,653-1235,883-1642c15-27,24-48,22-48c-8,0-157,204-209,285c-24,39-113,189-198,335    c-218,378-346,592-665,1120c-155,256-300,499-323,541l-42,75l-44,330c-25,181-48,373-52,427c-8,127-27,115-32-21    c-3-67,4-161,22-302c15-113,29-227,32-255l5-50l-52,100c-29,55-83,167-120,250c-37,82-72,151-78,153c-45,15,61-281,223-622    c50-106,69-159,81-225c8-47,15-90,15-96c0-5-73,101-163,237c-89,136-181,275-204,310c-22,35-67,110-99,168    c-133,242-285,503-279,480c11-44,188-393,374-741c189-355,280-510,310-531c10-7,126-177,258-378c318-487,498-746,629-907    c18-22,23-37,17-47c-7-12-56,52-203,266c-285,413-756,1072-1127,1576c-91,123-209,296-264,385c-87,142-98,166-94,197    c3,19,12,127,20,240c15,191,35,383,55,504c8,48-3,88-14,55c-31-89-80-359-104-576l-18-158l-34,58c-19,31-38,57-42,57    c-18,0-13-22,28-109c44-93,52-125,20-76c-15,23-46,35-46,17c0-4,14-30,30-56l31-48l-13-164c-13-184-15-186-69-78l-30,59l6-45    c3-25,22-73,41-108c20-34,34-67,32-72s-79,84-173,198l-170,207l-17,305c-9,168-17,351-17,408c-1,78-4,103-13,100    c-27-9-31-150-16-455c8-164,14-299,13-300c0-1-32,34-70,77c-67,75-95,95-95,68c0-7,38-64,84-127c59-79,87-125,91-153    c4-22,5-41,2-44c-2-2-42,46-89,109c-47,62-92,119-100,127c-15,16-209,276-290,391c-44,61-49,75-83,230c-20,90-39,197-42,237    c-3,39-10,72-14,72c-28,0-23-143,11-303c11-55,17-103,14-109c-4-5,1-26,10-46c15-36,70-282,63-288c-7-7-88,108-151,214    c-43,71-76,116-90,122c-15,5-40,38-66,87c-71,129-192,333-201,339c-25,15-1-49,67-183c43-81,90-175,107-208c16-33,52-97,78-143    c27-45,49-84,49-86c0-9,99-181,157-274c35-56,62-106,58-112c-7-11-195,139-195,156c0,21-177,387-317,655c-160,307-159,306-169,297    c-12-12,55-164,188-425l128-252l-37,16c-53,22-81,54-143,163c-68,121-279,472-290,483c-4,5-10,4-14-1c-8-14,86-199,207-407    c58-99,104-181,102-183c-4-5-125,46-152,63c-13,9-23,24-23,36c0,23-29,37-40,19c-6-10-16-8-43,9c-25,15-52,51-97,134    c-123,219-291,479-298,459c-5-15,38-107,123-263c36-66,65-122,65-124s-24,7-52,20c-29,14-58,25-63,25c-6,0-44,45-85,100    c-41,56-82,108-92,117c-38,34-27,1,31-93c42-68,57-100,47-102c-17-4-489,259-606,336c-84,56-86,58-129,150c-25,50-48,92-53,92    c-11,0-10-37,1-78c9-28,8-31-7-23c-9,5-28,21-41,35c-14,15-31,24-41,21c-11-3-25,11-47,47c-17,29-34,63-38,76c-4,14-12,21-20,18    c-7-2-21,6-29,19c-30,45-168,205-177,205c-32,0,20-86,153-253c82-103,101-145,51-109c-16,11-64,48-107,81c-138,107-108,48,56-109    l109-105l69-275c65-257,69-276,52-288c-19-15-270-172-274-172c-2,0,1,68,5,150l8,151l55,72c74,99,73,130-2,57l-56-55l7,73    c7,84-4,282-16,282c-14,0-18-35-26-219l-8-174l-53-45l-53-45l21,47c36,85,20,114-20,36c-11-21-43-66-70-100l-51-61l-507-254    c-279-140-651-329-827-420c-435-223-684-328-953-401c-167-45-136-60,47-24c195,39,429,118,719,242c157,67,734,355,1075,536    c114,60,207,109,207,107s-60-53-133-113c-73-61-221-188-328-282c-201-179-314-260-484-351c-172-92-52-72,140,23    c136,68,200,112,410,284c242,198,342,285,523,458c84,80,157,146,162,146s46,30,90,66l81,65l-3-137l-3-138l-34-20    c-25-14-36-16-39-8c-6,20-20,14-85-36c-34-26-158-107-275-180c-116-73-296-191-398-263c-103-72-259-170-348-219    c-88-48-225-126-303-173c-159-97-202-112-493-172c-96-20-300-68-452-106s-290-69-306-69h-30l-6,78c-6,63-33,284-39,315    c-1,5,25,19,58,31c230,88,993,425,1250,551c268,132,634,344,608,352c-6,2-111-48-234-111c-229-117-276-139-794-366    c-165-72-431-192-591-266s-295-134-300-134c-6,0-16,28-23,62c-21,102-79,286-125,395l-43,101l43,11c38,10,49,9,85-9l40-21l-3,32    c-3,32-2,33,57,51c41,12,93,18,164,18c57,0,102-2,99-5c-2-3-33-11-68-18s-65-18-68-25c-8-26,232-7,348,29c19,5,94,14,165,19    c80,5,155,17,195,29c35,11,65,19,66,18c3-3-340-163-381-178c-50-18-119-28-202-30c-43-1-87-5-98-9c-32-12,47-33,149-39l88-6    l-163-83c-206-104-201-101-194-111c6-11,93,15,200,59c44,19,206,98,360,176s399,194,545,259c480,211,782,370,980,514    c85,62,224,194,219,208c-2,7-38-14-84-49c-141-107-266-184-430-266c-275-136-381-177-590-226c-105-24-306-76-449-115l-258-71    l-117,7l-116,8l73,29c40,15,72,30,70,32c-2,1-48-8-102-22s-100-23-102-21s103,56,234,120c130,64,305,153,387,198l150,81l310,84    c351,96,656,185,731,215c28,11,64,34,80,50l29,30l-55-25c-30-14-165-52-300-85c-135-32-398-101-585-151c-539-147-533-145-722-176    c-18-3-33-10-33-16c0-15,212-3,300,17c36,8,69,14,75,15c5,0-158-83-364-185l-373-185h-77c-42,1-122,5-178,9l-101,9l-97,101    c-54,56-126,124-161,152c-57,47-64,56-69,98c-22,166-98,473-126,507c-18,22-118,312-133,386c-18,88-21,274-5,331c7,27,21,44,49,62    c22,14,44,33,49,43c12,22,0,217-23,386c-21,156-11,197,114,466c106,227,132,291,180,435c23,72,50,138,58,148c17,20,24,144,9,154    c-5,3-17-4-26-15c-19-25-61-20-61,7c0,19,64,132,115,203c123,170,170,329,169,570c0,120,2,135,16,128c19-10,167-40,370-75    c425-74,856-213,1205-390c255-129,426-238,815-520c636-461,1134-747,1421-814c36-9,65-20,65-25c-1-6-44-39-96-74    c-351-238-683-486-688-515c-8-40,60-10,260,117c73,47,175,114,227,150c61,42,99,62,106,56s44,19,105,72c52,44,191,151,307,239    c226,169,383,301,366,306c-6,2-42-15-80-38l-68-41l157,153c86,85,224,224,307,309l152,155l-47-80c-96-164-178-336-164-345    c9-6,3-22-24-64c-41-63-116-210-116-226c0-25,21-5,50,48c38,67,242,374,246,369c2-1-13-52-32-112c-61-194-86-294-76-310    c6-11,41,74,120,287c62,167,120,319,128,338c9,19,81,130,161,248c104,153,149,212,161,210c25-5,22-28-42-286    c-67-272-153-672-157-722c-5-88,12-127,24-52c4,20,27,114,53,208c39,145,49,171,64,167c13-3,32,24,84,119c37,68,65,114,62,103    s-23-84-46-162c-43-153-58-233-43-233c5,0,18,30,30,68c12,37,66,198,121,357c88,257,117,324,244,585c79,162,160,315,179,340    s124,188,233,363c109,174,200,316,202,314s-64-169-147-372c-169-416-426-1076-457-1175c-27-82-45-187-36-201c9-16,19,3,50,102    c14,46,86,225,160,398c117,272,139,318,173,350c66,60,573,805,1111,1631c131,201,540,851,595,946c12,21,76,70,189,145    c180,119,461,300,486,313c8,4-54-59-138-140c-157-151-299-307-412-452c-35-45-68-82-74-82c-13,0-44-37-168-201    c-183-241-334-476-758-1179c-361-598-367-608-634-1076c-223-393-270-491-264-567l3-42l29,75c36,94,46,112,230,410l151,245l6-43    c8-60,29-79,29-26c1,36,21,150,31,170c31,62,255,421,261,418c15-10,140,135,585,677c63,76,141,159,177,187l65,51l-32-67    c-17-37-64-134-105-217c-41-82-83-172-94-200c-25-60-28-159-7-195c13-24,14-21,20,50c8,93,10,98,174,394c73,133,160,289,192,348    c53,98,78,128,303,370c135,145,308,332,384,416c77,83,141,152,143,152c3,0-9-24-25-52c-97-174-284-532-425-813    c-91-182-122-233-232-380c-70-93-152-213-183-265s-133-198-227-325c-374-502-400-579-47-135c107,135,199,247,204,249    c5,1,53,62,107,135c147,197,231,301,244,301c6,0,13,9,15,19c2,11,129,173,283,360c310,380,579,719,838,1056    c95,124,184,239,197,255l24,30l-19-50c-51-134-104-263-120-290c-10-16-76-102-147-191c-229-286-317-422-454-699    c-84-172-136-302-170-430c-27-101-37-214-21-243c20-37,36-26,38,27c5,144,196,555,396,856c73,108,177,248,183,243    c2-2-39-110-90-239c-128-321-332-857-340-894c-11-52,6-12,164,370c113,272,161,379,185,405c45,49,413,579,698,1005    c132,198,265,389,296,425c119,139,507,522,476,470c-5-8-61-94-124-190c-379-580-940-1465-1015-1601c-32-59-106-238-106-256    c0-4,29,47,64,114s189,313,343,545c154,233,360,546,457,696c108,168,240,356,342,488c92,118,169,214,171,214c3,0-16-37-40-82    c-121-223-518-990-665-1283c-165-329-203-417-216-487c-10-53,8-47,29,10c9,26,83,167,162,313c121,221,153,273,191,305l45,37    l-38-59c-63-98-103-168-110-194c-3-14,7-3,23,25c17,28,70,107,119,177c82,118,152,191,298,308c10,8,0-15-23-51    c-48-76-82-150-86-185c-2-13-32-57-68-97c-130-144-181-241-232-437c-34-133-43-211-11-100c36,124,63,194,113,295    c45,89,52,97,476,525c237,239,488,493,556,563c101,104,167,159,340,286c118,87,234,171,258,186c23,15,40,30,38,33    c-8,8-162-95-356-237c-58-43,160,186,292,306c243,222,411,331,650,424c49,19,88,40,88,47c0,8,23,12,80,12h80L13292.1,25336.3z     M13567.1,25401.3c0-5-41-42-91-83s-140-122-199-179c-114-108-591-610-914-961c-103-113-190-207-193-210s-1,2,4,12    c5,9,106,128,224,265c119,136,356,415,527,618c172,204,349,409,395,458l83,87h83C13531.1,25408.3,13568.1,25405.3,13567.1,25401.3    z M12631.1,25314.3c-139-109-383-322-702-615c-140-129-250-227-245-220c43,71,350,533,396,597c100,139,49,114-75-37    c-74-90-251-339-412-578c-85-126-149-209-221-284c-99-103-162-184-152-194c3-3,29,16,59,42c29,27,49,41,44,33    c-47-81-96-138-165-191c-44-34-80-64-80-67c0-2,8,2,17,9c9,8,14,9,10,2c-4-6-26-26-50-44l-42-33l29,32c17,18,27,32,23,32    s92,147,212,328c120,180,342,514,493,742s288,429,304,446c24,26,42,33,99,43c57,9,395,34,533,40    C12738.1,25398.3,12733.1,25393.3,12631.1,25314.3z M12313.1,24862.3c-531-526-591-580-825-748c-8-6,23,27,70,73l85,83l-95-78    c-52-43-104-85-114-93c-16-13,49,87,97,149c7,8,68,65,137,125c154,136,439,397,710,650c382,358,401,374,440,374    C12852.1,25397.3,12832.1,25377.3,12313.1,24862.3z M14041.1,25382.3l129-6l-34-35c-18-19-77-61-130-94c-158-97-291-201-598-465    l-45-39l50,70c28,39,133,186,234,328l183,258l42-5C13894.1,25391.3,13971.1,25386.3,14041.1,25382.3z M12032.1,25307.3    c-4-7-45-64-92-128c-81-111-662-982-905-1356c-82-127-132-193-168-225l-52-44l28,51c16,28,33,49,37,47c4-3,8,2,8,11    c0,23,53,126,230,445c87,157,230,418,318,580c172,319,181,330,262,330c19,0,42,5,50,10c23,16-15,40-62,40c-21,0-38,3-38,6    c0,4,18,39,40,80l41,73l102,31c56,17,120,37,142,45C12024.1,25320.3,12041.1,25321.3,12032.1,25307.3z M11459.1,25072.3    c-53-76-69-91-151-142c-50-31-128-86-172-120c-44-35-77-58-73-50c5,7,50,79,102,159l93,147l128,45c70,25,128,46,130,46    C11518.1,25158.3,11492.1,25119.3,11459.1,25072.3z M11188.1,25033.3c0-3-64-96-142-207c-123-177-165-227-320-387    c-185-190-327-348-502-557c-55-67-102-121-103-120c-3,3,124,322,143,357c17,33,372,500,516,679c88,108,119,140,161,162    c29,15,45,28,37,28c-10,1-11,3-3,6c7,3,21,1,32-5c15-9,35-5,93,18C11177.1,25038.3,11188.1,25041.3,11188.1,25033.3z     M15504.1,24947.3c46-33,84-62,84-63c0-2-17-15-38-28l-38-25l-73,43c-41,24-96,51-122,60c-27,10-49,21-49,25c0,3,33,15,73,26    c39,11,74,21,75,22C15418.1,25007.3,15458.1,24981.3,15504.1,24947.3z M10655.1,24761.3c-51-60-128-151-172-203    c-43-52-83-99-87-105c-10-10,7,33,61,164c17,41,29,77,26,80c-4,3-10-1-15-9c-10-15-91-194-128-280c-11-26-218-294-483-625    c-255-319-522-656-594-749c-71-93-138-178-147-190c-10-12,31,67,90,174c60,107,187,340,282,518l174,323l169,192    c93,106,258,297,367,426l197,234l164,78c90,42,170,78,177,78C10743.1,24868.3,10707.1,24820.3,10655.1,24761.3z M10037.1,24415.3    c-96-107-175-193-177-191c-5,3,137,260,156,284c17,20,183,112,190,105C10209.1,24611.3,10132.1,24522.3,10037.1,24415.3z     M9886.1,24426.3c-36-56-180-302-229-391c-46-85-88-137-293-365c-131-147-315-355-409-462c-231-264-251-279-67-50    c133,166,348,444,640,830c156,206,299,394,317,418C9881.1,24450.3,9911.1,24465.3,9886.1,24426.3z M9716.1,24331.3    c-30-36-408-493-546-661c-78-95-142-171-142-168c0,9,133,252,195,356c35,58,97,152,138,210l75,105l143,88c79,48,145,87,148,87    C9729.1,24348.3,9724.1,24340.3,9716.1,24331.3z M11602.1,24146.3c-43-46-159-168-258-273c-98-104-199-210-224-235l-44-45l37,60    c70,112,228,327,259,351c47,37,300,223,305,223C11679.1,24228.3,11645.1,24191.3,11602.1,24146.3z M9122.1,23821.3    c-51-78-144-242-251-445l-121-227l-229-288c-126-158-321-407-432-553c-112-146-210-272-218-280c-16-16,564,876,740,1140    c140,210,308,436,426,573C9127.1,23846.3,9158.1,23875.3,9122.1,23821.3z M8287.1,23704.3c18-73,20-91,9-101    c-55-50-258-203-262-197c-6,10,218,402,225,394C8262.1,23796.3,8275.1,23753.3,8287.1,23704.3z M10260.1,23661.3    c-54-82-179-274-277-428s-182-284-187-290c-10-11-2,10,86,229c30,76,61,148,69,160c8,11,72,89,143,171c71,83,158,185,194,228    c35,42,66,77,67,77C10357.1,23808.3,10314.1,23742.3,10260.1,23661.3z M8522.1,23566.3c-4-7-118-175-253-373    c-331-486-875-1313-1105-1680c-104-165-193-304-198-310c-12-13-16-23,147,375c75,184,181,448,236,585l100,250l116,145    c64,80,174,213,245,297c135,158,394,433,408,433c5,0-31-55-79-122c-143-201-627-927-768-1153c-141-227-163-266-163-290    c0-18,16-20,23-2c2,6,84,124,182,261c143,201,986,1454,1021,1518c7,13,80,75,92,77C8528.1,23578.3,8526.1,23572.3,8522.1,23566.3z     M8329.1,23419.3c-12-16-42-41-69-57c-87-50-216-157-366-304c-139-136-146-142-116-90c42,73,49,79,164,173c95,77,398,307,404,307    C8348.1,23448.3,8340.1,23435.3,8329.1,23419.3z M7221.1,22592.3c-33-48-159-213-163-213c-3-1-22,47-43,107l-37,107l25,189    c14,104,25,194,25,200c1,6,46-77,101-184C7187.1,22685.3,7225.1,22598.3,7221.1,22592.3z M7481.1,22663.3c-28-63-63-123-88-152    l-42-48l-23,44l-22,44l108,108c60,60,110,109,111,109S7506.1,22721.3,7481.1,22663.3z M6710.1,22173.3l-4-290l-20,45    c-25,58-26,77-32,395l-5,270l32-65l33-65L6710.1,22173.3z M7304.1,22478.3c24-36,25-42,12-58c-8-9-61-73-118-142    c-58-69-119-142-137-162l-32-37l-27,34c-30,40-27,54,21,110c33,39,35,39,49,20c19-27,31-13,18,22c-11,32-19,19,112,170    c39,46,72,83,73,83C7277.1,22518.3,7290.1,22500.3,7304.1,22478.3z M6888.1,22081.3c0-62,4-113,9-113s12,41,16,91l7,91l45-45    c53-53,63-29-87-210c-102-123-129-143-111-80c10,34,0,60-19,48c-9-6-11,33-6,176c4,101,9,221,12,266l6,82l64-96l64-96V22081.3z     M6701.1,21373.3c-70-139-128-253-130-252c-1,2,19,73,45,158l48,155l79,97c44,53,81,97,82,97    C6827.1,21628.3,6771.1,21513.3,6701.1,21373.3z M6468.1,20987.3c-48-149-98-277-148-384c-41-88-106-227-143-310    c-38-82-69-148-69-145s47,198,104,432l103,427l98,116c85,100,100,114,112,102C6538.1,21213.3,6530.1,21180.3,6468.1,20987.3z     M4215.1,17679.3c23-58,42-113,42-121c1-15-117-95-126-86c-5,4-113,425-113,439c0,4,35-22,78-59    C4171.1,17787.3,4174.1,17782.3,4215.1,17679.3z M5478.1,17024.3c47-39,88-75,92-81c4-5,8-33,8-62c0-38,5-57,19-70    c19-19,30-92,36-243c4-84,61-479,71-489c3-3,3,64-1,150c-5,107-4,163,4,175c10,18,10,18,11,1c0-18,46-66,64-67c20,0-9,59-51,102    l-45,46l-14,133c-8,73-12,134-10,136s15-6,28-19c20-19,33-54,63-183c57-241,227-879,306-1150c67-228,96-306,119-320    c13-8,13,11-1,36c-5,11-39,142-74,292c-53,224-198,787-319,1235c-17,63-21,92-13,91c17,0,131-73,225-142c78-57,80-59,86-109    c4-28,11-59,16-67c4-9,25-97,45-196c36-179,160-709,210-900c103-394,131-492,166-582c56-144,75-152,38-16c-16,59-47,194-70,298    c-69,324-156,695-250,1069c-49,197-88,363-86,369c3,11,130-99,280-242l88-85l-32-16c-20-11-28-20-20-24c6-4,21,0,33,8    c33,24,38,20,38-27c0-35,6-49,30-72l30-29l-6,50l-7,49l109-106c60-58,187-176,282-263c135-124,172-163,172-183c0-14,6-39,14-56    c8-18,22-86,31-152c48-359,258-1482,315-1693c37-134,79-184,53-64c-8,37-30,168-49,292c-66,425-144,872-240,1369    c-25,128-44,235-42,236c3,2,186-192,322-341l58-64l3-168c4-180,17-326,70-777c37-311,76-598,101-734c14-78,60-191,84-206    c14-9,13,1-10,74c-13,39-27,133-36,235c-24,274-61,624-108,1021c-24,204-47,402-51,440l-6,70l60-59c56-56,60-62,66-120    c37-341,206-1416,245-1561c21-75,62-175,81-197c19-21,20-21,15-3c-31,117-61,288-91,530c-20,160-49,382-66,495    c-47,321-99,663-105,685c-4,16-1,15,18-7c13-16,28-28,33-28c6-1,36-24,68-53l57-53l11-139c5-77,17-198,25-270    c38-340,158-1097,194-1232c22-82,78-213,91-213s12,7-16,122c-14,57-41,234-60,393c-36,292-88,661-149,1050c-18,116-32,212-30,214    c1,2,94-82,205-185c112-104,223-207,247-229l43-40l-25-125c-41-200-49-334-50-783l-1-418l-22,258c-12,142-36,380-53,528    c-43,369-60,538-60,613c0,46-3,63-12,60c-42-14-35-375,16-818c70-601,101-760,160-809c9-8,16-19,16-25c0-16,47-72,54-65    c4,3-1,35-10,70c-14,55-16,97-10,304c7,210,21,411,25,348c4-73,24-124,57-149c67-52,117-26,140,72c16,68,20,434,5,434    c-11,0-18-45-26-170c-8-121-22-226-36-268c-10-30-14-33-37-27c-15,4-32,11-39,16c-6,6-25,67-42,137c-29,118-31,141-31,307    s13,388,25,443c5,22,7,21,55-20c45-39,50-47,50-84c0-41,3-44,64-72c5-3,6,7,2,22c-3,14-4,26-1,26s78-63,168-141    c108-94,163-148,165-164c2-13,12-31,23-41c18-16,19-16,19,5c0,23-8,29,237-183l91-78l12-82c8-51,14-219,15-451c1-203,8-494,15-646    s11-297,9-322c-2-26-1-48,3-49c4-2,12-70,18-152s14-154,17-160s-27,21-68,59c-41,39-113,103-160,142l-86,72l-6,303    c-3,167-13,465-23,663c-14,298-15,391-5,539c6,99,8,182,5,185c-17,18-47-122-64-304c-18-201-9-740,20-1179c6-82,9-151,7-152    c-2-2-18,7-35,19c-46,31-56,75-102,432c-21,171-70,517-109,770c-64,424-80,540-99,729c-4,41-12,71-19,74c-16,5-18-265-3-419    c34-354,196-1368,236-1482l15-41l-23,21c-65,58-541,446-893,727c-220,176-469,377-553,448c-85,70-160,128-167,128s-15-5-17-12    c-6-18-214,177-257,241c-20,31-67,108-104,171c-36,63-89,142-117,175c-29,33-72,86-97,118c-43,56-44,58-18,51c25-6,26-5,17,13    c-16,28-40,46-55,40c-7-3-23,2-34,12c-23,18-165,230-232,348c-25,43-118,195-207,338s-167,278-174,300c-11,35-63,120-275,450    c-54,84-114,182-183,301c-23,40-75,113-117,164c-41,51-72,96-69,101c9,15-16,49-35,49s-207,195-230,238c-9,17-9,56-1,165    c24,338,60,572,94,616c6,8,10,23,8,34C5365.1,17116.3,5372.1,17112.3,5478.1,17024.3z M5784.1,16990.3c26-48,55-99,66-114    c31-44,21-41-54,17c-50,39-83,75-105,113c-18,32-33,60-33,64c0,7,59,16,72,11C5733.1,17079.3,5758.1,17038.3,5784.1,16990.3z     M6198.1,16908.3c46-69,158-228,249-355c153-214,177-256,181-317c0-5,4-8,9-8c4,0,6,12,3,28c-3,18-1,24,5,17    c17-17,113-152,113-159c0-4-40,28-89,71c-61,54-121,119-187,208c-53,72-152,200-219,285l-123,156l-16,89c-10,50-19,99-23,110    C6093.1,17064.3,6108.1,17045.3,6198.1,16908.3z M7161.1,16413.3c41-60,111-169,155-241c138-226,655-1053,749-1199    c49-77,129-200,176-272c48-73,84-133,81-133c-5,0-225,199-236,215c-4,5-8,30-8,53c0,50-22,54-30,6c-5-27-11-21-111,111    c-132,176-136,184-58,110c96-91,118-109,125-102c4,3-33,49-81,101c-113,122-125,141-125,197c0,74-12,140-24,136c-6-2-13-32-16-67    l-5-63l-80,109c-140,191-465,625-551,735l-83,106l14,144c8,79,15,153,15,164C7068.1,16547.3,7070.1,16545.3,7161.1,16413.3z     M6968.1,16040.3c0-46,0-46-18-27c-11,11-85,111-165,222c-133,183-147,205-147,243v42l165-217    C6962.1,16095.3,6968.1,16085.3,6968.1,16040.3z M7248.1,15728.3c118-151,230-295,249-319c20-25-44,34-141,130    c-118,116-178,183-178,196c0,48-26,73-32,31c-2-18-16-5-71,71c-67,91-69,95-62,139c4,24,10,40,14,36    C7031.1,16007.3,7131.1,15879.3,7248.1,15728.3z M8056.1,15607.3c290-502,945-1561,1074-1737c47-64,45-63-103,68    c-89,78-119,112-169,192c-45,73-60,105-60,134c0,37,0,37,20,19c38-34,28-10-25,62c-29,39-128,195-220,345c-93,150-267,423-387,607    c-165,253-218,341-218,365c0,17-3,49-7,71c-3,22-3,38,0,35S8006.1,15693.3,8056.1,15607.3z M8069.1,15131.3c62-87,243-332,402-545    c159-214,287-392,285-397c-1-5-69,50-151,122l-147,132l-213,355c-117,195-232,385-255,423c-23,37-40,67-38,67    S8006.1,15217.3,8069.1,15131.3z M19767.1,15022.3c-99-227-268-554-494-954c-73-129-169-305-214-390c-44-85-81-150-81-143    c0,29,32,157,55,219c25,68,48,111,237,449c52,94,149,274,216,401c66,127,146,273,177,325c61,100,146,221,152,215    C19817.1,15142.3,19796.1,15087.3,19767.1,15022.3z M19706.1,15101.3c-113-122-313-456-531-888c-26-49-46-87-46-84    c-1,3,23,86,53,185c29,98,70,243,91,321l39,143l140,127c146,134,254,223,270,223C19728.1,15128.3,19720.1,15116.3,19706.1,15101.3    z M19125.1,14571.3c-55-125-184-471-252-676c-50-150-64-183-69-160c-8,43-10,86-3,103c3,8,10,31,15,50s52,154,104,300    c53,146,105,294,117,330c19,54,30,71,69,101c26,20,48,35,50,34C19158.1,14651.3,19144.1,14614.3,19125.1,14571.3z     M18979.1,14481.3c-10-27-51-140-92-253c-50-142-81-214-100-235c-45-48-68-112-69-185l-1-65l-82-85l-83-85l47,130    c25,72,63,168,84,215c20,47,77,186,125,310c85,217,90,226,135,263c26,20,49,37,51,37S18989.1,14507.3,18979.1,14481.3z     M9428.1,14306.3c72-97,101-146,135-228c23-58,41-107,38-110s-35,27-71,65c-53,56-75,89-106,160c-21,50-53,125-72,168    c-18,43-30,76-25,73S9377.1,14373.3,9428.1,14306.3z M9206.1,14188.3c81-110,216-272,261-314c56-53,33-6-51,102    c-109,144-110,144-47,86c29-28,113-102,184-165c72-63,131-116,133-119c43-85,121-216,143-241c26-29,23-20-21,64    c-28,53-50,101-48,106s90-68,197-162c183-160,205-183,389-411c107-132,217-266,244-296s44-56,38-58c-11-4-360,174-540,276    c-127,72-177,109-390,291c-166,143-158,134-209,226c-62,113-375,731-364,720C9131.1,14288.3,9167.1,14240.3,9206.1,14188.3z     M19743.1,14167.3c-14-57-39-165-56-239c-32-142-45-172-136-303c-30-43-70-104-89-135c-27-44-33-50-28-27c32,144,59,225,101,311    c28,54,90,190,138,302c49,111,90,201,92,199S19757.1,14224.3,19743.1,14167.3z M10138.1,13706.3c168-135,312-254,322-264    c9-11,76-100,148-199c73-99,137-187,144-195c24-32-58,30-336,253l-286,230l-179,230c-98,127-180,236-182,242c-2,5,12-4,30-21    C9818.1,13965.3,9970.1,13840.3,10138.1,13706.3z M18003.1,13551.3c-129-258-217-488-346-908c-99-320-125-383-210-510    c-61-92-285-342-296-331c-3,2,11,40,30,83c20,43,60,141,90,219s110,252,177,388c66,136,120,252,118,258s-32-36-67-93    c-46-77-61-95-56-70c6,26,4,32-6,29c-8-2-48-83-90-179c-41-97-132-281-201-410s-137-256-151-284c-14-27-38-60-55-72    c-28-21-320-344-501-555l-82-96l-212-123c-117-67-308-185-426-262c-202-132-225-144-380-202c-91-35-206-81-254-104l-88-40l44,57    c122,159,217,326,342,597c53,116,112,255,131,311c34,102,52,221,40,268c-8,32-26,34-26,3c0-67-70-229-211-493    c-56-104-136-259-179-344s-118-222-168-304l-90-149l-298-98c-165-54-307-99-316-99c-28,0-10,29,31,50c20,10,79,54,132,98    c311,258,542,661,614,1071c46,261,18,514-66,596l-31,30l6-35c56-309-50-724-296-1165c-34-60-84-144-111-185    c-94-140-231-303-189-223c40,75,71,388,72,730c0,107,2,115,44,225c76,198,106,335,106,490c0,185-28,211-47,44    c-16-140-28-200-66-316l-31-95l-8,195c-6,169-21,322-44,450l-6,36l104,13c396,49,944,187,1359,342c403,151,760,333,1393,710l39,23    l-7-40c-39-214-93-394-216-708c-43-111-110-293-150-406s-85-233-101-268c-40-89-109-190-169-246c-27-26-50-49-50-51    c0-12,44-3,79,14c47,25,155,140,199,214c42,69,108,217,205,457c173,430,247,702,264,969l6,103l81,51c217,137,502,340,598,427    c23,21,46,39,50,40C18063.1,13678.3,18038.1,13621.3,18003.1,13551.3z M9758.1,13118.3c69-51,128-96,132-99c9-8,31-208,47-416    c6-77,20-259,32-405c11-146,36-399,55-562c18-164,34-325,34-359c0-53,2-60,15-49c33,27,37,85,26,339c-27,596-84,1164-137,1375    c-6,25,8,18,141-73c82-56,170-107,198-117c71-23,332-128,431-173c44-21,140-71,211-111c72-40,160-90,198-111    c207-116,609-220,906-235c64-3,179-17,256-29c472-79,919-111,1410-101c171,3,320,9,332,12c41,11,41-68,3-786c-5-96-12-321-16-500    c-3-179-10-342-15-362c-7-25-26-51-62-83c-51-45-51-46-16-32c130,53,177,126,361,563l33,79l8-135c8-153,2-321-19-460    c-13-92-15-96-56-133c-24-22-58-45-75-53c-36-16-44-44-13-44c34,0,22-19-17-29c-102-27-306-33-843-27c-477,6-725,16-1125,42    c-99,7-99,7-60,20c22,8,49,19,60,25c14,9,20,9,23,0c7-21,30-11,51,22c33,54,119,523,156,852c18,160,31,467,21,519    c-15,76-31,32-54-148c-12-98-42-309-67-469c-24-161-54-384-66-497s-27-210-33-217c-6-6-46-15-90-18l-78-8l6,49    c26,211,56,780,56,1070c0,257-7,344-26,344c-8,0-14-6-14-12c0-7-9-173-20-368s-25-519-32-718l-12-364l-80,7    c-153,12-272,36-516,101c-135,37-246,68-248,69s6,96,17,211c50,507,69,900,53,1084c-14,155-19,180-38,180c-11,0-14-18-14-77    c0-77-3-129-35-603c-9-129-20-356-25-504c-5-147-11-270-13-273c-7-6-300,76-471,132c-99,32-163,60-234,103c-53,32-131,78-172,101    c-113,64-134,82-164,135c-36,64-260,385-334,478c-106,133-97,97-96,393c0,143,6,402,14,575c14,342,5,625-26,785    c-8,44-18,109-21,145c-5,55-4,63,8,54C9627.1,13216.3,9689.1,13169.3,9758.1,13118.3z M10678.1,12984.3c150-98,222-156,325-260    c50-50,119-111,153-136c34-24,60-45,58-47c-7-7-307,101-381,137c-68,33-90,51-147,117c-67,78-288,368-288,378c0,3,39-23,88-58    C10534.1,13081.3,10620.1,13022.3,10678.1,12984.3z M14325.1,11981.3c4-27,8-235,8-463v-415l-39-95c-22-52-77-194-123-315    c-72-189-83-212-78-165c13,142,36,501,46,750c12,286,7,468-15,630c-7,52-13,96-12,97s42,6,91,11c50,5,95,10,102,11    C14312.1,12027.3,14320.1,12008.3,14325.1,11981.3z"/>
		<path id="path1007" d="M16209.1,24711.3c137-252,545-943,555-943c6,0,2,8-91,175c-69,125-402,700-461,797    C16165.1,24817.3,16163.1,24795.3,16209.1,24711.3z"/>
		<path id="path1009" d="M16458.1,24593.3c0-17,94-185,248-444c209-353,311-513,322-506c5,3,12,0,16-6c4-8,3-9-4-5s-12,2-12-3    c0-6,9-16,20-23s45-56,75-108c52-93,105-171,105-157c0,23-371,740-537,1036c-62,111-94,145-68,71c14-40,154-324,200-405    c54-96,116-215,112-215c-3,0-31,46-63,103c-63,111-336,569-375,629C16476.1,24593.3,16458.1,24608.3,16458.1,24593.3z"/>
		<path id="path1011" d="M17088.1,24203.3c0-30-7-31-40-5c-27,21-50,26-50,11c0-6,22-29,50-53c27-24,50-48,50-54    c0-21,143-472,212-669c66-189,153-393,163-384c2,3-13,56-35,119c-21,63-62,196-90,295c-27,99-79,270-115,380    c-35,109-62,201-60,203s26-15,54-38c33-28,52-53,57-74c15-71,177-604,234-771c56-162,112-294,95-225c-35,149-147,560-199,734    c-36,121-64,221-62,223c1,2,81-62,177-142l174-146l26-302c15-166,34-363,43-437c16-126,49-270,62-270c4,0,3,24,0,53    c-3,28-11,138-16,242c-6,105-19,293-30,419c-12,126-19,230-18,232c2,1,60-42,128-98c123-98,128-105,283-318    c86-120,157-221,157-225s-56,46-125,110c-131,123-187,199-200,270c-9,51-14,58-31,44c-11-9-16-6-25,15c-7,14-18,26-26,26    c-18,0-17-3,13-63c23-45,29-77,45-242c36-390,117-906,158-1005c9-22,10-20,10,22c2,108-71,783-105,978c-3,21,42-55,117-195    l122-230l-27-170c-15-93-36-237-46-320c-11-82-22-160-26-172c-3-13-2-23,3-23c18,0,43,73,73,209c16,74,46,179,66,233l37,97l79-137    l79-137l-15-130c-22-195-30-361-17-369c6-4,11-6,11-4s11,64,24,138s28,168,31,208c4,39,12,72,17,72s7,12,4,28c-3,15,2,107,12,205    l17,178l56-76l56-76l-13-39c-25-71-35-170-45-439c-13-367-2-591,31-591c4,0,5,11,3,24c-3,13,0,80,6,147c7,68,16,284,21,479    c6,195,13,363,16,373c4,13,38-24,131-145c69-90,155-205,190-256c36-51,68-91,70-88c12,12-87,188-182,325c-101,147-130,192-103,161    c49-56,248-241,248-231c0,7-86,102-191,212c-154,160-225,244-356,422c-90,122-167,234-170,250c-3,15-11,26-18,25c-7-2-42,37-80,85    c-37,50-58,84-47,78c12-6,24-15,27-21c3-5,20-19,37-31l31-23l-19,34c-10,18-67,76-127,129c-59,54-155,150-213,214    c-102,114-132,138-121,97c4-16-5-12-43,20c-53,45-60,64-60,176c0,66-11,97-28,80c-3-4-9-43-12-88l-5-80l-195,161    c-187,155-196,164-210,213c-18,60-40,76-40,29c0-17-2-31-5-31s-30,18-61,40c-44,33-56,49-66,85    C17113.1,24231.3,17088.1,24244.3,17088.1,24203.3z M18322.1,22809.3c-11-103-5-110-148,164l-57,110l106-110l106-110    L18322.1,22809.3z M18531.1,22646.3l55-73l-18-85c-11-46-22-113-26-149l-7-65l-70,139l-69,139l16,53c26,82,46,124,55,119    C18472.1,22721.3,18501.1,22686.3,18531.1,22646.3z"/>
		<path id="path1013" d="M18873.1,22148.3c-23-38-4-549,29-767c36-243,42,35,11,507    C18897.1,22130.3,18890.1,22176.3,18873.1,22148.3z"/>
		<path id="path1015" d="M1038.1,20902.3c-86-41-110-60-110-85c0-22,20-36,29-20c4,7,38,29,74,51l67,38l65-44c36-24,121-71,188-105    c76-38,109-59,87-55c-165,32-356,47-318,26c9-6,61-19,115-30c119-25,264-63,358-96c84-29,544-218,541-222c-2-1-45,9-97,23    c-115,30-371,81-456,91c-118,13-65-12,125-61c400-101,578-162,952-324c211-92,274-125,457-239c185-115,327-198,633-371    c41-24,66-40,55-36s-63,22-115,40s-194,71-315,118c-490,189-1375,503-1798,637c-274,87-368,103-212,37c125-53,602-231,1017-378    c191-68,346-125,344-126c-2-2-37,4-79,13c-170,35-105,3,213-103c555-186,1204-382,1218-369c4,4-2,12-12,18c-11,6-52,41-91,78    c-61,56-219,164-450,308c-27,18-47,32-42,32c10,0,134-64,175-91c54-35,36-7-45,72c-74,71-177,147-270,199c-24,13-41,25-39,28    c6,6,232-57,284-79c52-23,55-7,5,24c-53,33-84,44-378,137c-240,76-650,235-685,265c-8,8-42,23-75,35c-33,13-152,65-264,117    c-203,94-543,240-780,335c-69,27-161,66-204,86l-80,36l34,12l34,12l-40,1C1126.1,20938.3,1087.1,20926.3,1038.1,20902.3z"/>
		<path id="path1017" d="M1328.1,20178.3c0-29,193-147,435-267c94-46,157-81,140-77c-76,17-305,99-455,162c-91,39-167,68-169,66    c-18-17,139-110,327-194c116-52,495-183,899-311c125-39,365-127,534-195c168-68,358-139,421-158c127-38,271-70,290-64    c7,3-37,22-97,43c-152,53-307,113-325,126c-13,9-12,10,3,5c42-13,279-66,357-80c132-22,266-30,275-16c4,6,5,13,3,16    c-3,2-47,11-99,20c-185,31-372,85-956,274c-231,75-307,105-1113,448c-85,36-220,99-299,139    C1357.1,20187.3,1328.1,20198.3,1328.1,20178.3z"/>
		<path id="path1019" d="M20083.1,20183.3c-5-2-27-6-49-10l-39-6l6-51c8-65,39-112,137-209c85-85,195-148,274-156c69-8,173,6,198,27    c20,16,23,28,23,82c-1,77-26,130-87,183c-100,85-230,135-368,140C20131.1,20184.3,20089.1,20184.3,20083.1,20183.3z"/>
		<path id="path1021" d="M664.1,20049.3c-8-12,147-82,331-150c389-144,1306-456,1458-496c76-19,114-18,55,2c-25,8-157,57-295,108    c-237,88-796,285-1135,400c-85,29-212,73-282,98S666.1,20053.3,664.1,20049.3z"/>
		<path id="path1023" d="M18783.1,20036.3c-2-7-11-42-20-77c-21-82-57-173-145-361c-39-84-84-186-100-226c-48-119-139-295-180-343    c-55-67-85-124-119-226c-45-135-56-233-56-480c0-206,2-227,27-327c50-195,155-430,274-608c31-47,81-130,111-185    c134-244,339-451,509-515c31-11,97-49,148-84c306-214,629-345,928-376c155-17,377,0,415,32c23,19,1,25-157,43    c-194,22-284,40-411,81c-410,132-878,432-1222,781l-78,79l-94,222c-122,287-179,445-222,612c-44,175-48,225-29,335    c8,50,25,164,36,255l21,165l59,110c112,212,300,650,300,701c0,13,11,69,25,126c24,98,33,226,19,262    C18815.1,20051.3,18789.1,20053.3,18783.1,20036.3z"/>
		<path id="path1025" d="M15298.1,19783.3c-52-7-126-21-165-30c-252-58-1266-386-1457-469c-119-53-210-105-216-123    c-6-20,21-15,100,16c41,16,199,68,353,116c357,110,703,224,1020,335c138,48,305,102,372,120s120,37,117,41    C15416.1,19799.3,15420.1,19800.3,15298.1,19783.3z"/>
		<path id="path1027" d="M15908.1,19680.3c0-19,498-295,754-417c130-62,157-71,141-46c-17,29-513,304-748,416    C15944.1,19686.3,15908.1,19697.3,15908.1,19680.3z"/>
		<path id="path1029" d="M808.1,19472.3c0-9,162-82,245-109c99-32,297-82,710-179c565-132,790-177,909-183c124-7,143,10,23,20    c-40,4-226,45-412,91c-187,47-506,124-710,171c-455,106-536,126-649,165C836.1,19478.3,808.1,19483.3,808.1,19472.3z"/>
		<path id="path1031" d="M17665.1,19401.3c-8-20-12-109-12-310c0-245-2-280-14-270s-14,9-8-5c29-79,41-220,56-683    c14-399,19-462,41-512c10-24,21-43,25-43c3,0,2,25-1,55c-4,30-7,65-7,77c3,321,6,410,13,393c14-31,88-418,101-527    c14-115,33-132,45-40c14,115-27,401-122,842l-36,165l6,285c3,157,9,302,12,324c11,65-19,38-37-35c-23-88-29-57-32,148    c-1,90-5,163-10,163C17681.1,19428.3,17672.1,19416.3,17665.1,19401.3z"/>
		<path id="path1033" d="M378.1,19338.3c0-35,340-139,1120-345c118-31,285-77,370-102c198-58,678-178,930-233c173-38,210-43,331-44    l137-1l28-45c62-101,236-360,246-366c17-11-76,156-205,366c-144,234-175,280-187,280c-20,0-8-29,50-124l60-97l-47,6    c-143,19-240,41-453,100c-129,36-397,106-595,155s-405,105-460,125s-111,39-125,42c-22,6-24,4-11-10c7-10,11-17,7-17    c-9,0-924,246-1061,285C378.1,19352.3,378.1,19352.3,378.1,19338.3z"/>
		<path id="path1035" d="M14863.1,19272.3c-38-2-209-8-380-14c-414-14-545-32-545-74c0-13,5-14,28-5c32,13,695,26,1805,35    c416,4,757,11,757,15c0,5-12,9-27,9c-16,0-125,8-243,16C16059.1,19268.3,15058.1,19281.3,14863.1,19272.3z"/>
		<path id="path1037" d="M13332.1,18943.3c-17-8-108-34-201-59c-94-25-348-100-564-167c-217-67-431-131-477-143s-82-26-80-31    c5-16,124-5,223,20c133,34,759,226,923,284c154,55,192,72,211,95C13383.1,18961.3,13374.1,18961.3,13332.1,18943.3z"/>
		<path id="path1039" d="M1084.1,18899.3c22-21,239-78,694-182c537-122,970-212,1003-207c21,3-456,124-743,189    c-641,144-935,209-948,209C1080.1,18908.3,1078.1,18905.3,1084.1,18899.3z"/>
		<path id="path1041" d="M20703.1,18794.3c-210-41-365-148-443-305c-35-71-37-80-37-175c0-83,4-112,24-161c45-112,181-216,321-246    c97-21,240,3,240,40c0,4-34,14-75,20c-79,13-216,73-291,129c-93,68-125,217-73,332c110,239,536,332,732,160c64-57,91-117,91-210    c1-100-33-171-121-257c-35-33-63-64-63-67c0-14,50-4,97,19c65,33,147,119,181,192c23,50,27,71,27,148c0,78-4,98-27,145    c-51,103-149,184-268,221C20934.1,18805.3,20793.1,18812.3,20703.1,18794.3z"/>
		<path id="path1043" d="M9338.1,18783.3c0-37,301-87,720-119c680-53,1339-80,1579-67c159,9,192,14,180,25c-2,2-101,9-219,15    c-118,7-258,16-310,21c-347,35-896,75-1435,105c-148,9-317,20-375,25C9342.1,18801.3,9338.1,18801.3,9338.1,18783.3z"/>
		<path id="path1045" d="M21835.1,18778.3c-35-28-41-53-22-89c15-30,67-66,78-54c4,3,0,15-8,27c-8,11-15,24-15,29c0,16,54-4,82-30    c32-30,58-25,58,13c0,39-30,84-72,105C21889.1,18803.3,21867.1,18803.3,21835.1,18778.3z"/>
		<path id="path1047" d="M8308.1,18727.3c-179-9-539-27-800-39c-511-22-1066-51-1435-75c-584-36-1031-67-1045-71c-13-5-13-6,0-14    c20-13,527-12,810,0c736,33,2036,112,2470,151c260,23,593,59,599,65C8916.1,18753.3,8618.1,18744.3,8308.1,18727.3z"/>
		<path id="path1049" d="M14748.1,18678.3c-413-24-729-71-1047-156c-231-61-439-140-477-183c-39-43,19-135,127-203    c29-17,77-54,107-82c30-27,89-72,130-99s66-47,55-44c-52,16-105,24-105,17c0-18,54-62,116-93c38-19,80-47,94-62l25-28l-47,6    c-27,4-48,4-48,1s7-18,15-34c16-31,71-56,206-92c62-17,76-24,72-38c-3-13,9-23,48-39c28-13,67-25,85-28c27-4,32-8,23-19    c-6-7-8-17-5-23c12-19,110-31,254-31c151,0,222,7,222,20c0,5-31,13-70,20c-94,16-163,43-149,57c16,16-13,29-272,127    c-121,47-223,86-225,89c-2,2-2,12,2,21c6,14,39,16,333,16c472,0,900,23,1023,55c47,12,51,11,79-12l29-25l167,22    c232,29,376,65,397,98c3,5-39,3-92-4s-182-18-287-24c-104-7-217-15-250-18c-33-4-312-4-620-1l-560,6l-135,45c-74,25-162,52-195,59    c-50,11-55,14-35,20c14,4,43,7,64,8c22,1,37,4,33,7c-3,3-49,17-103,30c-106,27-229,78-220,92c7,12-52,55-67,49    c-22-8-187,76-175,88c9,10,528,108,683,129c527,74,1051,106,1385,87c513-30,828-91,967-186c48-32,63-32,63,3c0,93-183,208-434,272    C15676.1,18663.3,15128.1,18700.3,14748.1,18678.3z"/>
		<path id="path1051" d="M4033.1,18563.3c76-63,627-367,705-389c14-4-24,23-85,60c-123,74-630,354-642,354    C4007.1,18587.3,4017.1,18576.3,4033.1,18563.3z"/>
		<path id="path1053" d="M4448.1,18582.3c0-3,27-39,61-80l61-75l-40,7c-64,10-61-13,5-32c84-24,86-34,6-27c-48,4-72,2-77-6    c-10-16,57-42,124-48c33-2,66-12,82-24c23-16,26-16,21-3c-5,14,0,15,35,9c23-4,70-15,104-26c35-11,90-22,123-25l60-5l-115,42    c-106,38-168,57-244,74c-15,3-27,8-24,10c2,2,75-12,163-31c182-39,350-67,367-62c18,6-158,54-376,102c-108,23-198,45-199,47    c-31,41-129,159-133,159C4450.1,18588.3,4448.1,18585.3,4448.1,18582.3z"/>
		<path id="path1055" d="M20833.1,18561.3c-106-19-172-50-231-110c-129-129-140-229-31-282c37-18,61-21,178-21c125,0,139,2,187,26    c29,14,65,42,82,62c34,41,80,150,80,188c0,40-38,99-79,122C20967.1,18574.3,20924.1,18578.3,20833.1,18561.3z"/>
		<path id="path1057" d="M274.1,18519.3c-11-18,40-45,169-91c139-49,853-228,1015-254c241-40,353-51,375-38c19,11,18,11-7,12    c-36,0-493,93-588,119l-75,21l70-5c39-3,184-14,324-25c224-18,532-27,520-16c-15,14-641,74-1064,101c-135,9-715,152-715,177    C298.1,18531.3,281.1,18530.3,274.1,18519.3z"/>
		<path id="path1059" d="M4208.1,18203.3c83-121,316-379,375-415c27-17,38-19,55-10c11,6,20,19,20,29c0,23-67,119-159,225    c-99,116-121,113-31-4c53-69,112-162,106-167c-3-3-94,83-202,191C4255.1,18170.3,4189.1,18231.3,4208.1,18203.3z"/>
		<path id="path1061" d="M5488.1,18241.3c0-13,69-36,300-96c203-54,347-84,356-74c8,8-164,62-372,117    C5567.1,18241.3,5488.1,18257.3,5488.1,18241.3z"/>
		<path id="path1063" d="M15258.1,18213.3c-58-7-224-18-370-24c-146-7-427-23-625-36c-198-14-412-25-475-25c-113,0-162-10-124-24    c38-15,288-28,424-22c296,13,885,57,1045,77c92,12,236,46,250,60C15393.1,18229.3,15400.1,18230.3,15258.1,18213.3z"/>
		<path id="path1065" d="M3038.1,18182.3c-36-14-171-54-300-90s-337-96-462-134c-146-44-288-80-400-100c-95-17-299-56-453-87    c-208-41-310-57-397-61c-119-5-149-14-80-26c86-14,229-5,439,28c120,19,259,37,308,40c50,3,153,21,230,40s227,51,334,71    c349,65,532,111,700,174c52,20,96,42,98,48c3,9-8,9-44-3c-66-20-319-81-368-89c-22-3,41,23,140,58c170,60,275,106,320,141    C3131.1,18214.3,3113.1,18211.3,3038.1,18182.3z"/>
		<path id="path1067" d="M16557.1,17985.3c-78-65-201-196-240-256c-38-59-24-74,32-35c67,46,248,250,290,327    C16657.1,18054.3,16623.1,18039.3,16557.1,17985.3z"/>
		<path id="path1069" d="M6260.1,18016.3c3-7,31-18,64-25c80-16,382-46,419-41c46,5-91,34-275,58    C6285.1,18032.3,6255.1,18033.3,6260.1,18016.3z"/>
		<path id="path1071" d="M15808.1,17838.3c-85-15-213-42-285-60c-141-35-206-41-645-61c-146-6-323-15-394-18c-85-4-131-10-133-18    c-10-29,324-35,712-13c110,6,242,13,294,16c62,3,147,18,253,44c211,53,404,109,425,126c16,12,13,13-27,13    C15983.1,17866.3,15893.1,17854.3,15808.1,17838.3z"/>
		<path id="path1073" d="M16043.1,17632.3c-163-114-377-197-652-255c-262-54-446-50-733,16c-58,13-152,26-210,30c-58,3-127,8-155,11    l-50,5l30-26c43-37,257-140,344-165c201-59,444-83,602-61c246,36,517,134,692,251c58,39,105,59,208,92c142,43,279,101,279,116    c0,16-206-27-308-66c-7-2-2,12,12,33c21,31,35,75,23,75C16124.1,17688.3,16087.1,17663.3,16043.1,17632.3z"/>
		<path id="path1075" d="M15758.1,17633.3c-133-39-476-154-613-205c-57-21-74-40-38-40c37,0,209,50,396,115c295,102,421,154,404,168    C15905.1,17673.3,15838.1,17656.3,15758.1,17633.3z"/>
		<path id="path1077" d="M2093.1,17038.3c-223-91-969-411-1026-440c-45-23-51-35-13-26c55,14,1163,495,1231,535    C2327.1,17131.3,2271.1,17111.3,2093.1,17038.3z"/>
		<path id="path1079" d="M9175.1,16661.3c-7-12,73-284,126-428c137-370,614-1536,704-1721c19-39,46-84,59-100l25-29l-24,50    c-27,55-69,164-241,613c-64,167-212,542-330,835c-117,293-232,586-255,652C9197.1,16653.3,9185.1,16677.3,9175.1,16661.3z"/>
		<path id="path1081" d="M10302.1,15886.3c7-86,52-222,106-318c51-88,599-912,929-1394c270-394,248-361,230-351    c-32,19-298,212-343,249c-56,46-106,118-106,153c0,13-4,23-10,23c-22,0-10-85,19-135c31-54,80-97,396-342l190-148l98-140    c140-200,268-373,372-500c90-111,414-448,448-467c46-24,19,12-113,154c-160,172-285,324-417,508c-127,178-218,314-202,304    c8-4,122-89,254-187c398-297,658-460,885-556c141-59,160-65,160-52c0,6-42,32-92,57c-250,125-383,214-925,622l-433,325l-72,106    c-256,378-735,1074-967,1405c-149,214-290,426-312,472c-23,45-55,127-71,181l-29,98L10302.1,15886.3z"/>
		<path id="path1083" d="M18548.1,14466.3c-19-5-231-33-470-63c-581-74-1038-141-982-144c37-2,439,45,887,104c231,30,443,57,470,60    l50,6l-40-26c-66-43-233-125-256-125c-11,0-39-11-62-24c-68-39-242-89-767-217c-580-142-565-139-835-178c-322-46-437-55-481-36    c-45,19-55,19-30,0c18-13,6-15-110-15c-148,0-297,20-375,50c-50,19-52,19-30,2c65-51,213-82,431-88c96-3,217-12,268-21    c123-21,174-15,472,51c135,30,326,66,425,81c342,49,560,104,747,186c51,22,143,60,203,83c185,73,322,146,451,243    c40,29,82,53,95,54c22,0,70,16,59,19C18643.1,14474.3,18576.1,14473.3,18548.1,14466.3z"/>
		<path id="path1085" d="M11465.1,14355.3c-32-82,32-242,150-380c70-80,124-118,268-187c146-71,936-410,1280-550    c138-56,304-128,370-161c79-38,141-62,181-68c34-5,133-32,220-60c298-96,644-174,914-207c174-21,545-31,554-15c5,7,6,14,4,17    c-3,2-86,9-184,14c-310,17-601,67-909,156c-88,25-177,51-198,56c-77,21-27,17,87-7c157-34,386-70,571-92c220-25,842-26,1005,0    c178,28,342,77,425,127c18,11,86,26,175,39c216,32,600,130,600,153c0,14-38,9-169-22c-163-38-334-65-546-87    c-151-16-272-17-1098-15l-928,3l-342,65c-359,68-472,99-682,189c-353,150-578,335-551,452c6,27,6,27-9,9c-39-50-7-143,78-233    l51-54l-49,20c-575,230-876,355-931,386c-153,86-301,278-322,417C11475.1,14357.3,11470.1,14368.3,11465.1,14355.3z     M16008.1,12982.3c-84-21-261-42-405-49c-140-7-482,8-660,29c-104,13-88,13,330,16c242,1,494,6,560,10c66,3,145,7,175,7l55,1    L16008.1,12982.3z"/>
		<path id="path1087" d="M17836.1,13918.3c-75-40-261-111-375-144c-228-66-523-117-988-171c-430-50-564-66-870-106    c-314-41-323-41-411-14c-11,4-4-2,15-13l34-19l-34-6c-306-54-609-43-824,28c-38,13-72,21-75,18c-9-9,41-42,98-63    c211-80,450-97,817-57c182,20,244,23,295,15c142-20,1245,46,1448,88c155,31,280,84,331,138c33,35,10,42-41,12    c-111-63-246-89-623-116c-154-11-311-22-350-25c-38-2,63,15,225,40c570,85,838,145,1095,246c103,41,305,148,305,161    C17908.1,13944.3,17874.1,13938.3,17836.1,13918.3z"/>
		<path id="path1089" d="M6402.1,15962.3c11-135,39-284,132-699c117-522,210-888,245-964c32-70,48-78,25-13c-8,22-35,145-61,274    c-48,239-133,629-232,1053c-30,132-63,282-72,334c-10,58-22,96-30,99C6398.1,16050.3,6396.1,16034.3,6402.1,15962.3z"/>
		<path id="path1091" d="M6842.1,15654.3c-4-10-4-91-1-179c11-303,147-1400,183-1469c16-31,30-39,19-10c-3,9-17,139-31,287    c-22,252-90,876-114,1045c-5,41-15,131-21,200C6867.1,15650.3,6856.1,15690.3,6842.1,15654.3z"/>
		<path id="path1093" d="M16614.1,12619.3c-3-4-21-87-40-182c-19-96-53-237-76-314c-114-389-170-589-190-677c-17-75-36-121-85-210    c-63-112-69-152-13-87c27,31,29,32,23,9c-4-14-22-58-41-99c-39-84-38-81-20-81c19,0,86,77,118,136c15,27,47,111,72,186    c44,130,55,152,232,439c193,312,335,571,321,585c-4,4-14,1-22-7c-14-15-197-296-324-502c-41-65-75-116-77-114c-2,1,12,59,32,127    c40,144,88,377,104,500C16647.1,12485.3,16639.1,12660.3,16614.1,12619.3z"/>
		<path id="path1095" d="M16479.1,12431.3c-5-10-33-79-62-153s-144-319-257-545c-112-225-256-522-318-660c-86-187-123-258-149-282    c-19-18-30-35-25-38c17-10,58,6,84,34c68,70,535,975,634,1227c51,129,117,341,124,398    C16514.1,12446.3,16494.1,12458.3,16479.1,12431.3z"/>
		<path id="path1097" d="M15844.1,11713.3c-76-155-170-352-208-437c-142-312-318-718-318-733c0-81,140,169,328,585    c206,455,352,825,341,859C15985.1,11992.3,15921.1,11869.3,15844.1,11713.3z"/>
		<path id="path1099" d="M10435.1,12642.3c-4-4-5-136-2-293s7-609,10-1005c2-395,6-721,9-723c2-3,11,9,20,25c33,64,39,202,40,862    c1,651-3,743-40,1015C10458.1,12628.3,10449.1,12656.3,10435.1,12642.3z"/>
		<path id="path1101" d="M10902.1,12262.3c14-188,18-584,7-799c-6-126-14-367-17-535c-6-324-12-385-45-431l-20-29h20    c43,0,84,63,100,155c14,83,39,440,51,753c8,189,8,313,0,439c-15,236-62,512-89,521    C10898.1,12340.3,10897.1,12324.3,10902.1,12262.3z"/>
		<path id="path1103" d="M11704.1,11986.3c-3-18-8-114-11-213s-11-245-16-325c-10-144-30-1191-23-1199c8-9,17,11,35,75    c37,132,62,573,63,1099c1,458-6,584-31,592C11714.1,12018.3,11707.1,12006.3,11704.1,11986.3z"/>
		<path id="path1105" d="M13717.1,11831.3c-2-13-1-26,36-358c37-331,78-622,97-687c6-21,8-63,5-98c-4-33-5-60-2-60    c43,0,167,771,169,1047c1,90-3,136-11,144c-9,9-14,7-21-12c-11-26-100-708-109-827c-3-40-8-71-9-69c-2,2-9,62-14,133    c-28,338-77,681-111,767C13736.1,11836.3,13719.1,11848.3,13717.1,11831.3z"/>
		<path id="path1107" d="M13485.1,11656.3c-5-152-11-206-56-443c-28-148-67-369-86-490c-53-336-61-370-99-447c-20-40-34-73-32-75    c8-8,80,86,103,134c31,67,89,326,158,701c67,371,81,500,66,625c-12,102-28,167-40,167    C13494.1,11828.3,13488.1,11750.3,13485.1,11656.3z"/>
		<path id="path1109" d="M13120.1,11491.3c-6-132-26-345-46-503c-20-151-45-378-56-505c-17-184-26-241-44-287c-26-63-19-73,19-32    c40,43,61,117,99,349c82,502,109,831,87,1039c-16,141-21,166-35,166C13135.1,11718.3,13129.1,11652.3,13120.1,11491.3z"/>
		<path id="path1111" d="M12748.1,11606.3c0-40-5-199-11-353c-13-351-17-1137-6-1126c45,45,84,645,74,1141c-6,280-19,410-43,410    C12751.1,11678.3,12748.1,11660.3,12748.1,11606.3z"/>
		<path id="path1113" d="M12798.1,26971.3c0-269,30-737,66-1032c15-127,18-141,35-141c24,0-2,563-46,1010c-29,288-34,320-46,320    C12802.1,27128.3,12798.1,27059.3,12798.1,26971.3z"/>
		<path id="path1115" d="M14578.1,26547.3c-1-36,240-644,331-836c45-93,62-99,34-11    C14873.1,25913.3,14580.1,26596.3,14578.1,26547.3z"/>
		<path id="path1117" d="M9747.1,26336.3c0-35-2-70-4-78c-5-28,15-665,30-945c23-421,49-685,67-685c17,0-9,739-47,1335    c-14,209-25,392-25,408c0,15-4,27-10,27S9748.1,26370.3,9747.1,26336.3z"/>
		<path id="path1119" d="M9276.1,26351.3c-6-16-15-89-20-163c-13-178-4-1290,12-1446c19-200,34-287,49-292c11-4,13,9,8,69    c-4,41-11,410-16,820c-6,411-13,784-16,830c-4,46-2,112,3,147C9305.1,26381.3,9296.1,26398.3,9276.1,26351.3z"/>
		<path id="path1121" d="M8806.1,26046.3c-19-64-15-333,11-618c36-406,73-660,135-930c61-261,83-267,42-13c-31,197-51,361-71,573    c-18,188-25,259-61,560c-14,120-25,271-25,343c-1,70-5,127-9,127C8823.1,26088.3,8813.1,26069.3,8806.1,26046.3z"/>
		<path id="path1123" d="M17091.1,25692.3c4-16,13-112,22-214c8-102,32-318,51-480c20-162,39-333,43-379c7-102,25-118,35-30    c11,108,7,188-24,458c-36,319-76,578-95,625C17104.1,25718.3,17083.1,25731.3,17091.1,25692.3z"/>
		<path id="path1125" d="M18128.1,24897.3c0-4,22-53,49-110s84-205,126-329c72-209,137-391,280-779c31-85,72-210,91-279    c33-122,40-140,48-131c6,6-19,143-49,258c-64,254-354,1046-450,1229C18183.1,24833.3,18128.1,24914.3,18128.1,24897.3z"/>
		<path id="path1127" d="M7499.1,24243.3c-2-42,141-558,225-817c43-131,64-174,64-128C7788.1,23367.3,7501.1,24305.3,7499.1,24243.3    z"/>
	</g>
</g>
</svg>