<?xml version="1.0" encoding="UTF-8" standalone="no"?>
<svg
   xmlns:dc="http://purl.org/dc/elements/1.1/"
   xmlns:cc="http://creativecommons.org/ns#"
   xmlns:rdf="http://www.w3.org/1999/02/22-rdf-syntax-ns#"
   xmlns:svg="http://www.w3.org/2000/svg"
   xmlns="http://www.w3.org/2000/svg"
   xmlns:sodipodi="http://sodipodi.sourceforge.net/DTD/sodipodi-0.dtd"
   xmlns:inkscape="http://www.inkscape.org/namespaces/inkscape"
   version="1.0"
   width="2800.000000pt"
   height="2800.000000pt"
   viewBox="0 0 2800.000000 2800.000000"
   preserveAspectRatio="xMidYMid meet"
   id="svg1131"
   sodipodi:docname="logo.svg"
   inkscape:version="0.92.4 5da689c313, 2019-01-14">
  <defs
     id="defs1135">
    <inkscape:path-effect
       effect="bspline"
       id="path-effect1158"
       is_visible="true"
       weight="33.333333"
       steps="2"
       helper_size="0"
       apply_no_weight="true"
       apply_with_weight="true"
       only_selected="false" />
  </defs>
  <sodipodi:namedview
     pagecolor="#ffffff"
     bordercolor="#666666"
     borderopacity="1"
     objecttolerance="10"
     gridtolerance="10"
     guidetolerance="10"
     inkscape:pageopacity="0"
     inkscape:pageshadow="2"
     inkscape:window-width="1600"
     inkscape:window-height="900"
     id="namedview1133"
     showgrid="false"
     inkscape:zoom="0.20682873"
     inkscape:cx="2360.1615"
     inkscape:cy="1944.6051"
     inkscape:window-x="0"
     inkscape:window-y="0"
     inkscape:window-maximized="0"
     inkscape:current-layer="layer1" />
  <metadata
     id="metadata1003">
Created by potrace 1.15, written by Peter Selinger 2001-2017
<rdf:RDF>
  <cc:Work
     rdf:about="">
    <dc:format>image/svg+xml</dc:format>
    <dc:type
       rdf:resource="http://purl.org/dc/dcmitype/StillImage" />
  </cc:Work>
</rdf:RDF>
</metadata>
  <g
     inkscape:groupmode="layer"
     id="layer1"
     inkscape:label="Layer 1"
     style="display:inline">
    <path
       style="fill:#f9f9f9;fill-opacity:1;stroke:#000000;stroke-width:0.75px;stroke-linecap:butt;stroke-linejoin:miter;stroke-opacity:1"
       d="m 765.04117,1224.7848 c -2.15884,-14.2153 -6.47642,-42.6452 1.63897,-85.5669 8.11538,-42.9217 28.66427,-100.3377 43.77342,-136.5995 15.10915,-36.26172 24.77912,-51.37107 38.67906,-68.59486 13.89994,-17.22378 32.03197,-36.5646 47.14068,-59.52998 15.10872,-22.96538 27.1965,-49.5585 44.42058,-82.19354 17.22407,-32.63503 39.58632,-71.31568 64.36512,-103.95101 24.7787,-32.63532 51.9757,-59.22797 76.1501,-80.38046 24.1743,-21.1525 45.3277,-36.86644 78.9884,-54.77088 33.6607,-17.90444 79.833,-38.00164 113.375,-51.59973 33.5421,-13.5981 54.4565,-20.69824 94.224,-30.29156 39.7674,-9.59332 98.3933,-21.68113 150.066,-21.07671 51.6727,0.60443 96.3963,13.90063 141.119,33.84452 44.7226,19.94389 89.4461,46.53625 131.4494,64.06279 42.0034,17.52654 81.2874,25.9877 121.7793,48.3489 40.4919,22.3612 82.1937,58.62362 124.197,92.46804 42.0034,33.84442 84.309,65.27145 116.7365,97.74471 32.4275,32.47326 54.6008,65.43356 72.4296,89.00389 17.8289,23.57032 31.1248,37.47059 42.6077,61.94717 11.4829,24.47659 21.1527,59.52975 23.8724,105.46171 2.7197,45.932 -1.5108,102.7414 -3.0218,132.6577 -1.511,29.9163 -0.3023,32.9381 23.8755,49.5603 24.1778,16.6222 71.3121,46.8366 99.4151,64.6654 28.103,17.8287 37.1685,23.2681 49.8598,38.6789 12.6913,15.4108 29.0095,40.7948 36.5643,55.9035 7.5547,15.1088 6.3459,19.9438 -0.3031,37.7753 -6.6491,17.8315 -18.7341,48.6484 -31.4258,73.4277 -12.6918,24.7793 -25.9874,43.5141 -54.0913,69.2005 -28.1038,25.6863 -71.0117,58.3205 -94.1675,77.732 -23.1558,19.4116 -26.5569,25.5989 -32.2991,56.1233 -5.7422,30.5244 -13.8228,85.3698 -25.1727,124.92 -11.3499,39.5502 -25.968,63.7965 -35.4609,71.6033 -9.4929,7.8067 -13.8594,-0.8263 -22.7086,0.24 -8.8493,1.0663 -22.1831,11.8334 -34.7503,20.0427 -12.5671,8.2093 -24.3668,13.8603 -32.6846,17.8948 -8.3178,4.0345 -13.1523,6.4518 -17.053,-1.409 -3.9006,-7.8609 -6.8648,-25.993 -8.1637,-37.1441 -1.299,-11.1511 -0.9323,-15.3178 -3.4981,-14.5683 -2.5658,0.7494 -8.0668,6.4172 -13.114,12.1293 -5.0472,5.7122 -9.6401,11.4683 -6.3459,-0.7645 3.2942,-12.2329 14.4734,-42.4469 19.1571,-58.4621 4.6837,-16.0152 2.8705,-17.8284 -7.9321,-11.6339 -10.8026,6.1945 -30.5955,20.3971 -48.8026,56.6601 -18.2072,36.263 -34.8265,94.5817 -47.518,129.0306 -12.6915,34.4489 -21.4548,45.0252 -38.938,63.1088 -17.4832,18.0836 -43.6823,43.6704 -78.792,69.9268 -35.1097,26.2565 -79.1256,53.1788 -109.6813,71.555 -30.5558,18.3762 -47.6495,28.205 -95.5195,33.9747 -47.87,5.7696 -126.489,7.4787 -179.0533,5.983 -52.5644,-1.4957 -79.0599,-6.1965 -115.5989,-16.2394 -36.5391,-10.043 -83.1192,-25.4272 -111.7519,-38.6752 -28.6328,-13.248 -39.3165,-24.359 -48.2909,-37.3933 -8.9745,-13.0344 -16.2394,-27.9917 -28.5686,-44.1811 -12.3293,-16.1894 -29.7237,-33.612 -51.0911,-50.7059 -21.3674,-17.0939 -46.7084,-33.8597 -77.1141,-56.559 -30.4058,-22.6993 -65.8757,-51.3316 -88.52523,-69.494 -22.64957,-18.1624 -32.47856,-25.8547 -59.1883,-66.2398 -26.70974,-40.3852 -70.29906,-113.4614 -98.29047,-159.4015 -27.99142,-45.9401 -40.38466,-64.7436 -49.03844,-76.6024 -8.65378,-11.8589 -13.99567,-17.2008 -15.11743,-31.6491 -1.12176,-14.4483 1.76284,-38.2158 3.25852,-53.6002 1.49568,-15.3845 1.60253,-22.3865 -9.02649,-31.6555 -10.62903,-9.2689 -31.99891,-20.8087 -60.41762,-16.9627 -28.41871,3.846 -63.88833,23.0765 -102.56407,46.5811 -38.67574,23.5046 -80.55504,51.2816 -119.44431,69.2306 -38.88927,17.949 -74.78597,26.0685 -98.31396,30.051 -23.52799,3.9826 -34.68583,3.8279 -39.64534,3.3325 -4.95951,-0.4954 -3.64721,-1.3803 -7.43025,-21.8044 -3.78303,-20.4241 -12.63576,-60.4663 -21.06295,-85.535 -8.42718,-25.0688 -16.43514,-35.192 -23.61197,-52.7187 -7.17684,-17.5267 -13.52274,-42.457 -18.43318,-61.6454 -4.91043,-19.1885 -8.38557,-32.6358 -8.08328,-47.2916 0.3023,-14.6557 4.3819,-30.5208 5.74161,-45.4784 1.35971,-14.9575 -1.8e-4,-29.0097 4.83468,-49.1799 4.83487,-20.1702 15.86508,-46.4614 20.01987,-62.4011 4.15479,-15.9397 1.43504,-21.5303 6.19435,-39.283 4.7593,-17.7526 16.99836,-47.6704 23.70523,-63.7302 6.70687,-16.0598 7.94908,-18.3889 30.07545,-13.6314 22.12636,4.7576 65.20436,16.5474 105.46981,33.545 40.26545,16.9977 77.73647,39.2083 120.1174,64.8937 42.38092,25.6854 89.67277,54.8462 115.58498,70.4086 25.91221,15.5624 30.44498,17.5266 36.26189,14.9579 5.81691,-2.5687 12.91879,-9.6706 20.81851,-19.403 7.89971,-9.7324 16.59986,-22.0985 25.29849,-34.4624 0,0 0,0 0,0 0,0 0,0 -2.15883,-14.2152 z"
       id="path1156"
       inkscape:connector-curvature="0"
       inkscape:path-effect="#path-effect1158"
       inkscape:original-d="m 767.2,1239 c -4.31685,-28.4306 -8.63438,-56.8605 -12.95273,-85.2896 20.54865,-57.4141 41.09753,-114.8301 61.6452,-172.24395 9.67043,-15.10965 19.3404,-30.219 29.00948,-45.32738 18.13065,-19.33927 36.26265,-38.68012 54.39285,-58.01902 12.0876,-26.5917 24.17535,-53.18483 36.2619,-79.77615 22.36148,-38.67878 44.7237,-77.35945 67.0845,-116.03804 27.1965,-26.59219 54.3935,-53.18485 81.5892,-79.77615 21.1529,-15.71379 42.3063,-31.42772 63.4583,-47.14045 46.1694,-20.09637 92.3416,-40.19359 138.5113,-60.28926 20.9144,-7.10061 41.8289,-14.20074 62.7422,-21.29999 58.6216,-12.08753 117.2475,-24.17534 175.8702,-36.26189 44.7231,13.29508 89.4467,26.5913 134.169,39.88808 44.7232,26.59101 89.4467,53.18335 134.1689,79.77615 39.2842,8.46031 78.5682,16.92147 117.8512,25.38332 41.7013,36.26062 83.4031,72.52303 125.1035,108.78566 42.3062,31.42618 84.6118,62.85322 126.9166,94.28092 22.9665,33.23917 44.7237,66.4794 67.0845,99.72015 13.2968,13.89975 26.5927,27.80002 39.8881,41.7012 9.6705,35.05245 19.3404,70.10558 29.0094,105.1595 -4.2298,56.8104 -8.4603,113.6198 -12.6916,170.4309 1.2095,3.021 2.4182,6.0429 3.6262,9.0654 47.1472,30.2214 94.2816,60.4357 141.4213,90.6547 9.0662,5.4386 18.1317,10.8779 27.1964,16.3179 16.3182,25.382 32.6365,50.7659 48.9536,76.1499 -1.208,4.8342 -2.4167,9.6692 -3.6262,14.5048 -12.0887,30.8275 -24.1738,61.6444 -36.2619,92.4678 -13.2956,18.7351 -26.5913,37.4699 -39.8881,56.206 -42.9111,32.6364 -85.819,65.2706 -128.7297,97.9071 -3.4005,6.1868 -6.8016,12.3741 -10.2036,18.5624 -8.0821,54.8605 -16.1627,109.7059 -24.2451,164.56 -14.6178,24.2463 -29.2359,48.4926 -43.8549,72.74 -4.3661,-8.6344 -8.7326,-17.2674 -13.1,-25.9 -13.3321,10.7655 -26.6659,21.5326 -40,32.3 -11.8003,5.6509 -23.5999,11.302 -35.401,16.9541 -4.8346,2.4169 -9.6691,4.8341 -14.5048,7.2524 -2.9645,-18.1397 -5.9287,-36.2718 -8.8942,-54.4065 0.3674,-4.1673 0.7341,-8.334 1.1,-12.5 -5.4982,5.6648 -10.9992,11.3326 -16.5,17 -4.5935,5.757 -9.1864,11.5131 -13.7807,17.2707 11.1831,-30.2232 22.3622,-60.4372 33.5422,-90.6547 -1.8123,-1.8138 -3.6255,-3.627 -5.4393,-5.4393 -19.7922,14.2019 -39.5851,28.4044 -59.3788,42.6078 -16.62,58.3229 -33.2394,116.6416 -49.8601,174.9636 -8.7627,10.5757 -17.5259,21.152 -26.2899,31.7291 -26.2025,25.5901 -52.4016,51.1769 -78.6036,76.7665 -44.0176,26.923 -88.0335,53.8453 -132.0513,80.7692 -17.0936,9.8285 -34.1873,19.6574 -51.282,29.4872 -78.6359,2.136 -157.2642,3.418 -235.8975,5.1282 -26.4952,-4.7017 -52.9907,-9.4025 -79.4871,-14.1026 -46.5816,-15.3857 -93.1617,-30.77 -139.7436,-46.1539 -10.6832,-11.1119 -21.3669,-22.2229 -32.0514,-33.3333 -7.2642,-14.958 -14.5291,-29.9153 -21.7948,-44.8718 -17.3929,-17.4226 -34.7873,-34.8452 -52.1821,-52.2667 -25.3402,-16.7665 -50.6812,-33.5323 -76.0231,-50.2974 -35.4695,-28.6334 -70.9394,-57.2657 -106.4102,-85.8974 -9.82837,-7.6931 -19.65735,-15.3854 -29.48715,-23.077 -43.58948,-73.0784 -87.1788,-146.1546 -130.76925,-219.2308 -12.3924,-18.804 -24.78563,-37.6075 -37.17953,-56.4102 -5.12737,-4.7016 -10.25565,-10.2571 -15.3846,-15.3846 2.8854,-23.7683 5.76998,-47.5358 8.6538,-71.3026 0.10763,-7.0022 0.2145,-14.0042 0.32055,-21.0051 -21.36443,-11.5379 -42.73428,-23.0777 -64.10255,-34.6154 -35.46978,19.2303 -70.93942,38.4608 -106.41026,57.6924 -41.88065,27.7776 -83.75994,55.5547 -125.64103,83.3333 -35.89743,8.119 -71.79412,16.2385 -107.69231,24.3589 -11.15765,-0.1554 -22.31549,-0.3102 -33.47437,-0.4641 1.22306,-0.861 2.55204,-1.7212 3.82694,-2.5807 -8.84,-39.9887 -17.69271,-80.0309 -26.54018,-120.0451 -8.00697,-10.1237 -16.01491,-20.247 -24.02351,-30.3694 -6.34501,-24.9305 -12.6909,-49.8608 -19.03749,-74.79 -3.47427,-13.4477 -6.94944,-26.895 -10.42529,-40.3414 4.08006,-15.8648 8.15968,-31.7299 12.23839,-47.5937 -1.35899,-14.0515 -2.71889,-28.1037 -4.07946,-42.1545 11.02988,-26.2893 22.06006,-52.5805 33.08897,-78.8696 -2.7188,-5.5909 -5.43853,-11.1815 -8.15892,-16.7711 12.23845,-29.9152 24.47752,-59.8329 36.71516,-89.7482 1.05835,-2.2671 2.41821,-4.5335 3.62619,-6.7991 43.04473,11.7797 86.12273,23.5695 129.18297,35.3554 37.47093,22.2094 74.94198,44.42 112.41185,66.6312 47.29201,29.1596 94.58384,58.3204 141.87463,87.4818 4.53347,1.9634 9.06623,3.9276 13.59821,5.8925 7.10148,-7.1014 14.20332,-14.2033 21.30386,-21.3038 8.69906,-12.3642 17.39918,-24.7303 26.09768,-37.0943 0,0 7.5e-4,-7e-4 0,0 0,0 7.5e-4,-7e-4 0,0 z" />
  </g>
  <g
     inkscape:groupmode="layer"
     id="layer2"
     inkscape:label="Layer 2">
    <g
       style=""
       transform="matrix(0.1,0,0,-0.1,0,2800)"
       id="g1129"
       stroke="none"
       fill="#000000">
      <path
         d="M14795 23479 c-457 -17 -906 -85 -1437 -217 -150 -37 -198 -46 -198 -36 0 22 -49 17 -177 -21 -220 -64 -518 -193 -973 -420 -760 -380 -1422 -886 -1874 -1431 -253 -305 -505 -698 -631 -984 -171 -389 -479 -932 -701 -1236 -46 -62 -145 -189 -222 -281 -164 -199 -242 -301 -307 -402 -156 -244 -279 -550 -355 -876 -18 -77 -52 -207 -76 -290 -24 -82 -55 -190 -68 -240 l-25 -90 0 53 c-1 29 -6 52 -12 52 -25 0 -68 -166 -110 -422 -18 -113 -24 -135 -34 -121 -22 30 -32 5 -38 -97 -8 -130 27 -421 79 -648 l36 -162 -194 -203 c-107 -111 -220 -229 -251 -262 l-56 -60 -114 58 c-165 84 -668 386 -853 512 -148 101 -235 163 -634 455 -481 352 -826 534 -1317 693 -334 109 -632 171 -903 188 -91 6 -175 16 -188 22 -18 9 -29 7 -51 -6 -16 -9 -36 -17 -45 -17 -22 0 -20 -10 7 -44 l24 -29 -37 -131 c-21 -72 -56 -189 -78 -261 -22 -71 -53 -174 -68 -228 -21 -77 -36 -109 -66 -145 -56 -68 -100 -166 -106 -234 -4 -51 -2 -59 22 -83 24 -24 26 -31 17 -57 -16 -46 5 -64 39 -33 32 29 -55 -195 -153 -395 -53 -107 -112 -242 -131 -298 -31 -90 -36 -117 -36 -197 0 -82 23 -346 35 -400 3 -15 -6 -26 -36 -43 -88 -51 -124 -160 -116 -347 8 -180 35 -263 138 -421 85 -130 149 -250 149 -280 0 -56 59 -321 97 -434 27 -83 43 -116 56 -118 9 -2 20 5 25 15 6 15 15 10 61 -39 l54 -58 -54 16 c-30 9 -76 25 -102 35 -59 24 -67 24 -67 0 0 -23 61 -64 160 -107 47 -21 74 -38 72 -47 -5 -29 108 -567 144 -682 20 -66 49 -164 65 -217 15 -53 34 -107 42 -120 18 -29 40 -116 32 -129 -4 -5 -15 -9 -26 -9 -33 0 -21 -44 12 -48 17 -2 29 -11 32 -24 5 -18 11 -20 49 -15 24 4 95 9 158 12 154 9 264 22 385 46 96 20 144 32 405 100 63 17 279 80 480 140 402 121 551 183 665 276 59 48 96 96 83 109 -4 3 -34 -10 -67 -30 -64 -39 -210 -109 -251 -121 -14 -4 9 15 50 41 87 54 605 398 860 571 223 151 400 257 410 246 5 -4 12 -24 17 -43 6 -22 16 -36 28 -39 16 -3 18 2 12 58 -6 50 -4 61 8 61 9 0 47 11 85 24 l70 25 26 -60 c42 -92 55 -72 29 46 -6 29 -5 31 57 52 45 16 104 25 206 32 l142 10 139 -77 140 -78 76 -102 c41 -56 82 -105 90 -110 14 -7 14 -13 0 -52 -24 -68 -53 -223 -65 -352 -6 -65 -15 -132 -21 -150 -5 -21 -5 -65 2 -123 11 -98 26 -128 136 -287 56 -82 62 -98 37 -98 -9 0 -14 -7 -12 -17 2 -12 14 -19 38 -21 29 -3 41 -12 75 -58 22 -30 81 -101 132 -157 101 -110 156 -187 223 -312 36 -66 39 -75 17 -52 -31 32 -57 35 -57 7 0 -17 219 -398 328 -569 114 -181 218 -333 373 -546 95 -132 197 -278 225 -325 28 -47 124 -196 215 -332 90 -136 212 -326 272 -421 122 -198 180 -263 228 -253 15 3 31 1 34 -4 3 -6 14 -10 24 -10 10 0 24 -7 31 -15 7 -8 45 -36 84 -62 39 -26 103 -74 141 -108 103 -91 410 -331 488 -382 37 -24 92 -55 121 -68 36 -16 124 -84 262 -203 273 -233 502 -424 591 -492 69 -52 73 -57 84 -110 17 -82 56 -160 81 -160 15 0 18 4 13 18 -14 37 -35 126 -30 131 8 8 157 -142 244 -246 100 -118 377 -504 373 -520 -1 -6 16 -27 39 -45 22 -18 57 -55 77 -81 33 -45 38 -49 69 -44 26 5 46 -1 86 -25 176 -105 619 -285 855 -348 43 -11 44 -12 38 -46 -9 -43 14 -47 35 -6 l14 28 205 -48 c113 -27 252 -60 310 -74 132 -30 727 -117 1035 -149 182 -20 630 -22 975 -5 188 9 261 17 370 40 216 46 429 87 655 125 260 44 442 93 560 150 102 49 263 153 375 241 41 33 109 77 150 99 113 59 259 143 313 182 26 18 71 43 100 53 128 49 327 222 596 519 223 245 242 263 316 291 73 29 92 40 176 107 129 103 316 333 393 483 53 104 80 177 146 390 107 346 155 484 270 780 244 626 260 655 481 847 l116 101 -58 -171 c-56 -168 -156 -547 -163 -624 -2 -21 -10 -50 -16 -65 -16 -34 -7 -58 21 -58 25 0 126 99 191 188 l46 62 6 -67 c3 -38 11 -97 17 -133 6 -36 17 -112 24 -169 9 -64 23 -121 37 -150 20 -39 28 -46 57 -49 18 -2 38 1 44 7 14 14 9 153 -8 226 -8 33 -19 94 -25 135 -6 41 -15 87 -20 101 -15 49 18 175 105 388 46 113 118 301 160 416 119 326 138 376 141 372 2 -2 -10 -44 -27 -93 -60 -177 -208 -682 -238 -815 -35 -154 -40 -239 -15 -260 14 -11 20 -9 43 17 14 17 32 39 39 50 7 10 3 -1 -9 -26 -27 -56 -107 -170 -120 -170 -5 0 -9 -4 -9 -10 0 -40 91 33 149 120 54 80 414 753 513 960 114 236 227 509 283 679 21 63 36 92 64 118 53 50 585 491 589 488 2 -2 -17 -68 -43 -147 -94 -292 -148 -558 -160 -793 -5 -97 -14 -146 -46 -258 -22 -75 -57 -213 -78 -305 -44 -189 -66 -247 -183 -492 -47 -96 -95 -201 -108 -233 l-23 -57 -32 92 c-18 51 -45 120 -62 153 -28 58 -29 65 -27 185 2 117 6 141 68 385 55 222 77 288 145 453 80 192 131 338 131 370 -1 9 -20 -28 -44 -83 -73 -172 -138 -305 -147 -299 -5 2 -16 -21 -25 -53 -9 -32 -70 -182 -136 -333 -66 -151 -149 -342 -185 -425 -35 -82 -98 -222 -140 -311 l-76 -161 -120 -64 c-91 -48 -140 -82 -199 -137 -43 -41 -81 -85 -84 -98 -9 -35 13 -57 48 -50 49 10 160 81 238 154 l76 70 -4 -34 c-3 -22 -11 -35 -24 -40 -33 -10 -19 -47 21 -55 38 -8 88 9 137 47 44 32 170 210 225 316 l45 89 12 -62 c12 -67 37 -113 56 -106 6 3 23 -16 37 -43 l26 -48 -21 -43 c-18 -34 -38 -55 -64 -65 -1 -1 0 -9 4 -18 11 -28 76 -21 106 12 30 33 140 226 192 337 21 44 51 94 68 110 46 45 89 146 161 385 97 318 139 499 182 785 9 61 27 153 40 205 13 52 37 174 54 271 26 144 63 330 97 489 4 17 22 36 52 55 99 62 557 415 787 606 44 36 120 95 169 129 49 35 121 91 159 124 38 34 82 70 98 82 16 11 55 52 86 91 32 38 79 94 104 124 26 30 55 72 66 94 11 22 44 78 74 125 70 110 228 410 297 565 102 226 172 480 172 620 0 74 -23 166 -51 206 -10 15 -23 39 -29 55 -6 15 -41 78 -77 138 -170 287 -317 461 -548 654 -151 126 -454 322 -523 338 -15 4 -77 35 -139 70 -104 60 -315 161 -373 179 -14 4 -100 45 -192 90 -146 72 -173 89 -219 139 -64 71 -104 89 -194 91 -41 1 -79 7 -93 16 -32 20 -175 304 -174 346 1 18 10 85 21 150 38 221 101 687 121 893 11 113 23 220 26 238 4 17 4 32 0 32 -14 0 -36 -63 -52 -148 -10 -50 -19 -90 -21 -88 -2 2 4 114 13 250 12 171 14 250 6 258 -13 13 -22 -30 -71 -357 -33 -221 -59 -430 -93 -760 -2 -16 -7 31 -11 105 -31 538 -104 1271 -128 1286 -41 25 61 -1472 107 -1571 11 -23 12 -48 7 -100 l-8 -70 -37 75 -37 75 -10 280 c-19 498 -112 1509 -142 1540 -29 30 29 -1085 80 -1530 10 -88 18 -161 17 -162 -1 -1 -62 137 -135 308 l-132 309 -3 228 c-2 125 -2 216 1 202 2 -14 17 -119 34 -235 35 -249 49 -317 68 -323 12 -4 13 12 8 97 -9 133 -68 566 -117 861 -22 129 -44 296 -50 370 -26 331 -80 783 -112 932 -10 48 -22 66 -32 49 -4 -5 5 -171 18 -368 14 -197 32 -470 41 -608 20 -323 40 -569 66 -828 11 -114 19 -212 17 -217 -2 -6 -33 61 -71 147 -66 154 -68 162 -87 318 -50 391 -163 1054 -217 1275 -24 100 -36 130 -48 118 -10 -10 146 -962 212 -1293 37 -187 51 -317 30 -280 -6 11 -64 109 -128 218 -65 109 -113 194 -107 191 25 -16 -4 74 -47 145 -40 65 -50 94 -75 210 -138 646 -271 1186 -299 1214 -8 8 -11 6 -11 -6 0 -33 204 -958 261 -1181 11 -43 19 -80 17 -81 -3 -4 -268 297 -329 374 -26 32 -35 51 -27 53 25 9 -15 58 -157 197 l-142 137 -7 70 c-20 202 -130 841 -156 910 -16 40 -31 18 -25 -34 3 -26 15 -123 26 -217 20 -170 95 -642 107 -673 3 -9 -23 7 -58 36 -36 29 -98 78 -138 109 -40 30 -74 65 -76 77 -3 11 -10 57 -16 101 -35 239 -147 757 -181 834 -24 54 -33 49 -20 -11 6 -25 22 -119 35 -209 20 -130 94 -532 124 -668 4 -20 -10 -12 -94 50 -54 40 -113 83 -130 95 -29 22 -32 28 -38 106 -38 454 -90 841 -110 817 -6 -8 22 -406 44 -627 13 -122 21 -225 18 -227 -3 -3 -79 43 -169 103 -190 126 -333 215 -475 298 l-101 59 -6 115 c-7 140 -53 456 -106 722 -39 201 -66 274 -110 297 -17 9 -16 5 5 -47 17 -44 28 -108 44 -258 11 -109 30 -257 40 -329 45 -302 64 -445 59 -449 -3 -3 -73 31 -156 74 l-150 80 -7 93 c-11 140 -40 259 -126 517 -99 296 -187 523 -231 596 -39 64 -94 132 -102 124 -3 -3 14 -45 38 -93 24 -48 58 -133 75 -190 47 -154 110 -347 199 -607 68 -200 128 -420 115 -420 -2 0 -61 26 -131 59 -71 32 -153 69 -183 81 -30 13 -62 29 -70 37 -12 11 -7 13 33 13 26 0 47 5 47 10 0 6 -20 10 -45 10 -38 0 -45 3 -50 23 -19 76 -52 227 -49 227 2 0 22 -37 45 -82 53 -105 91 -166 96 -152 13 38 -506 1194 -535 1194 -18 0 7 -80 83 -264 41 -99 75 -187 75 -196 0 -36 90 -412 146 -608 20 -68 34 -125 32 -127 -2 -2 -54 15 -115 38 l-111 41 -56 226 c-31 124 -74 288 -96 365 -25 89 -45 187 -55 270 -8 72 -18 142 -21 158 -9 44 -24 20 -25 -41 -1 -53 -2 -54 -10 -24 -5 17 -15 32 -21 32 -13 0 -7 -59 20 -195 20 -100 59 -601 48 -613 -3 -3 -6 9 -6 28 0 95 -76 676 -96 740 -5 13 -6 13 -14 0 -17 -30 39 -622 75 -800 7 -36 12 -66 11 -67 -2 -2 -289 76 -294 81 -2 3 -22 191 -42 418 -38 406 -76 747 -85 757 -16 15 2 -311 36 -672 11 -121 19 -221 16 -223 -2 -2 -18 65 -37 149 -47 217 -164 656 -179 670 -11 10 -12 -1 -6 -53 14 -135 115 -622 191 -924 14 -54 23 -100 21 -102 -6 -6 -322 60 -325 68 -2 4 -27 8 -55 9 -29 0 -88 6 -132 12 l-80 12 -6 160 c-4 88 -14 219 -23 290 -42 336 -106 741 -133 840 -19 70 -51 150 -58 143 -3 -2 2 -42 10 -89 8 -46 26 -199 40 -339 14 -140 44 -385 66 -545 51 -369 61 -447 57 -451 -4 -3 -138 13 -143 18 -2 2 -63 152 -135 333 -155 390 -302 733 -308 717 -7 -21 239 -659 393 -1016 l16 -39 -48 6 c-26 4 -105 9 -175 13 -71 4 -128 8 -128 10 0 11 -99 366 -165 589 -101 347 -187 613 -192 598 -8 -22 216 -821 302 -1078 20 -59 35 -109 33 -110 -2 -2 -36 0 -76 2 l-74 6 -18 43 c-42 97 -183 554 -211 681 -32 147 -173 705 -188 744 -8 21 -10 22 -16 7 -4 -9 5 -79 19 -155 14 -76 28 -154 31 -173 4 -32 4 -31 -8 7 -6 23 -15 44 -18 48 -36 35 -4 -919 33 -975 9 -15 4 559 -7 685 l-5 60 30 -90 c16 -49 41 -151 55 -225 32 -166 97 -424 160 -640 4 -13 -32 -15 -280 -16 -157 -1 -285 1 -285 5 0 4 41 19 92 34 72 22 93 25 99 15 35 -56 23 126 -41 622 -42 328 -127 856 -140 878 -37 57 53 -755 141 -1282 16 -98 28 -181 25 -183 -2 -2 -73 -6 -157 -8 -183 -5 -249 -16 -524 -89 -116 -30 -225 -58 -243 -61 l-34 -7 7 184 c3 100 11 284 16 408 11 224 29 1341 23 1349 -2 2 -10 -12 -19 -32 -39 -94 -70 -691 -70 -1360 0 -284 -3 -517 -6 -517 -26 0 -201 -35 -278 -56 -51 -14 -95 -23 -98 -20 -7 7 124 227 186 311 28 38 51 74 51 80 -2 34 -184 -214 -266 -362 -27 -49 -64 -84 -50 -48 7 19 -8 19 -24 0 -7 -8 -15 -15 -19 -15 -3 0 -6 114 -5 252 2 572 -42 1492 -74 1542 -15 24 -20 -63 -21 -379 -1 -356 10 -727 34 -1115 8 -135 16 -262 17 -284 l2 -38 -233 -80 c-128 -44 -234 -78 -236 -76 -2 2 0 64 5 138 19 280 31 599 37 1015 6 409 2 529 -17 495 -16 -31 -48 -611 -55 -1035 -4 -170 -8 -332 -10 -360 -2 -27 -4 -101 -5 -163 0 -100 -2 -114 -18 -118 -9 -3 -103 -38 -207 -79 -137 -54 -192 -71 -197 -62 -21 33 -7 70 57 148 36 45 65 85 65 89 0 27 -25 12 -78 -46 -55 -61 -60 -64 -65 -42 -4 13 -13 133 -22 268 -19 306 -30 450 -56 760 -20 232 -22 456 -4 580 5 33 4 33 -19 -15 -14 -28 -32 -97 -42 -155 -16 -96 -16 -134 -5 -435 19 -533 42 -832 77 -1017 l15 -79 -73 -83 c-71 -81 -78 -86 -216 -155 -79 -39 -146 -71 -149 -71 -6 0 1 54 12 88 5 16 3 22 -8 22 -8 0 -17 10 -21 23 -9 34 -7 324 4 482 5 77 14 280 20 450 12 343 22 404 80 483 34 48 26 54 -20 15 -70 -59 -102 -142 -120 -308 -54 -522 -64 -916 -30 -1110 l19 -110 -25 -36 c-41 -60 -62 -78 -134 -114 -179 -90 -642 -374 -1054 -646 -99 -66 -181 -117 -183 -115 -9 9 -45 260 -78 556 -20 173 -54 443 -76 600 -22 157 -44 323 -47 370 -7 78 -8 83 -21 61 -20 -36 -15 -158 19 -496 48 -479 84 -727 141 -984 16 -74 26 -137 22 -141 -4 -4 -53 -38 -108 -75 -55 -38 -142 -99 -193 -137 -50 -37 -96 -68 -101 -68 -18 0 -54 289 -71 565 -6 99 -22 326 -36 505 -25 307 -27 418 -8 465 7 18 6 18 -9 7 -33 -27 -42 -82 -40 -237 6 -332 31 -757 59 -963 l15 -114 -113 -173 c-62 -95 -114 -172 -115 -171 -1 1 -11 96 -23 211 -11 116 -37 332 -56 482 -18 149 -34 292 -34 318 0 57 -15 51 -23 -10 -10 -73 47 -728 83 -950 l18 -110 -69 -110 c-37 -60 -89 -130 -114 -155 -46 -45 -56 -45 -30 0 16 28 20 60 7 60 -5 0 -28 -37 -51 -81 -41 -77 -94 -149 -110 -149 -4 0 -16 35 -25 78 -50 210 -228 776 -272 864 -22 43 -44 69 -44 52 0 -31 186 -668 254 -870 l54 -161 -56 -56 -55 -56 -93 277 c-109 330 -228 651 -232 630 -4 -20 123 -424 220 -702 80 -226 80 -228 62 -251 -40 -49 -159 -183 -164 -184 -3 0 -54 101 -115 226 -123 253 -116 221 -90 423 7 58 16 114 20 125 7 20 6 20 -9 0 -21 -24 -34 -70 -48 -167 -7 -43 -15 -78 -19 -78 -4 0 -34 52 -66 115 -97 192 -100 128 -4 -90 l58 -130 -27 -190 c-25 -170 -29 -187 -39 -161 -73 183 -116 283 -123 291 -18 21 -5 -31 58 -224 l66 -202 -16 -115 c-9 -64 -16 -132 -16 -152 -1 -35 -1 -36 -16 -17 -8 11 -40 66 -70 122 l-55 102 5 88 c3 48 8 222 11 387 3 164 8 312 11 330 4 22 3 27 -4 16 -19 -29 -31 -136 -42 -375 -7 -132 -15 -271 -18 -308 l-7 -69 -37 65 c-36 60 -38 69 -39 153 -1 87 -16 88 -18 2 -1 -21 -5 -38 -9 -38 -10 0 -48 74 -57 112 -10 38 -25 25 -25 -21 0 -22 15 -69 38 -117 l37 -79 -5 -225 -5 -225 -55 170 c-49 153 -54 181 -58 278 -2 59 -8 107 -14 107 -16 0 -39 -71 -45 -139 -9 -110 63 -430 137 -610 34 -83 41 -112 49 -211 5 -63 8 -116 6 -118 -1 -1 -17 48 -34 110 -57 200 -88 299 -158 503 -37 110 -69 202 -71 205 -2 2 -7 -2 -12 -10 -45 -71 68 -546 186 -784 24 -49 44 -93 44 -98 0 -5 -57 -80 -127 -165 -117 -143 -128 -153 -134 -130 -9 34 -18 158 -29 433 -6 128 -17 310 -26 405 -8 96 -13 203 -9 239 6 65 6 65 -14 43 -28 -34 -41 -131 -41 -319 0 -309 21 -567 62 -772 l20 -102 -42 -56 c-43 -55 -58 -69 -65 -62 -3 2 -13 96 -25 209 -28 289 -48 464 -71 617 -10 73 -19 180 -19 238 0 57 -4 104 -8 104 -13 0 -30 -66 -38 -141 -13 -135 58 -809 107 -1006 l20 -81 -93 -115 -93 -116 -7 107 c-25 360 -53 602 -70 602 -20 0 31 -688 53 -716 5 -6 -32 -59 -99 -142 -82 -100 -109 -127 -113 -114 -4 9 -19 105 -33 212 -25 182 -82 526 -94 560 -3 9 -8 1 -14 -20 -15 -53 45 -514 93 -722 l21 -88 -83 -100 c-46 -55 -84 -98 -85 -97 0 1 -4 121 -8 267 -8 326 -16 460 -28 460 -6 0 -9 -148 -7 -385 l3 -385 -59 -60 c-32 -33 -60 -58 -62 -56 -4 3 -21 163 -34 316 -5 58 -11 123 -14 145 -3 22 -10 76 -16 120 -9 72 -8 85 10 127 11 25 29 93 41 150 44 213 130 470 254 762 36 83 79 202 96 265 74 274 172 529 261 684 71 122 207 316 313 447 297 365 477 639 646 981 42 86 86 170 97 185 21 30 181 314 286 509 32 61 65 120 73 132 8 12 39 68 70 125 65 118 192 313 294 448 409 546 963 1018 1670 1422 91 52 371 199 624 326 l458 231 182 40 c936 204 1634 281 2292 252 392 -17 628 -46 884 -111 347 -87 656 -231 1316 -610 329 -189 456 -241 764 -310 691 -154 988 -305 1340 -680 297 -317 353 -369 525 -482 185 -122 278 -174 390 -219 44 -17 83 -33 88 -36 4 -2 -6 -16 -23 -30 -53 -44 -36 -66 60 -76 117 -14 273 -122 530 -367 176 -168 356 -361 438 -470 27 -36 127 -177 222 -315 309 -445 403 -560 574 -707 48 -41 118 -147 167 -255 22 -48 53 -115 68 -148 16 -33 35 -76 43 -95 9 -19 43 -98 77 -175 l61 -140 15 -170 c31 -362 38 -582 32 -1023 -6 -413 -17 -611 -48 -850 -6 -51 -8 -96 -4 -100 12 -12 44 38 64 102 91 295 145 912 121 1386 -11 235 -21 331 -51 520 -41 248 -81 390 -142 491 -18 30 -50 97 -71 149 -21 52 -66 149 -99 215 -58 114 -68 127 -202 265 -153 157 -211 231 -444 560 -281 399 -295 415 -586 677 -99 89 -209 195 -245 234 -76 85 -213 207 -288 257 -40 27 -50 38 -41 48 17 21 4 31 -73 54 -104 31 -190 78 -362 194 -351 238 -388 269 -575 486 -236 274 -432 440 -674 570 -173 93 -470 190 -825 270 -125 29 -263 64 -307 78 -102 35 -257 113 -575 292 -310 174 -613 329 -778 398 -399 168 -757 238 -1342 262 -265 11 -268 11 -565 -1z m3199 -2435 c19 -67 50 -159 69 -206 l34 -85 -62 20 -62 20 -7 146 c-3 80 -9 169 -11 196 -6 64 -3 56 39 -91z m-2529 -165 c-94 -31 -230 -94 -325 -150 l-55 -32 90 94 c49 52 96 100 104 107 10 8 55 12 145 11 l131 -1 -90 -29z m209 -41 c-101 -96 -238 -250 -535 -603 -461 -548 -619 -745 -634 -795 -4 -13 -30 -53 -57 -88 -50 -66 -80 -119 -92 -162 -4 -14 9 3 29 37 43 74 56 89 341 387 187 196 686 725 905 960 67 73 310 299 344 322 13 8 35 11 63 7 34 -5 46 -12 58 -34 19 -39 38 -38 31 1 -6 29 -5 30 28 30 l34 0 -137 -182 c-76 -101 -200 -269 -276 -375 l-138 -192 -281 -253 c-473 -424 -491 -444 -586 -635 -69 -136 -111 -270 -117 -363 l-4 -75 14 70 c37 191 145 412 268 553 54 61 529 482 544 482 3 0 -14 -28 -38 -62 -133 -189 -192 -278 -184 -278 3 0 82 101 175 226 167 222 172 227 358 391 216 190 380 328 473 398 79 59 74 53 -165 -200 -168 -177 -325 -350 -384 -420 -33 -40 291 286 554 556 206 212 212 217 311 267 71 36 113 52 140 52 40 0 374 -46 380 -53 2 -2 -51 -51 -117 -110 -117 -103 -122 -107 -167 -107 -147 0 -471 -12 -492 -18 -14 -4 93 -9 238 -12 l262 -5 -222 -200 c-378 -340 -601 -552 -620 -589 -6 -12 18 6 53 40 35 34 134 122 219 196 85 74 259 228 385 342 127 115 238 211 248 215 17 6 122 0 202 -12 l40 -7 -45 16 c-25 8 -67 18 -95 21 -27 3 -55 8 -61 12 -10 5 173 181 211 204 8 4 89 -9 182 -28 216 -45 241 -52 256 -76 14 -23 27 -25 27 -3 0 10 6 14 18 10 9 -2 86 -24 170 -47 146 -41 176 -59 101 -61 -19 0 -45 3 -58 7 -20 7 -23 5 -18 -9 13 -33 -21 -27 -84 17 -101 70 -119 80 -119 68 0 -6 29 -34 65 -63 36 -28 62 -55 58 -59 -14 -11 -168 -49 -203 -49 -18 0 -41 -6 -49 -14 -9 -7 -42 -21 -73 -30 l-56 -16 -127 45 c-177 63 -217 58 -138 -16 35 -32 36 -33 19 -6 -18 29 -18 29 5 22 47 -15 154 -68 144 -71 -5 -2 -126 -37 -267 -78 -142 -42 -281 -87 -310 -102 -70 -35 -157 -95 -188 -129 -23 -26 -22 -25 30 7 141 89 200 111 585 208 l250 64 110 -43 c132 -51 265 -112 265 -121 0 -3 -57 -46 -127 -96 -210 -146 -424 -307 -373 -279 32 18 231 153 377 257 l154 109 145 -75 c80 -41 144 -70 141 -63 -2 7 -57 44 -121 84 -65 40 -120 74 -123 77 -3 2 13 17 36 31 l40 27 198 -120 c189 -115 353 -203 306 -165 -12 10 -121 83 -243 163 -121 80 -220 147 -220 150 0 3 16 15 35 28 l36 23 97 -67 c53 -37 126 -88 162 -113 l65 -46 -40 49 c-22 27 -81 88 -133 136 -82 78 -91 89 -75 98 10 6 15 14 11 18 -4 4 -14 1 -23 -6 -12 -10 -21 -7 -52 18 -21 16 -49 41 -61 55 -27 28 -29 27 60 47 52 11 83 2 341 -102 104 -42 129 -56 133 -75 7 -26 24 -32 24 -8 0 8 3 15 6 15 13 0 415 -200 544 -269 278 -152 685 -404 1190 -740 217 -143 284 -193 368 -275 56 -54 102 -102 102 -106 0 -4 83 -92 185 -196 l185 -189 157 -260 c86 -143 194 -320 240 -392 47 -73 117 -204 157 -290 144 -310 214 -452 353 -713 78 -146 177 -346 221 -445 44 -99 103 -229 131 -289 28 -60 51 -113 51 -118 0 -13 109 -196 121 -204 6 -3 -19 -19 -55 -34 -182 -77 -281 -209 -308 -415 -2 -14 -20 3 -72 68 -68 86 -92 101 -115 73 -30 -36 19 -123 174 -312 111 -136 161 -182 209 -196 23 -6 57 -24 77 -40 80 -61 226 -118 304 -118 84 0 260 63 313 112 27 26 31 64 5 53 -10 -3 -42 -11 -70 -16 -29 -6 -78 -19 -108 -29 -66 -23 -68 -22 -204 54 -53 30 -143 75 -201 101 -74 33 -119 60 -153 93 l-49 47 5 76 c7 103 43 185 109 244 136 123 305 138 455 42 57 -36 180 -182 199 -236 19 -53 17 -123 -7 -186 -20 -54 -78 -127 -108 -137 -28 -8 -4 -38 31 -38 76 1 168 73 209 164 24 55 29 189 10 240 -7 16 -10 30 -9 32 2 1 44 -20 93 -48 154 -86 455 -235 565 -279 73 -29 135 -63 205 -113 55 -40 168 -115 251 -169 135 -87 156 -104 211 -175 34 -43 90 -108 125 -143 57 -57 253 -306 286 -362 10 -19 70 -154 105 -239 9 -23 5 -39 -28 -115 -33 -74 -55 -104 -133 -188 l-94 -100 -156 -51 c-301 -99 -603 -232 -720 -318 -103 -77 -169 -185 -143 -235 15 -28 24 -27 63 8 93 80 330 213 555 310 281 122 376 168 453 219 41 28 76 49 78 47 2 -2 -40 -90 -92 -197 -317 -643 -550 -957 -894 -1206 -165 -120 -463 -353 -576 -451 -91 -79 -112 -92 -265 -161 -118 -53 -169 -81 -176 -97 -6 -14 -67 -51 -180 -110 -150 -77 -265 -144 -479 -276 -67 -41 -83 -42 -234 -5 -146 35 -350 132 -487 231 -298 216 -613 510 -723 675 -78 117 -129 222 -163 337 -16 53 -32 90 -40 90 -22 0 -30 -56 -19 -138 36 -258 213 -546 483 -788 322 -287 593 -439 892 -498 72 -14 85 -19 66 -25 -13 -5 -40 -15 -58 -23 -30 -12 -33 -16 -22 -30 27 -32 173 6 424 112 60 25 105 41 100 36 -12 -12 -357 -293 -655 -534 -221 -178 -487 -406 -685 -586 -59 -54 -109 -91 -121 -91 -14 0 -46 -27 -90 -76 -47 -53 -103 -100 -184 -154 -64 -43 -179 -127 -255 -187 -77 -60 -185 -144 -240 -187 -123 -96 -145 -116 -145 -132 0 -7 10 -14 23 -16 37 -5 -392 -276 -848 -533 -393 -223 -717 -379 -1075 -520 -209 -83 -624 -225 -655 -225 -11 0 -44 -9 -74 -21 -246 -93 -720 -141 -1406 -143 -383 0 -517 6 -865 44 -216 24 -330 40 -330 49 0 3 -5 13 -10 21 -8 13 -11 13 -22 -3 -13 -17 -20 -16 -153 8 -146 27 -413 85 -500 109 -35 10 -43 15 -25 16 14 1 -31 20 -105 46 -180 60 -312 127 -432 218 -57 43 -103 79 -103 81 0 2 45 -17 100 -41 178 -78 530 -188 547 -170 12 11 -10 23 -97 51 -191 63 -415 163 -612 275 l-107 60 -97 143 c-54 78 -109 158 -123 177 l-26 35 35 -26 c298 -222 578 -388 870 -518 74 -32 173 -85 220 -117 81 -54 199 -115 248 -127 36 -9 18 7 -67 56 -44 26 -82 50 -85 55 -9 14 258 -71 394 -125 260 -104 499 -174 755 -219 131 -24 177 -27 365 -27 189 -1 224 2 292 20 82 23 178 68 178 83 0 18 -17 18 -95 -2 -109 -28 -379 -30 -544 -5 -335 53 -727 182 -1221 403 -107 47 -234 104 -281 125 -139 61 -202 95 -230 126 -15 15 -102 120 -194 232 -92 113 -290 348 -439 524 -402 474 -418 496 -578 807 -231 449 -469 896 -623 1170 -26 47 -58 114 -70 150 -18 53 -23 61 -29 42 -4 -12 -1 -46 8 -75 19 -65 214 -459 446 -902 96 -181 207 -397 248 -479 154 -311 252 -443 791 -1070 113 -132 219 -255 236 -274 25 -31 15 -26 -75 35 -169 113 -326 240 -450 363 -131 130 -203 222 -258 327 -70 136 -66 62 4 -84 25 -51 73 -130 106 -175 122 -164 386 -405 611 -559 48 -33 87 -62 87 -65 0 -20 -365 233 -608 421 l-232 179 -140 197 c-137 192 -145 206 -286 506 -174 368 -473 979 -783 1603 -125 250 -250 506 -279 568 -48 103 -72 135 -72 97 0 -24 84 -239 159 -408 116 -261 294 -629 617 -1276 171 -343 303 -613 293 -600 -11 13 -80 114 -153 224 -186 277 -275 446 -383 720 -20 50 -40 63 -36 22 2 -12 21 -79 44 -149 66 -207 229 -520 410 -790 52 -76 323 -464 363 -518 14 -19 28 -29 -209 150 -251 190 -300 233 -371 331 -76 107 -166 287 -189 378 -9 39 -20 71 -23 71 -2 0 -2 -33 1 -72 6 -73 32 -160 81 -273 25 -57 25 -59 3 -33 -12 15 -55 114 -96 220 -40 106 -238 605 -438 1108 -409 1026 -430 1080 -518 1344 -35 103 -66 191 -69 194 -44 43 59 -326 192 -688 93 -255 687 -1757 758 -1918 13 -30 23 -57 21 -58 -2 -2 -50 55 -106 127 l-103 132 -195 426 c-107 234 -294 642 -415 906 -122 264 -236 525 -255 580 -18 55 -42 107 -52 115 -10 8 -33 52 -52 98 -18 45 -39 82 -46 82 -13 0 21 -104 89 -270 20 -47 65 -189 101 -316 75 -261 130 -420 135 -388 2 12 -11 79 -28 149 -16 70 -29 130 -27 131 2 2 138 -290 302 -649 164 -358 305 -665 313 -682 8 -16 10 -25 4 -20 -12 12 -149 203 -221 308 -30 42 -60 77 -67 77 -19 0 -18 -3 11 -60 62 -122 181 -307 340 -525 121 -167 139 -199 154 -287 13 -77 46 -189 68 -232 14 -26 9 -24 -42 20 -122 103 -181 188 -435 614 -448 755 -609 1074 -745 1479 -49 148 -75 195 -75 136 0 -45 58 -260 115 -430 4 -11 -12 9 -35 45 -85 130 -139 234 -151 289 -19 89 -31 95 -26 14 5 -91 22 -127 225 -481 87 -152 220 -396 294 -542 210 -412 653 -1235 883 -1642 15 -27 24 -48 22 -48 -8 0 -157 204 -209 285 -24 39 -113 189 -198 335 -218 378 -346 592 -665 1120 -155 256 -300 499 -323 541 l-42 75 -44 330 c-25 181 -48 373 -52 427 -8 127 -27 115 -32 -21 -3 -67 4 -161 22 -302 15 -113 29 -227 32 -255 l5 -50 -52 100 c-29 55 -83 167 -120 250 -37 82 -72 151 -78 153 -45 15 61 -281 223 -622 50 -106 69 -159 81 -225 8 -47 15 -90 15 -96 0 -5 -73 101 -163 237 -89 136 -181 275 -204 310 -22 35 -67 110 -99 168 -133 242 -285 503 -279 480 11 -44 188 -393 374 -741 189 -355 280 -510 310 -531 10 -7 126 -177 258 -378 318 -487 498 -746 629 -907 18 -22 23 -37 17 -47 -7 -12 -56 52 -203 266 -285 413 -756 1072 -1127 1576 -91 123 -209 296 -264 385 -87 142 -98 166 -94 197 3 19 12 127 20 240 15 191 35 383 55 504 8 48 -3 88 -14 55 -31 -89 -80 -359 -104 -576 l-18 -158 -34 58 c-19 31 -38 57 -42 57 -18 0 -13 -22 28 -109 44 -93 52 -125 20 -76 -15 23 -46 35 -46 17 0 -4 14 -30 30 -56 l31 -48 -13 -164 c-13 -184 -15 -186 -69 -78 l-30 59 6 -45 c3 -25 22 -73 41 -108 20 -34 34 -67 32 -72 -2 -5 -79 84 -173 198 l-170 207 -17 305 c-9 168 -17 351 -17 408 -1 78 -4 103 -13 100 -27 -9 -31 -150 -16 -455 8 -164 14 -299 13 -300 0 -1 -32 34 -70 77 -67 75 -95 95 -95 68 0 -7 38 -64 84 -127 59 -79 87 -125 91 -153 4 -22 5 -41 2 -44 -2 -2 -42 46 -89 109 -47 62 -92 119 -100 127 -15 16 -209 276 -290 391 -44 61 -49 75 -83 230 -20 90 -39 197 -42 237 -3 39 -10 72 -14 72 -28 0 -23 -143 11 -303 11 -55 17 -103 14 -109 -4 -5 1 -26 10 -46 15 -36 70 -282 63 -288 -7 -7 -88 108 -151 214 -43 71 -76 116 -90 122 -15 5 -40 38 -66 87 -71 129 -192 333 -201 339 -25 15 -1 -49 67 -183 43 -81 90 -175 107 -208 16 -33 52 -97 78 -143 27 -45 49 -84 49 -86 0 -9 99 -181 157 -274 35 -56 62 -106 58 -112 -7 -11 -195 139 -195 156 0 21 -177 387 -317 655 -160 307 -159 306 -169 297 -12 -12 55 -164 188 -425 l128 -252 -37 16 c-53 22 -81 54 -143 163 -68 121 -279 472 -290 483 -4 5 -10 4 -14 -1 -8 -14 86 -199 207 -407 58 -99 104 -181 102 -183 -4 -5 -125 46 -152 63 -13 9 -23 24 -23 36 0 23 -29 37 -40 19 -6 -10 -16 -8 -43 9 -25 15 -52 51 -97 134 -123 219 -291 479 -298 459 -5 -15 38 -107 123 -263 36 -66 65 -122 65 -124 0 -2 -24 7 -52 20 -29 14 -58 25 -63 25 -6 0 -44 45 -85 100 -41 56 -82 108 -92 117 -38 34 -27 1 31 -93 42 -68 57 -100 47 -102 -17 -4 -489 259 -606 336 -84 56 -86 58 -129 150 -25 50 -48 92 -53 92 -11 0 -10 -37 1 -78 9 -28 8 -31 -7 -23 -9 5 -28 21 -41 35 -14 15 -31 24 -41 21 -11 -3 -25 11 -47 47 -17 29 -34 63 -38 76 -4 14 -12 21 -20 18 -7 -2 -21 6 -29 19 -30 45 -168 205 -177 205 -32 0 20 -86 153 -253 82 -103 101 -145 51 -109 -16 11 -64 48 -107 81 -138 107 -108 48 56 -109 l109 -105 69 -275 c65 -257 69 -276 52 -288 -19 -15 -270 -172 -274 -172 -2 0 1 68 5 150 l8 151 55 72 c74 99 73 130 -2 57 l-56 -55 7 73 c7 84 -4 282 -16 282 -14 0 -18 -35 -26 -219 l-8 -174 -53 -45 -53 -45 21 47 c36 85 20 114 -20 36 -11 -21 -43 -66 -70 -100 l-51 -61 -507 -254 c-279 -140 -651 -329 -827 -420 -435 -223 -684 -328 -953 -401 -167 -45 -136 -60 47 -24 195 39 429 118 719 242 157 67 734 355 1075 536 114 60 207 109 207 107 0 -2 -60 -53 -133 -113 -73 -61 -221 -188 -328 -282 -201 -179 -314 -260 -484 -351 -172 -92 -52 -72 140 23 136 68 200 112 410 284 242 198 342 285 523 458 84 80 157 146 162 146 5 0 46 30 90 66 l81 65 -3 -137 -3 -138 -34 -20 c-25 -14 -36 -16 -39 -8 -6 20 -20 14 -85 -36 -34 -26 -158 -107 -275 -180 -116 -73 -296 -191 -398 -263 -103 -72 -259 -170 -348 -219 -88 -48 -225 -126 -303 -173 -159 -97 -202 -112 -493 -172 -96 -20 -300 -68 -452 -106 -152 -38 -290 -69 -306 -69 l-30 0 -6 78 c-6 63 -33 284 -39 315 -1 5 25 19 58 31 230 88 993 425 1250 551 268 132 634 344 608 352 -6 2 -111 -48 -234 -111 -229 -117 -276 -139 -794 -366 -165 -72 -431 -192 -591 -266 -160 -74 -295 -134 -300 -134 -6 0 -16 28 -23 62 -21 102 -79 286 -125 395 l-43 101 43 11 c38 10 49 9 85 -9 l40 -21 -3 32 c-3 32 -2 33 57 51 41 12 93 18 164 18 57 0 102 -2 99 -5 -2 -3 -33 -11 -68 -18 -35 -7 -65 -18 -68 -25 -8 -26 232 -7 348 29 19 5 94 14 165 19 80 5 155 17 195 29 35 11 65 19 66 18 3 -3 -340 -163 -381 -178 -50 -18 -119 -28 -202 -30 -43 -1 -87 -5 -98 -9 -32 -12 47 -33 149 -39 l88 -6 -163 -83 c-206 -104 -201 -101 -194 -111 6 -11 93 15 200 59 44 19 206 98 360 176 154 78 399 194 545 259 480 211 782 370 980 514 85 62 224 194 219 208 -2 7 -38 -14 -84 -49 -141 -107 -266 -184 -430 -266 -275 -136 -381 -177 -590 -226 -105 -24 -306 -76 -449 -115 l-258 -71 -117 7 -116 8 73 29 c40 15 72 30 70 32 -2 1 -48 -8 -102 -22 -54 -14 -100 -23 -102 -21 -2 2 103 56 234 120 130 64 305 153 387 198 l150 81 310 84 c351 96 656 185 731 215 28 11 64 34 80 50 l29 30 -55 -25 c-30 -14 -165 -52 -300 -85 -135 -32 -398 -101 -585 -151 -539 -147 -533 -145 -722 -176 -18 -3 -33 -10 -33 -16 0 -15 212 -3 300 17 36 8 69 14 75 15 5 0 -158 -83 -364 -185 l-373 -185 -77 0 c-42 1 -122 5 -178 9 l-101 9 -97 101 c-54 56 -126 124 -161 152 -57 47 -64 56 -69 98 -22 166 -98 473 -126 507 -18 22 -118 312 -133 386 -18 88 -21 274 -5 331 7 27 21 44 49 62 22 14 44 33 49 43 12 22 0 217 -23 386 -21 156 -11 197 114 466 106 227 132 291 180 435 23 72 50 138 58 148 17 20 24 144 9 154 -5 3 -17 -4 -26 -15 -19 -25 -61 -20 -61 7 0 19 64 132 115 203 123 170 170 329 169 570 0 120 2 135 16 128 19 -10 167 -40 370 -75 425 -74 856 -213 1205 -390 255 -129 426 -238 815 -520 636 -461 1134 -747 1421 -814 36 -9 65 -20 65 -25 -1 -6 -44 -39 -96 -74 -351 -238 -683 -486 -688 -515 -8 -40 60 -10 260 117 73 47 175 114 227 150 61 42 99 62 106 56 7 -6 44 19 105 72 52 44 191 151 307 239 226 169 383 301 366 306 -6 2 -42 -15 -80 -38 l-68 -41 157 153 c86 85 224 224 307 309 l152 155 -47 -80 c-96 -164 -178 -336 -164 -345 9 -6 3 -22 -24 -64 -41 -63 -116 -210 -116 -226 0 -25 21 -5 50 48 38 67 242 374 246 369 2 -1 -13 -52 -32 -112 -61 -194 -86 -294 -76 -310 6 -11 41 74 120 287 62 167 120 319 128 338 9 19 81 130 161 248 104 153 149 212 161 210 25 -5 22 -28 -42 -286 -67 -272 -153 -672 -157 -722 -5 -88 12 -127 24 -52 4 20 27 114 53 208 39 145 49 171 64 167 13 -3 32 24 84 119 37 68 65 114 62 103 -3 -11 -23 -84 -46 -162 -43 -153 -58 -233 -43 -233 5 0 18 30 30 68 12 37 66 198 121 357 88 257 117 324 244 585 79 162 160 315 179 340 19 25 124 188 233 363 109 174 200 316 202 314 2 -2 -64 -169 -147 -372 -169 -416 -426 -1076 -457 -1175 -27 -82 -45 -187 -36 -201 9 -16 19 3 50 102 14 46 86 225 160 398 117 272 139 318 173 350 66 60 573 805 1111 1631 131 201 540 851 595 946 12 21 76 70 189 145 180 119 461 300 486 313 8 4 -54 -59 -138 -140 -157 -151 -299 -307 -412 -452 -35 -45 -68 -82 -74 -82 -13 0 -44 -37 -168 -201 -183 -241 -334 -476 -758 -1179 -361 -598 -367 -608 -634 -1076 -223 -393 -270 -491 -264 -567 l3 -42 29 75 c36 94 46 112 230 410 l151 245 6 -43 c8 -60 29 -79 29 -26 1 36 21 150 31 170 31 62 255 421 261 418 15 -10 140 135 585 677 63 76 141 159 177 187 l65 51 -32 -67 c-17 -37 -64 -134 -105 -217 -41 -82 -83 -172 -94 -200 -25 -60 -28 -159 -7 -195 13 -24 14 -21 20 50 8 93 10 98 174 394 73 133 160 289 192 348 53 98 78 128 303 370 135 145 308 332 384 416 77 83 141 152 143 152 3 0 -9 -24 -25 -52 -97 -174 -284 -532 -425 -813 -91 -182 -122 -233 -232 -380 -70 -93 -152 -213 -183 -265 -31 -52 -133 -198 -227 -325 -374 -502 -400 -579 -47 -135 107 135 199 247 204 249 5 1 53 62 107 135 147 197 231 301 244 301 6 0 13 9 15 19 2 11 129 173 283 360 310 380 579 719 838 1056 95 124 184 239 197 255 l24 30 -19 -50 c-51 -134 -104 -263 -120 -290 -10 -16 -76 -102 -147 -191 -229 -286 -317 -422 -454 -699 -84 -172 -136 -302 -170 -430 -27 -101 -37 -214 -21 -243 20 -37 36 -26 38 27 5 144 196 555 396 856 73 108 177 248 183 243 2 -2 -39 -110 -90 -239 -128 -321 -332 -857 -340 -894 -11 -52 6 -12 164 370 113 272 161 379 185 405 45 49 413 579 698 1005 132 198 265 389 296 425 119 139 507 522 476 470 -5 -8 -61 -94 -124 -190 -379 -580 -940 -1465 -1015 -1601 -32 -59 -106 -238 -106 -256 0 -4 29 47 64 114 35 67 189 313 343 545 154 233 360 546 457 696 108 168 240 356 342 488 92 118 169 214 171 214 3 0 -16 -37 -40 -82 -121 -223 -518 -990 -665 -1283 -165 -329 -203 -417 -216 -487 -10 -53 8 -47 29 10 9 26 83 167 162 313 121 221 153 273 191 305 l45 37 -38 -59 c-63 -98 -103 -168 -110 -194 -3 -14 7 -3 23 25 17 28 70 107 119 177 82 118 152 191 298 308 10 8 0 -15 -23 -51 -48 -76 -82 -150 -86 -185 -2 -13 -32 -57 -68 -97 -130 -144 -181 -241 -232 -437 -34 -133 -43 -211 -11 -100 36 124 63 194 113 295 45 89 52 97 476 525 237 239 488 493 556 563 101 104 167 159 340 286 118 87 234 171 258 186 23 15 40 30 38 33 -8 8 -162 -95 -356 -237 -58 -43 160 186 292 306 243 222 411 331 650 424 49 19 88 40 88 47 0 8 23 12 80 12 l80 0 -76 -72z m275 65 c0 -5 -41 -42 -91 -83 -50 -41 -140 -122 -199 -179 -114 -108 -591 -610 -914 -961 -103 -113 -190 -207 -193 -210 -3 -3 -1 2 4 12 5 9 106 128 224 265 119 136 356 415 527 618 172 204 349 409 395 458 l83 87 83 0 c45 0 82 -3 81 -7z m-936 -87 c-139 -109 -383 -322 -702 -615 -140 -129 -250 -227 -245 -220 43 71 350 533 396 597 100 139 49 114 -75 -37 -74 -90 -251 -339 -412 -578 -85 -126 -149 -209 -221 -284 -99 -103 -162 -184 -152 -194 3 -3 29 16 59 42 29 27 49 41 44 33 -47 -81 -96 -138 -165 -191 -44 -34 -80 -64 -80 -67 0 -2 8 2 17 9 9 8 14 9 10 2 -4 -6 -26 -26 -50 -44 l-42 -33 29 32 c17 18 27 32 23 32 -4 0 92 147 212 328 120 180 342 514 493 742 151 228 288 429 304 446 24 26 42 33 99 43 57 9 395 34 533 40 32 1 27 -4 -75 -83z m-318 -452 c-531 -526 -591 -580 -825 -748 -8 -6 23 27 70 73 l85 83 -95 -78 c-52 -43 -104 -85 -114 -93 -16 -13 49 87 97 149 7 8 68 65 137 125 154 136 439 397 710 650 382 358 401 374 440 374 34 0 14 -20 -505 -535z m1728 520 l129 -6 -34 -35 c-18 -19 -77 -61 -130 -94 -158 -97 -291 -201 -598 -465 l-45 -39 50 70 c28 39 133 186 234 328 l183 258 42 -5 c22 -3 99 -8 169 -12z m-2009 -75 c-4 -7 -45 -64 -92 -128 -81 -111 -662 -982 -905 -1356 -82 -127 -132 -193 -168 -225 l-52 -44 28 51 c16 28 33 49 37 47 4 -3 8 2 8 11 0 23 53 126 230 445 87 157 230 418 318 580 172 319 181 330 262 330 19 0 42 5 50 10 23 16 -15 40 -62 40 -21 0 -38 3 -38 6 0 4 18 39 40 80 l41 73 102 31 c56 17 120 37 142 45 51 17 68 18 59 4z m-573 -235 c-53 -76 -69 -91 -151 -142 -50 -31 -128 -86 -172 -120 -44 -35 -77 -58 -73 -50 5 7 50 79 102 159 l93 147 128 45 c70 25 128 46 130 46 2 1 -24 -38 -57 -85z m-271 -39 c0 -3 -64 -96 -142 -207 -123 -177 -165 -227 -320 -387 -185 -190 -327 -348 -502 -557 -55 -67 -102 -121 -103 -120 -3 3 124 322 143 357 17 33 372 500 516 679 88 108 119 140 161 162 29 15 45 28 37 28 -10 1 -11 3 -3 6 7 3 21 1 32 -5 15 -9 35 -5 93 18 77 31 88 34 88 26z m4316 -86 c46 -33 84 -62 84 -63 0 -2 -17 -15 -38 -28 l-38 -25 -73 43 c-41 24 -96 51 -122 60 -27 10 -49 21 -49 25 0 3 33 15 73 26 39 11 74 21 75 22 2 0 42 -26 88 -60z m-4849 -186 c-51 -60 -128 -151 -172 -203 -43 -52 -83 -99 -87 -105 -10 -10 7 33 61 164 17 41 29 77 26 80 -4 3 -10 -1 -15 -9 -10 -15 -91 -194 -128 -280 -11 -26 -218 -294 -483 -625 -255 -319 -522 -656 -594 -749 -71 -93 -138 -178 -147 -190 -10 -12 31 67 90 174 60 107 187 340 282 518 l174 323 169 192 c93 106 258 297 367 426 l197 234 164 78 c90 42 170 78 177 78 7 1 -29 -47 -81 -106z m-618 -346 c-96 -107 -175 -193 -177 -191 -5 3 137 260 156 284 17 20 183 112 190 105 3 -2 -74 -91 -169 -198z m-151 11 c-36 -56 -180 -302 -229 -391 -46 -85 -88 -137 -293 -365 -131 -147 -315 -355 -409 -462 -231 -264 -251 -279 -67 -50 133 166 348 444 640 830 156 206 299 394 317 418 36 44 66 59 41 20z m-170 -95 c-30 -36 -408 -493 -546 -661 -78 -95 -142 -171 -142 -168 0 9 133 252 195 356 35 58 97 152 138 210 l75 105 143 88 c79 48 145 87 148 87 2 0 -3 -8 -11 -17z m1886 -185 c-43 -46 -159 -168 -258 -273 -98 -104 -199 -210 -224 -235 l-44 -45 37 60 c70 112 228 327 259 351 47 37 300 223 305 223 2 1 -32 -36 -75 -81z m-2480 -325 c-51 -78 -144 -242 -251 -445 l-121 -227 -229 -288 c-126 -158 -321 -407 -432 -553 -112 -146 -210 -272 -218 -280 -16 -16 564 876 740 1140 140 210 308 436 426 573 90 105 121 134 85 80z m-835 -117 c18 -73 20 -91 9 -101 -55 -50 -258 -203 -262 -197 -6 10 218 402 225 394 3 -4 16 -47 28 -96z m1973 -43 c-54 -82 -179 -274 -277 -428 -98 -154 -182 -284 -187 -290 -10 -11 -2 10 86 229 30 76 61 148 69 160 8 11 72 89 143 171 71 83 158 185 194 228 35 42 66 77 67 77 2 0 -41 -66 -95 -147z m-1738 -95 c-4 -7 -118 -175 -253 -373 -331 -486 -875 -1313 -1105 -1680 -104 -165 -193 -304 -198 -310 -12 -13 -16 -23 147 375 75 184 181 448 236 585 l100 250 116 145 c64 80 174 213 245 297 135 158 394 433 408 433 5 0 -31 -55 -79 -122 -143 -201 -627 -927 -768 -1153 -141 -227 -163 -266 -163 -290 0 -18 16 -20 23 -2 2 6 84 124 182 261 143 201 986 1454 1021 1518 7 13 80 75 92 77 2 1 0 -5 -4 -11z m-193 -147 c-12 -16 -42 -41 -69 -57 -87 -50 -216 -157 -366 -304 -139 -136 -146 -142 -116 -90 42 73 49 79 164 173 95 77 398 307 404 307 2 0 -6 -13 -17 -29z m-1108 -827 c-33 -48 -159 -213 -163 -213 -3 -1 -22 47 -43 107 l-37 107 25 189 c14 104 25 194 25 200 1 6 46 -77 101 -184 58 -113 96 -200 92 -206z m260 71 c-28 -63 -63 -123 -88 -152 l-42 -48 -23 44 -22 44 108 108 c60 60 110 109 111 109 1 0 -19 -47 -44 -105z m-771 -490 l-4 -290 -20 45 c-25 58 -26 77 -32 395 l-5 270 32 -65 33 -65 -4 -290z m594 305 c24 -36 25 -42 12 -58 -8 -9 -61 -73 -118 -142 -58 -69 -119 -142 -137 -162 l-32 -37 -27 34 c-30 40 -27 54 21 110 33 39 35 39 49 20 19 -27 31 -13 18 22 -11 32 -19 19 112 170 39 46 72 83 73 83 2 0 15 -18 29 -40z m-416 -397 c0 -62 4 -113 9 -113 5 0 12 41 16 91 l7 91 45 -45 c53 -53 63 -29 -87 -210 -102 -123 -129 -143 -111 -80 10 34 0 60 -19 48 -9 -6 -11 33 -6 176 4 101 9 221 12 266 l6 82 64 -96 64 -96 0 -114z m-187 -708 c-70 -139 -128 -253 -130 -252 -1 2 19 73 45 158 l48 155 79 97 c44 53 81 97 82 97 2 0 -54 -115 -124 -255z m-233 -386 c-48 -149 -98 -277 -148 -384 -41 -88 -106 -227 -143 -310 -38 -82 -69 -148 -69 -145 0 3 47 198 104 432 l103 427 98 116 c85 100 100 114 112 102 13 -12 5 -45 -57 -238z m-2253 -3308 c23 -58 42 -113 42 -121 1 -15 -117 -95 -126 -86 -5 4 -113 425 -113 439 0 4 35 -22 78 -59 75 -65 78 -70 119 -173z m1263 -655 c47 -39 88 -75 92 -81 4 -5 8 -33 8 -62 0 -38 5 -57 19 -70 19 -19 30 -92 36 -243 4 -84 61 -479 71 -489 3 -3 3 64 -1 150 -5 107 -4 163 4 175 10 18 10 18 11 1 0 -18 46 -66 64 -67 20 0 -9 59 -51 102 l-45 46 -14 133 c-8 73 -12 134 -10 136 2 2 15 -6 28 -19 20 -19 33 -54 63 -183 57 -241 227 -879 306 -1150 67 -228 96 -306 119 -320 13 -8 13 11 -1 36 -5 11 -39 142 -74 292 -53 224 -198 787 -319 1235 -17 63 -21 92 -13 91 17 0 131 -73 225 -142 78 -57 80 -59 86 -109 4 -28 11 -59 16 -67 4 -9 25 -97 45 -196 36 -179 160 -709 210 -900 103 -394 131 -492 166 -582 56 -144 75 -152 38 -16 -16 59 -47 194 -70 298 -69 324 -156 695 -250 1069 -49 197 -88 363 -86 369 3 11 130 -99 280 -242 l88 -85 -32 -16 c-20 -11 -28 -20 -20 -24 6 -4 21 0 33 8 33 24 38 20 38 -27 0 -35 6 -49 30 -72 l30 -29 -6 50 -7 49 109 -106 c60 -58 187 -176 282 -263 135 -124 172 -163 172 -183 0 -14 6 -39 14 -56 8 -18 22 -86 31 -152 48 -359 258 -1482 315 -1693 37 -134 79 -184 53 -64 -8 37 -30 168 -49 292 -66 425 -144 872 -240 1369 -25 128 -44 235 -42 236 3 2 186 -192 322 -341 l58 -64 3 -168 c4 -180 17 -326 70 -777 37 -311 76 -598 101 -734 14 -78 60 -191 84 -206 14 -9 13 1 -10 74 -13 39 -27 133 -36 235 -24 274 -61 624 -108 1021 -24 204 -47 402 -51 440 l-6 70 60 -59 c56 -56 60 -62 66 -120 37 -341 206 -1416 245 -1561 21 -75 62 -175 81 -197 19 -21 20 -21 15 -3 -31 117 -61 288 -91 530 -20 160 -49 382 -66 495 -47 321 -99 663 -105 685 -4 16 -1 15 18 -7 13 -16 28 -28 33 -28 6 -1 36 -24 68 -53 l57 -53 11 -139 c5 -77 17 -198 25 -270 38 -340 158 -1097 194 -1232 22 -82 78 -213 91 -213 13 0 12 7 -16 122 -14 57 -41 234 -60 393 -36 292 -88 661 -149 1050 -18 116 -32 212 -30 214 1 2 94 -82 205 -185 112 -104 223 -207 247 -229 l43 -40 -25 -125 c-41 -200 -49 -334 -50 -783 l-1 -418 -22 258 c-12 142 -36 380 -53 528 -43 369 -60 538 -60 613 0 46 -3 63 -12 60 -42 -14 -35 -375 16 -818 70 -601 101 -760 160 -809 9 -8 16 -19 16 -25 0 -16 47 -72 54 -65 4 3 -1 35 -10 70 -14 55 -16 97 -10 304 7 210 21 411 25 348 4 -73 24 -124 57 -149 67 -52 117 -26 140 72 16 68 20 434 5 434 -11 0 -18 -45 -26 -170 -8 -121 -22 -226 -36 -268 -10 -30 -14 -33 -37 -27 -15 4 -32 11 -39 16 -6 6 -25 67 -42 137 -29 118 -31 141 -31 307 0 166 13 388 25 443 5 22 7 21 55 -20 45 -39 50 -47 50 -84 0 -41 3 -44 64 -72 5 -3 6 7 2 22 -3 14 -4 26 -1 26 3 0 78 -63 168 -141 108 -94 163 -148 165 -164 2 -13 12 -31 23 -41 18 -16 19 -16 19 5 0 23 -8 29 237 -183 l91 -78 12 -82 c8 -51 14 -219 15 -451 1 -203 8 -494 15 -646 7 -152 11 -297 9 -322 -2 -26 -1 -48 3 -49 4 -2 12 -70 18 -152 6 -82 14 -154 17 -160 3 -6 -27 21 -68 59 -41 39 -113 103 -160 142 l-86 72 -6 303 c-3 167 -13 465 -23 663 -14 298 -15 391 -5 539 6 99 8 182 5 185 -17 18 -47 -122 -64 -304 -18 -201 -9 -740 20 -1179 6 -82 9 -151 7 -152 -2 -2 -18 7 -35 19 -46 31 -56 75 -102 432 -21 171 -70 517 -109 770 -64 424 -80 540 -99 729 -4 41 -12 71 -19 74 -16 5 -18 -265 -3 -419 34 -354 196 -1368 236 -1482 l15 -41 -23 21 c-65 58 -541 446 -893 727 -220 176 -469 377 -553 448 -85 70 -160 128 -167 128 -7 0 -15 -5 -17 -12 -6 -18 -214 177 -257 241 -20 31 -67 108 -104 171 -36 63 -89 142 -117 175 -29 33 -72 86 -97 118 -43 56 -44 58 -18 51 25 -6 26 -5 17 13 -16 28 -40 46 -55 40 -7 -3 -23 2 -34 12 -23 18 -165 230 -232 348 -25 43 -118 195 -207 338 -89 143 -167 278 -174 300 -11 35 -63 120 -275 450 -54 84 -114 182 -183 301 -23 40 -75 113 -117 164 -41 51 -72 96 -69 101 9 15 -16 49 -35 49 -19 0 -207 195 -230 238 -9 17 -9 56 -1 165 24 338 60 572 94 616 6 8 10 23 8 34 -5 25 2 21 108 -67z m306 -34 c26 -48 55 -99 66 -114 31 -44 21 -41 -54 17 -50 39 -83 75 -105 113 -18 32 -33 60 -33 64 0 7 59 16 72 11 3 -2 28 -43 54 -91z m414 -82 c46 -69 158 -228 249 -355 153 -214 177 -256 181 -317 0 -5 4 -8 9 -8 4 0 6 12 3 28 -3 18 -1 24 5 17 17 -17 113 -152 113 -159 0 -4 -40 28 -89 71 -61 54 -121 119 -187 208 -53 72 -152 200 -219 285 l-123 156 -16 89 c-10 50 -19 99 -23 110 -8 31 7 12 97 -125z m963 -495 c41 -60 111 -169 155 -241 138 -226 655 -1053 749 -1199 49 -77 129 -200 176 -272 48 -73 84 -133 81 -133 -5 0 -225 199 -236 215 -4 5 -8 30 -8 53 0 50 -22 54 -30 6 -5 -27 -11 -21 -111 111 -132 176 -136 184 -58 110 96 -91 118 -109 125 -102 4 3 -33 49 -81 101 -113 122 -125 141 -125 197 0 74 -12 140 -24 136 -6 -2 -13 -32 -16 -67 l-5 -63 -80 109 c-140 191 -465 625 -551 735 l-83 106 14 144 c8 79 15 153 15 164 0 24 2 22 93 -110z m-193 -373 c0 -46 0 -46 -18 -27 -11 11 -85 111 -165 222 -133 183 -147 205 -147 243 l0 42 165 -217 c159 -208 165 -218 165 -263z m280 -312 c118 -151 230 -295 249 -319 20 -25 -44 34 -141 130 -118 116 -178 183 -178 196 0 48 -26 73 -32 31 -2 -18 -16 -5 -71 71 -67 91 -69 95 -62 139 4 24 10 40 14 36 4 -5 104 -133 221 -284z m808 -121 c290 -502 945 -1561 1074 -1737 47 -64 45 -63 -103 68 -89 78 -119 112 -169 192 -45 73 -60 105 -60 134 0 37 0 37 20 19 38 -34 28 -10 -25 62 -29 39 -128 195 -220 345 -93 150 -267 423 -387 607 -165 253 -218 341 -218 365 0 17 -3 49 -7 71 -3 22 -3 38 0 35 3 -3 45 -75 95 -161z m13 -476 c62 -87 243 -332 402 -545 159 -214 287 -392 285 -397 -1 -5 -69 50 -151 122 l-147 132 -213 355 c-117 195 -232 385 -255 423 -23 37 -40 67 -38 67 2 0 54 -71 117 -157z m11698 -109 c-99 -227 -268 -554 -494 -954 -73 -129 -169 -305 -214 -390 -44 -85 -81 -150 -81 -143 0 29 32 157 55 219 25 68 48 111 237 449 52 94 149 274 216 401 66 127 146 273 177 325 61 100 146 221 152 215 2 -2 -19 -57 -48 -122z m-61 79 c-113 -122 -313 -456 -531 -888 -26 -49 -46 -87 -46 -84 -1 3 23 86 53 185 29 98 70 243 91 321 l39 143 140 127 c146 134 254 223 270 223 6 0 -2 -12 -16 -27z m-581 -530 c-55 -125 -184 -471 -252 -676 -50 -150 -64 -183 -69 -160 -8 43 -10 86 -3 103 3 8 10 31 15 50 5 19 52 154 104 300 53 146 105 294 117 330 19 54 30 71 69 101 26 20 48 35 50 34 2 -2 -12 -39 -31 -82z m-146 -90 c-10 -27 -51 -140 -92 -253 -50 -142 -81 -214 -100 -235 -45 -48 -68 -112 -69 -185 l-1 -65 -82 -85 -83 -85 47 130 c25 72 63 168 84 215 20 47 77 186 125 310 85 217 90 226 135 263 26 20 49 37 51 37 2 0 -5 -21 -15 -47z m-9551 -175 c72 -97 101 -146 135 -228 23 -58 41 -107 38 -110 -3 -3 -35 27 -71 65 -53 56 -75 89 -106 160 -21 50 -53 125 -72 168 -18 43 -30 76 -25 73 5 -3 50 -61 101 -128z m-222 -118 c81 -110 216 -272 261 -314 56 -53 33 -6 -51 102 -109 144 -110 144 -47 86 29 -28 113 -102 184 -165 72 -63 131 -116 133 -119 43 -85 121 -216 143 -241 26 -29 23 -20 -21 64 -28 53 -50 101 -48 106 2 5 90 -68 197 -162 183 -160 205 -183 389 -411 107 -132 217 -266 244 -296 27 -30 44 -56 38 -58 -11 -4 -360 174 -540 276 -127 72 -177 109 -390 291 -166 143 -158 134 -209 226 -62 113 -375 731 -364 720 6 -5 42 -53 81 -105z m10537 -21 c-14 -57 -39 -165 -56 -239 -32 -142 -45 -172 -136 -303 -30 -43 -70 -104 -89 -135 -27 -44 -33 -50 -28 -27 32 144 59 225 101 311 28 54 90 190 138 302 49 111 90 201 92 199 2 -2 -8 -51 -22 -108z m-9605 -461 c168 -135 312 -254 322 -264 9 -11 76 -100 148 -199 73 -99 137 -187 144 -195 24 -32 -58 30 -336 253 l-286 230 -179 230 c-98 127 -180 236 -182 242 -2 5 12 -4 30 -21 19 -17 171 -142 339 -276z m7865 -155 c-129 -258 -217 -488 -346 -908 -99 -320 -125 -383 -210 -510 -61 -92 -285 -342 -296 -331 -3 2 11 40 30 83 20 43 60 141 90 219 30 78 110 252 177 388 66 136 120 252 118 258 -2 6 -32 -36 -67 -93 -46 -77 -61 -95 -56 -70 6 26 4 32 -6 29 -8 -2 -48 -83 -90 -179 -41 -97 -132 -281 -201 -410 -69 -129 -137 -256 -151 -284 -14 -27 -38 -60 -55 -72 -28 -21 -320 -344 -501 -555 l-82 -96 -212 -123 c-117 -67 -308 -185 -426 -262 -202 -132 -225 -144 -380 -202 -91 -35 -206 -81 -254 -104 l-88 -40 44 57 c122 159 217 326 342 597 53 116 112 255 131 311 34 102 52 221 40 268 -8 32 -26 34 -26 3 0 -67 -70 -229 -211 -493 -56 -104 -136 -259 -179 -344 -43 -85 -118 -222 -168 -304 l-90 -149 -298 -98 c-165 -54 -307 -99 -316 -99 -28 0 -10 29 31 50 20 10 79 54 132 98 311 258 542 661 614 1071 46 261 18 514 -66 596 l-31 30 6 -35 c56 -309 -50 -724 -296 -1165 -34 -60 -84 -144 -111 -185 -94 -140 -231 -303 -189 -223 40 75 71 388 72 730 0 107 2 115 44 225 76 198 106 335 106 490 0 185 -28 211 -47 44 -16 -140 -28 -200 -66 -316 l-31 -95 -8 195 c-6 169 -21 322 -44 450 l-6 36 104 13 c396 49 944 187 1359 342 403 151 760 333 1393 710 l39 23 -7 -40 c-39 -214 -93 -394 -216 -708 -43 -111 -110 -293 -150 -406 -40 -113 -85 -233 -101 -268 -40 -89 -109 -190 -169 -246 -27 -26 -50 -49 -50 -51 0 -12 44 -3 79 14 47 25 155 140 199 214 42 69 108 217 205 457 173 430 247 702 264 969 l6 103 81 51 c217 137 502 340 598 427 23 21 46 39 50 40 3 0 -22 -57 -57 -127z m-8245 -433 c69 -51 128 -96 132 -99 9 -8 31 -208 47 -416 6 -77 20 -259 32 -405 11 -146 36 -399 55 -562 18 -164 34 -325 34 -359 0 -53 2 -60 15 -49 33 27 37 85 26 339 -27 596 -84 1164 -137 1375 -6 25 8 18 141 -73 82 -56 170 -107 198 -117 71 -23 332 -128 431 -173 44 -21 140 -71 211 -111 72 -40 160 -90 198 -111 207 -116 609 -220 906 -235 64 -3 179 -17 256 -29 472 -79 919 -111 1410 -101 171 3 320 9 332 12 41 11 41 -68 3 -786 -5 -96 -12 -321 -16 -500 -3 -179 -10 -342 -15 -362 -7 -25 -26 -51 -62 -83 -51 -45 -51 -46 -16 -32 130 53 177 126 361 563 l33 79 8 -135 c8 -153 2 -321 -19 -460 -13 -92 -15 -96 -56 -133 -24 -22 -58 -45 -75 -53 -36 -16 -44 -44 -13 -44 34 0 22 -19 -17 -29 -102 -27 -306 -33 -843 -27 -477 6 -725 16 -1125 42 -99 7 -99 7 -60 20 22 8 49 19 60 25 14 9 20 9 23 0 7 -21 30 -11 51 22 33 54 119 523 156 852 18 160 31 467 21 519 -15 76 -31 32 -54 -148 -12 -98 -42 -309 -67 -469 -24 -161 -54 -384 -66 -497 -12 -113 -27 -210 -33 -217 -6 -6 -46 -15 -90 -18 l-78 -8 6 49 c26 211 56 780 56 1070 0 257 -7 344 -26 344 -8 0 -14 -6 -14 -12 0 -7 -9 -173 -20 -368 -11 -195 -25 -519 -32 -718 l-12 -364 -80 7 c-153 12 -272 36 -516 101 -135 37 -246 68 -248 69 -2 1 6 96 17 211 50 507 69 900 53 1084 -14 155 -19 180 -38 180 -11 0 -14 -18 -14 -77 0 -77 -3 -129 -35 -603 -9 -129 -20 -356 -25 -504 -5 -147 -11 -270 -13 -273 -7 -6 -300 76 -471 132 -99 32 -163 60 -234 103 -53 32 -131 78 -172 101 -113 64 -134 82 -164 135 -36 64 -260 385 -334 478 -106 133 -97 97 -96 393 0 143 6 402 14 575 14 342 5 625 -26 785 -8 44 -18 109 -21 145 -5 55 -4 63 8 54 8 -6 70 -53 139 -104z m920 -134 c150 -98 222 -156 325 -260 50 -50 119 -111 153 -136 34 -24 60 -45 58 -47 -7 -7 -307 101 -381 137 -68 33 -90 51 -147 117 -67 78 -288 368 -288 378 0 3 39 -23 88 -58 48 -34 134 -93 192 -131z m3647 -1003 c4 -27 8 -235 8 -463 l0 -415 -39 -95 c-22 -52 -77 -194 -123 -315 -72 -189 -83 -212 -78 -165 13 142 36 501 46 750 12 286 7 468 -15 630 -7 52 -13 96 -12 97 1 1 42 6 91 11 50 5 95 10 102 11 7 0 15 -19 20 -46z"
         id="path1005" />
      <path
         d="M18591 20213 c137 -252 545 -943 555 -943 6 0 2 8 -91 175 -69 125 -402 700 -461 797 -47 77 -49 55 -3 -29z"
         id="path1007" />
      <path
         d="M18840 20095 c0 -17 94 -185 248 -444 209 -353 311 -513 322 -506 5 3 12 0 16 -6 4 -8 3 -9 -4 -5 -7 4 -12 2 -12 -3 0 -6 9 -16 20 -23 11 -7 45 -56 75 -108 52 -93 105 -171 105 -157 0 23 -371 740 -537 1036 -62 111 -94 145 -68 71 14 -40 154 -324 200 -405 54 -96 116 -215 112 -215 -3 0 -31 46 -63 103 -63 111 -336 569 -375 629 -21 33 -39 48 -39 33z"
         id="path1009" />
      <path
         d="M19470 19705 c0 -30 -7 -31 -40 -5 -27 21 -50 26 -50 11 0 -6 22 -29 50 -53 27 -24 50 -48 50 -54 0 -21 143 -472 212 -669 66 -189 153 -393 163 -384 2 3 -13 56 -35 119 -21 63 -62 196 -90 295 -27 99 -79 270 -115 380 -35 109 -62 201 -60 203 2 2 26 -15 54 -38 33 -28 52 -53 57 -74 15 -71 177 -604 234 -771 56 -162 112 -294 95 -225 -35 149 -147 560 -199 734 -36 121 -64 221 -62 223 1 2 81 -62 177 -142 l174 -146 26 -302 c15 -166 34 -363 43 -437 16 -126 49 -270 62 -270 4 0 3 24 0 53 -3 28 -11 138 -16 242 -6 105 -19 293 -30 419 -12 126 -19 230 -18 232 2 1 60 -42 128 -98 123 -98 128 -105 283 -318 86 -120 157 -221 157 -225 0 -4 -56 46 -125 110 -131 123 -187 199 -200 270 -9 51 -14 58 -31 44 -11 -9 -16 -6 -25 15 -7 14 -18 26 -26 26 -18 0 -17 -3 13 -63 23 -45 29 -77 45 -242 36 -390 117 -906 158 -1005 9 -22 10 -20 10 22 2 108 -71 783 -105 978 -3 21 42 -55 117 -195 l122 -230 -27 -170 c-15 -93 -36 -237 -46 -320 -11 -82 -22 -160 -26 -172 -3 -13 -2 -23 3 -23 18 0 43 73 73 209 16 74 46 179 66 233 l37 97 79 -137 79 -137 -15 -130 c-22 -195 -30 -361 -17 -369 6 -4 11 -6 11 -4 0 2 11 64 24 138 13 74 28 168 31 208 4 39 12 72 17 72 5 0 7 12 4 28 -3 15 2 107 12 205 l17 178 56 -76 56 -76 -13 -39 c-25 -71 -35 -170 -45 -439 -13 -367 -2 -591 31 -591 4 0 5 11 3 24 -3 13 0 80 6 147 7 68 16 284 21 479 6 195 13 363 16 373 4 13 38 -24 131 -145 69 -90 155 -205 190 -256 36 -51 68 -91 70 -88 12 12 -87 188 -182 325 -101 147 -130 192 -103 161 49 -56 248 -241 248 -231 0 7 -86 102 -191 212 -154 160 -225 244 -356 422 -90 122 -167 234 -170 250 -3 15 -11 26 -18 25 -7 -2 -42 37 -80 85 -37 50 -58 84 -47 78 12 -6 24 -15 27 -21 3 -5 20 -19 37 -31 l31 -23 -19 34 c-10 18 -67 76 -127 129 -59 54 -155 150 -213 214 -102 114 -132 138 -121 97 4 -16 -5 -12 -43 20 -53 45 -60 64 -60 176 0 66 -11 97 -28 80 -3 -4 -9 -43 -12 -88 l-5 -80 -195 161 c-187 155 -196 164 -210 213 -18 60 -40 76 -40 29 0 -17 -2 -31 -5 -31 -3 0 -30 18 -61 40 -44 33 -56 49 -66 85 -13 48 -38 61 -38 20z m1234 -1394 c-11 -103 -5 -110 -148 164 l-57 110 106 -110 106 -110 -7 -54z m209 -163 l55 -73 -18 -85 c-11 -46 -22 -113 -26 -149 l-7 -65 -70 139 -69 139 16 53 c26 82 46 124 55 119 5 -3 34 -38 64 -78z"
         id="path1011" />
      <path
         d="M21255 17650 c-23 -38 -4 -549 29 -767 36 -243 42 35 11 507 -16 242 -23 288 -40 260z"
         id="path1013" />
      <path
         d="M3420 16404 c-86 -41 -110 -60 -110 -85 0 -22 20 -36 29 -20 4 7 38 29 74 51 l67 38 65 -44 c36 -24 121 -71 188 -105 76 -38 109 -59 87 -55 -165 32 -356 47 -318 26 9 -6 61 -19 115 -30 119 -25 264 -63 358 -96 84 -29 544 -218 541 -222 -2 -1 -45 9 -97 23 -115 30 -371 81 -456 91 -118 13 -65 -12 125 -61 400 -101 578 -162 952 -324 211 -92 274 -125 457 -239 185 -115 327 -198 633 -371 41 -24 66 -40 55 -36 -11 4 -63 22 -115 40 -52 18 -194 71 -315 118 -490 189 -1375 503 -1798 637 -274 87 -368 103 -212 37 125 -53 602 -231 1017 -378 191 -68 346 -125 344 -126 -2 -2 -37 4 -79 13 -170 35 -105 3 213 -103 555 -186 1204 -382 1218 -369 4 4 -2 12 -12 18 -11 6 -52 41 -91 78 -61 56 -219 164 -450 308 -27 18 -47 32 -42 32 10 0 134 -64 175 -91 54 -35 36 -7 -45 72 -74 71 -177 147 -270 199 -24 13 -41 25 -39 28 6 6 232 -57 284 -79 52 -23 55 -7 5 24 -53 33 -84 44 -378 137 -240 76 -650 235 -685 265 -8 8 -42 23 -75 35 -33 13 -152 65 -264 117 -203 94 -543 240 -780 335 -69 27 -161 66 -204 86 l-80 36 34 12 34 12 -40 1 c-27 1 -66 -11 -115 -35z"
         id="path1015" />
      <path
         d="M3710 15680 c0 -29 193 -147 435 -267 94 -46 157 -81 140 -77 -76 17 -305 99 -455 162 -91 39 -167 68 -169 66 -18 -17 139 -110 327 -194 116 -52 495 -183 899 -311 125 -39 365 -127 534 -195 168 -68 358 -139 421 -158 127 -38 271 -70 290 -64 7 3 -37 22 -97 43 -152 53 -307 113 -325 126 -13 9 -12 10 3 5 42 -13 279 -66 357 -80 132 -22 266 -30 275 -16 4 6 5 13 3 16 -3 2 -47 11 -99 20 -185 31 -372 85 -956 274 -231 75 -307 105 -1113 448 -85 36 -220 99 -299 139 -142 72 -171 83 -171 63z"
         id="path1017" />
      <path
         d="M22465 15685 c-5 -2 -27 -6 -49 -10 l-39 -6 6 -51 c8 -65 39 -112 137 -209 85 -85 195 -148 274 -156 69 -8 173 6 198 27 20 16 23 28 23 82 -1 77 -26 130 -87 183 -100 85 -230 135 -368 140 -47 1 -89 1 -95 0z"
         id="path1019" />
      <path
         d="M3046 15551 c-8 -12 147 -82 331 -150 389 -144 1306 -456 1458 -496 76 -19 114 -18 55 2 -25 8 -157 57 -295 108 -237 88 -796 285 -1135 400 -85 29 -212 73 -282 98 -70 25 -130 42 -132 38z"
         id="path1021" />
      <path
         d="M21165 15538 c-2 -7 -11 -42 -20 -77 -21 -82 -57 -173 -145 -361 -39 -84 -84 -186 -100 -226 -48 -119 -139 -295 -180 -343 -55 -67 -85 -124 -119 -226 -45 -135 -56 -233 -56 -480 0 -206 2 -227 27 -327 50 -195 155 -430 274 -608 31 -47 81 -130 111 -185 134 -244 339 -451 509 -515 31 -11 97 -49 148 -84 306 -214 629 -345 928 -376 155 -17 377 0 415 32 23 19 1 25 -157 43 -194 22 -284 40 -411 81 -410 132 -878 432 -1222 781 l-78 79 -94 222 c-122 287 -179 445 -222 612 -44 175 -48 225 -29 335 8 50 25 164 36 255 l21 165 59 110 c112 212 300 650 300 701 0 13 11 69 25 126 24 98 33 226 19 262 -7 19 -33 21 -39 4z"
         id="path1023" />
      <path
         d="M17680 15285 c-52 -7 -126 -21 -165 -30 -252 -58 -1266 -386 -1457 -469 -119 -53 -210 -105 -216 -123 -6 -20 21 -15 100 16 41 16 199 68 353 116 357 110 703 224 1020 335 138 48 305 102 372 120 67 18 120 37 117 41 -6 10 -2 11 -124 -6z"
         id="path1025" />
      <path
         d="M18290 15182 c0 -19 498 -295 754 -417 130 -62 157 -71 141 -46 -17 29 -513 304 -748 416 -111 53 -147 64 -147 47z"
         id="path1027" />
      <path
         d="M3190 14974 c0 -9 162 -82 245 -109 99 -32 297 -82 710 -179 565 -132 790 -177 909 -183 124 -7 143 10 23 20 -40 4 -226 45 -412 91 -187 47 -506 124 -710 171 -455 106 -536 126 -649 165 -88 30 -116 35 -116 24z"
         id="path1029" />
      <path
         d="M20047 14903 c-8 -20 -12 -109 -12 -310 0 -245 -2 -280 -14 -270 -12 10 -14 9 -8 -5 29 -79 41 -220 56 -683 14 -399 19 -462 41 -512 10 -24 21 -43 25 -43 3 0 2 25 -1 55 -4 30 -7 65 -7 77 3 321 6 410 13 393 14 -31 88 -418 101 -527 14 -115 33 -132 45 -40 14 115 -27 401 -122 842 l-36 165 6 285 c3 157 9 302 12 324 11 65 -19 38 -37 -35 -23 -88 -29 -57 -32 148 -1 90 -5 163 -10 163 -4 0 -13 -12 -20 -27z"
         id="path1031" />
      <path
         d="M2760 14840 c0 -35 340 -139 1120 -345 118 -31 285 -77 370 -102 198 -58 678 -178 930 -233 173 -38 210 -43 331 -44 l137 -1 28 -45 c62 -101 236 -360 246 -366 17 -11 -76 156 -205 366 -144 234 -175 280 -187 280 -20 0 -8 -29 50 -124 l60 -97 -47 6 c-143 19 -240 41 -453 100 -129 36 -397 106 -595 155 -198 49 -405 105 -460 125 -55 20 -111 39 -125 42 -22 6 -24 4 -11 -10 7 -10 11 -17 7 -17 -9 0 -924 246 -1061 285 -135 39 -135 39 -135 25z"
         id="path1033" />
      <path
         d="M17245 14774 c-38 -2 -209 -8 -380 -14 -414 -14 -545 -32 -545 -74 0 -13 5 -14 28 -5 32 13 695 26 1805 35 416 4 757 11 757 15 0 5 -12 9 -27 9 -16 0 -125 8 -243 16 -199 14 -1200 27 -1395 18z"
         id="path1035" />
      <path
         d="M15714 14445 c-17 -8 -108 -34 -201 -59 -94 -25 -348 -100 -564 -167 -217 -67 -431 -131 -477 -143 -46 -12 -82 -26 -80 -31 5 -16 124 -5 223 20 133 34 759 226 923 284 154 55 192 72 211 95 16 19 7 19 -35 1z"
         id="path1037" />
      <path
         d="M3466 14401 c22 -21 239 -78 694 -182 537 -122 970 -212 1003 -207 21 3 -456 124 -743 189 -641 144 -935 209 -948 209 -10 0 -12 -3 -6 -9z"
         id="path1039" />
      <path
         d="M23085 14296 c-210 -41 -365 -148 -443 -305 -35 -71 -37 -80 -37 -175 0 -83 4 -112 24 -161 45 -112 181 -216 321 -246 97 -21 240 3 240 40 0 4 -34 14 -75 20 -79 13 -216 73 -291 129 -93 68 -125 217 -73 332 110 239 536 332 732 160 64 -57 91 -117 91 -210 1 -100 -33 -171 -121 -257 -35 -33 -63 -64 -63 -67 0 -14 50 -4 97 19 65 33 147 119 181 192 23 50 27 71 27 148 0 78 -4 98 -27 145 -51 103 -149 184 -268 221 -84 26 -225 33 -315 15z"
         id="path1041" />
      <path
         d="M11720 14285 c0 -37 301 -87 720 -119 680 -53 1339 -80 1579 -67 159 9 192 14 180 25 -2 2 -101 9 -219 15 -118 7 -258 16 -310 21 -347 35 -896 75 -1435 105 -148 9 -317 20 -375 25 -136 13 -140 13 -140 -5z"
         id="path1043" />
      <path
         d="M24217 14280 c-35 -28 -41 -53 -22 -89 15 -30 67 -66 78 -54 4 3 0 15 -8 27 -8 11 -15 24 -15 29 0 16 54 -4 82 -30 32 -30 58 -25 58 13 0 39 -30 84 -72 105 -47 24 -69 24 -101 -1z"
         id="path1045" />
      <path
         d="M10690 14229 c-179 -9 -539 -27 -800 -39 -511 -22 -1066 -51 -1435 -75 -584 -36 -1031 -67 -1045 -71 -13 -5 -13 -6 0 -14 20 -13 527 -12 810 0 736 33 2036 112 2470 151 260 23 593 59 599 65 9 9 -289 0 -599 -17z"
         id="path1047" />
      <path
         d="M17130 14180 c-413 -24 -729 -71 -1047 -156 -231 -61 -439 -140 -477 -183 -39 -43 19 -135 127 -203 29 -17 77 -54 107 -82 30 -27 89 -72 130 -99 41 -27 66 -47 55 -44 -52 16 -105 24 -105 17 0 -18 54 -62 116 -93 38 -19 80 -47 94 -62 l25 -28 -47 6 c-27 4 -48 4 -48 1 0 -3 7 -18 15 -34 16 -31 71 -56 206 -92 62 -17 76 -24 72 -38 -3 -13 9 -23 48 -39 28 -13 67 -25 85 -28 27 -4 32 -8 23 -19 -6 -7 -8 -17 -5 -23 12 -19 110 -31 254 -31 151 0 222 7 222 20 0 5 -31 13 -70 20 -94 16 -163 43 -149 57 16 16 -13 29 -272 127 -121 47 -223 86 -225 89 -2 2 -2 12 2 21 6 14 39 16 333 16 472 0 900 23 1023 55 47 12 51 11 79 -12 l29 -25 167 22 c232 29 376 65 397 98 3 5 -39 3 -92 -4 -53 -7 -182 -18 -287 -24 -104 -7 -217 -15 -250 -18 -33 -4 -312 -4 -620 -1 l-560 6 -135 45 c-74 25 -162 52 -195 59 -50 11 -55 14 -35 20 14 4 43 7 64 8 22 1 37 4 33 7 -3 3 -49 17 -103 30 -106 27 -229 78 -220 92 7 12 -52 55 -67 49 -22 -8 -187 76 -175 88 9 10 528 108 683 129 527 74 1051 106 1385 87 513 -30 828 -91 967 -186 48 -32 63 -32 63 3 0 93 -183 208 -434 272 -258 65 -806 102 -1186 80z"
         id="path1049" />
      <path
         d="M6415 14065 c76 -63 627 -367 705 -389 14 -4 -24 23 -85 60 -123 74 -630 354 -642 354 -4 -1 6 -12 22 -25z"
         id="path1051" />
      <path
         d="M6830 14084 c0 -3 27 -39 61 -80 l61 -75 -40 7 c-64 10 -61 -13 5 -32 84 -24 86 -34 6 -27 -48 4 -72 2 -77 -6 -10 -16 57 -42 124 -48 33 -2 66 -12 82 -24 23 -16 26 -16 21 -3 -5 14 0 15 35 9 23 -4 70 -15 104 -26 35 -11 90 -22 123 -25 l60 -5 -115 42 c-106 38 -168 57 -244 74 -15 3 -27 8 -24 10 2 2 75 -12 163 -31 182 -39 350 -67 367 -62 18 6 -158 54 -376 102 -108 23 -198 45 -199 47 -31 41 -129 159 -133 159 -2 0 -4 -3 -4 -6z"
         id="path1053" />
      <path
         d="M23215 14063 c-106 -19 -172 -50 -231 -110 -129 -129 -140 -229 -31 -282 37 -18 61 -21 178 -21 125 0 139 2 187 26 29 14 65 42 82 62 34 41 80 150 80 188 0 40 -38 99 -79 122 -52 28 -95 32 -186 15z"
         id="path1055" />
      <path
         d="M2656 14021 c-11 -18 40 -45 169 -91 139 -49 853 -228 1015 -254 241 -40 353 -51 375 -38 19 11 18 11 -7 12 -36 0 -493 93 -588 119 l-75 21 70 -5 c39 -3 184 -14 324 -25 224 -18 532 -27 520 -16 -15 14 -641 74 -1064 101 -135 9 -715 152 -715 177 0 11 -17 10 -24 -1z"
         id="path1057" />
      <path
         d="M6590 13705 c83 -121 316 -379 375 -415 27 -17 38 -19 55 -10 11 6 20 19 20 29 0 23 -67 119 -159 225 -99 116 -121 113 -31 -4 53 -69 112 -162 106 -167 -3 -3 -94 83 -202 191 -117 118 -183 179 -164 151z"
         id="path1059" />
      <path
         d="M7870 13743 c0 -13 69 -36 300 -96 203 -54 347 -84 356 -74 8 8 -164 62 -372 117 -205 53 -284 69 -284 53z"
         id="path1061" />
      <path
         d="M17640 13715 c-58 -7 -224 -18 -370 -24 -146 -7 -427 -23 -625 -36 -198 -14 -412 -25 -475 -25 -113 0 -162 -10 -124 -24 38 -15 288 -28 424 -22 296 13 885 57 1045 77 92 12 236 46 250 60 10 10 17 11 -125 -6z"
         id="path1063" />
      <path
         d="M5420 13684 c-36 -14 -171 -54 -300 -90 -129 -36 -337 -96 -462 -134 -146 -44 -288 -80 -400 -100 -95 -17 -299 -56 -453 -87 -208 -41 -310 -57 -397 -61 -119 -5 -149 -14 -80 -26 86 -14 229 -5 439 28 120 19 259 37 308 40 50 3 153 21 230 40 77 19 227 51 334 71 349 65 532 111 700 174 52 20 96 42 98 48 3 9 -8 9 -44 -3 -66 -20 -319 -81 -368 -89 -22 -3 41 23 140 58 170 60 275 106 320 141 28 22 10 19 -65 -10z"
         id="path1065" />
      <path
         d="M18939 13487 c-78 -65 -201 -196 -240 -256 -38 -59 -24 -74 32 -35 67 46 248 250 290 327 18 33 -16 18 -82 -36z"
         id="path1067" />
      <path
         d="M8642 13518 c3 -7 31 -18 64 -25 80 -16 382 -46 419 -41 46 5 -91 34 -275 58 -183 24 -213 25 -208 8z"
         id="path1069" />
      <path
         d="M18190 13340 c-85 -15 -213 -42 -285 -60 -141 -35 -206 -41 -645 -61 -146 -6 -323 -15 -394 -18 -85 -4 -131 -10 -133 -18 -10 -29 324 -35 712 -13 110 6 242 13 294 16 62 3 147 18 253 44 211 53 404 109 425 126 16 12 13 13 -27 13 -25 -1 -115 -13 -200 -29z"
         id="path1071" />
      <path
         d="M18425 13134 c-163 -114 -377 -197 -652 -255 -262 -54 -446 -50 -733 16 -58 13 -152 26 -210 30 -58 3 -127 8 -155 11 l-50 5 30 -26 c43 -37 257 -140 344 -165 201 -59 444 -83 602 -61 246 36 517 134 692 251 58 39 105 59 208 92 142 43 279 101 279 116 0 16 -206 -27 -308 -66 -7 -2 -2 12 12 33 21 31 35 75 23 75 -1 0 -38 -25 -82 -56z"
         id="path1073" />
      <path
         d="M18140 13135 c-133 -39 -476 -154 -613 -205 -57 -21 -74 -40 -38 -40 37 0 209 50 396 115 295 102 421 154 404 168 -2 2 -69 -15 -149 -38z"
         id="path1075" />
      <path
         d="M4475 12540 c-223 -91 -969 -411 -1026 -440 -45 -23 -51 -35 -13 -26 55 14 1163 495 1231 535 42 24 -14 4 -192 -69z"
         id="path1077" />
      <path
         d="M11557 12163 c-7 -12 73 -284 126 -428 137 -370 614 -1536 704 -1721 19 -39 46 -84 59 -100 l25 -29 -24 50 c-27 55 -69 164 -241 613 -64 167 -212 542 -330 835 -117 293 -232 586 -255 652 -42 120 -54 144 -64 128z"
         id="path1079" />
      <path
         d="M12684 11388 c7 -86 52 -222 106 -318 51 -88 599 -912 929 -1394 270 -394 248 -361 230 -351 -32 19 -298 212 -343 249 -56 46 -106 118 -106 153 0 13 -4 23 -10 23 -22 0 -10 -85 19 -135 31 -54 80 -97 396 -342 l190 -148 98 -140 c140 -200 268 -373 372 -500 90 -111 414 -448 448 -467 46 -24 19 12 -113 154 -160 172 -285 324 -417 508 -127 178 -218 314 -202 304 8 -4 122 -89 254 -187 398 -297 658 -460 885 -556 141 -59 160 -65 160 -52 0 6 -42 32 -92 57 -250 125 -383 214 -925 622 l-433 325 -72 106 c-256 378 -735 1074 -967 1405 -149 214 -290 426 -312 472 -23 45 -55 127 -71 181 l-29 98 5 -67z"
         id="path1081" />
      <path
         d="M20930 9968 c-19 -5 -231 -33 -470 -63 -581 -74 -1038 -141 -982 -144 37 -2 439 45 887 104 231 30 443 57 470 60 l50 6 -40 -26 c-66 -43 -233 -125 -256 -125 -11 0 -39 -11 -62 -24 -68 -39 -242 -89 -767 -217 -580 -142 -565 -139 -835 -178 -322 -46 -437 -55 -481 -36 -45 19 -55 19 -30 0 18 -13 6 -15 -110 -15 -148 0 -297 20 -375 50 -50 19 -52 19 -30 2 65 -51 213 -82 431 -88 96 -3 217 -12 268 -21 123 -21 174 -15 472 51 135 30 326 66 425 81 342 49 560 104 747 186 51 22 143 60 203 83 185 73 322 146 451 243 40 29 82 53 95 54 22 0 70 16 59 19 -25 6 -92 5 -120 -2z"
         id="path1083" />
      <path
         d="M13847 9857 c-32 -82 32 -242 150 -380 70 -80 124 -118 268 -187 146 -71 936 -410 1280 -550 138 -56 304 -128 370 -161 79 -38 141 -62 181 -68 34 -5 133 -32 220 -60 298 -96 644 -174 914 -207 174 -21 545 -31 554 -15 5 7 6 14 4 17 -3 2 -86 9 -184 14 -310 17 -601 67 -909 156 -88 25 -177 51 -198 56 -77 21 -27 17 87 -7 157 -34 386 -70 571 -92 220 -25 842 -26 1005 0 178 28 342 77 425 127 18 11 86 26 175 39 216 32 600 130 600 153 0 14 -38 9 -169 -22 -163 -38 -334 -65 -546 -87 -151 -16 -272 -17 -1098 -15 l-928 3 -342 65 c-359 68 -472 99 -682 189 -353 150 -578 335 -551 452 6 27 6 27 -9 9 -39 -50 -7 -143 78 -233 l51 -54 -49 20 c-575 230 -876 355 -931 386 -153 86 -301 278 -322 417 -5 37 -10 48 -15 35z m4543 -1373 c-84 -21 -261 -42 -405 -49 -140 -7 -482 8 -660 29 -104 13 -88 13 330 16 242 1 494 6 560 10 66 3 145 7 175 7 l55 1 -55 -14z"
         id="path1085" />
      <path
         d="M20218 9420 c-75 -40 -261 -111 -375 -144 -228 -66 -523 -117 -988 -171 -430 -50 -564 -66 -870 -106 -314 -41 -323 -41 -411 -14 -11 4 -4 -2 15 -13 l34 -19 -34 -6 c-306 -54 -609 -43 -824 28 -38 13 -72 21 -75 18 -9 -9 41 -42 98 -63 211 -80 450 -97 817 -57 182 20 244 23 295 15 142 -20 1245 46 1448 88 155 31 280 84 331 138 33 35 10 42 -41 12 -111 -63 -246 -89 -623 -116 -154 -11 -311 -22 -350 -25 -38 -2 63 15 225 40 570 85 838 145 1095 246 103 41 305 148 305 161 0 14 -34 8 -72 -12z"
         id="path1087" />
      <path
         d="M8784 11464 c11 -135 39 -284 132 -699 117 -522 210 -888 245 -964 32 -70 48 -78 25 -13 -8 22 -35 145 -61 274 -48 239 -133 629 -232 1053 -30 132 -63 282 -72 334 -10 58 -22 96 -30 99 -11 4 -13 -12 -7 -84z"
         id="path1089" />
      <path
         d="M9224 11156 c-4 -10 -4 -91 -1 -179 11 -303 147 -1400 183 -1469 16 -31 30 -39 19 -10 -3 9 -17 139 -31 287 -22 252 -90 876 -114 1045 -5 41 -15 131 -21 200 -10 122 -21 162 -35 126z"
         id="path1091" />
      <path
         d="M18996 8121 c-3 -4 -21 -87 -40 -182 -19 -96 -53 -237 -76 -314 -114 -389 -170 -589 -190 -677 -17 -75 -36 -121 -85 -210 -63 -112 -69 -152 -13 -87 27 31 29 32 23 9 -4 -14 -22 -58 -41 -99 -39 -84 -38 -81 -20 -81 19 0 86 77 118 136 15 27 47 111 72 186 44 130 55 152 232 439 193 312 335 571 321 585 -4 4 -14 1 -22 -7 -14 -15 -197 -296 -324 -502 -41 -65 -75 -116 -77 -114 -2 1 12 59 32 127 40 144 88 377 104 500 19 157 11 332 -14 291z"
         id="path1093" />
      <path
         d="M18861 7933 c-5 -10 -33 -79 -62 -153 -29 -74 -144 -319 -257 -545 -112 -225 -256 -522 -318 -660 -86 -187 -123 -258 -149 -282 -19 -18 -30 -35 -25 -38 17 -10 58 6 84 34 68 70 535 975 634 1227 51 129 117 341 124 398 4 34 -16 46 -31 19z"
         id="path1095" />
      <path
         d="M18226 7215 c-76 -155 -170 -352 -208 -437 -142 -312 -318 -718 -318 -733 0 -81 140 169 328 585 206 455 352 825 341 859 -2 5 -66 -118 -143 -274z"
         id="path1097" />
      <path
         d="M12817 8144 c-4 -4 -5 -136 -2 -293 3 -157 7 -609 10 -1005 2 -395 6 -721 9 -723 2 -3 11 9 20 25 33 64 39 202 40 862 1 651 -3 743 -40 1015 -14 105 -23 133 -37 119z"
         id="path1099" />
      <path
         d="M13284 7764 c14 -188 18 -584 7 -799 -6 -126 -14 -367 -17 -535 -6 -324 -12 -385 -45 -431 l-20 -29 20 0 c43 0 84 63 100 155 14 83 39 440 51 753 8 189 8 313 0 439 -15 236 -62 512 -89 521 -11 4 -12 -12 -7 -74z"
         id="path1101" />
      <path
         d="M14086 7488 c-3 -18 -8 -114 -11 -213 -3 -99 -11 -245 -16 -325 -10 -144 -30 -1191 -23 -1199 8 -9 17 11 35 75 37 132 62 573 63 1099 1 458 -6 584 -31 592 -7 3 -14 -9 -17 -29z"
         id="path1103" />
      <path
         d="M16099 7333 c-2 -13 -1 -26 36 -358 37 -331 78 -622 97 -687 6 -21 8 -63 5 -98 -4 -33 -5 -60 -2 -60 43 0 167 771 169 1047 1 90 -3 136 -11 144 -9 9 -14 7 -21 -12 -11 -26 -100 -708 -109 -827 -3 -40 -8 -71 -9 -69 -2 2 -9 62 -14 133 -28 338 -77 681 -111 767 -11 25 -28 37 -30 20z"
         id="path1105" />
      <path
         d="M15867 7158 c-5 -152 -11 -206 -56 -443 -28 -148 -67 -369 -86 -490 -53 -336 -61 -370 -99 -447 -20 -40 -34 -73 -32 -75 8 -8 80 86 103 134 31 67 89 326 158 701 67 371 81 500 66 625 -12 102 -28 167 -40 167 -5 0 -11 -78 -14 -172z"
         id="path1107" />
      <path
         d="M15502 6993 c-6 -132 -26 -345 -46 -503 -20 -151 -45 -378 -56 -505 -17 -184 -26 -241 -44 -287 -26 -63 -19 -73 19 -32 40 43 61 117 99 349 82 502 109 831 87 1039 -16 141 -21 166 -35 166 -9 0 -15 -66 -24 -227z"
         id="path1109" />
      <path
         d="M15130 7108 c0 -40 -5 -199 -11 -353 -13 -351 -17 -1137 -6 -1126 45 45 84 645 74 1141 -6 280 -19 410 -43 410 -11 0 -14 -18 -14 -72z"
         id="path1111" />
      <path
         d="M15180 22473 c0 -269 30 -737 66 -1032 15 -127 18 -141 35 -141 24 0 -2 563 -46 1010 -29 288 -34 320 -46 320 -5 0 -9 -69 -9 -157z"
         id="path1113" />
      <path
         d="M16960 22049 c-1 -36 240 -644 331 -836 45 -93 62 -99 34 -11 -70 213 -363 896 -365 847z"
         id="path1115" />
      <path
         d="M12129 21838 c0 -35 -2 -70 -4 -78 -5 -28 15 -665 30 -945 23 -421 49 -685 67 -685 17 0 -9 739 -47 1335 -14 209 -25 392 -25 408 0 15 -4 27 -10 27 -6 0 -10 -28 -11 -62z"
         id="path1117" />
      <path
         d="M11658 21853 c-6 -16 -15 -89 -20 -163 -13 -178 -4 -1290 12 -1446 19 -200 34 -287 49 -292 11 -4 13 9 8 69 -4 41 -11 410 -16 820 -6 411 -13 784 -16 830 -4 46 -2 112 3 147 9 65 0 82 -20 35z"
         id="path1119" />
      <path
         d="M11188 21548 c-19 -64 -15 -333 11 -618 36 -406 73 -660 135 -930 61 -261 83 -267 42 -13 -31 197 -51 361 -71 573 -18 188 -25 259 -61 560 -14 120 -25 271 -25 343 -1 70 -5 127 -9 127 -5 0 -15 -19 -22 -42z"
         id="path1121" />
      <path
         d="M19473 21194 c4 -16 13 -112 22 -214 8 -102 32 -318 51 -480 20 -162 39 -333 43 -379 7 -102 25 -118 35 -30 11 108 7 188 -24 458 -36 319 -76 578 -95 625 -19 46 -40 59 -32 20z"
         id="path1123" />
      <path
         d="M20510 20399 c0 -4 22 -53 49 -110 27 -57 84 -205 126 -329 72 -209 137 -391 280 -779 31 -85 72 -210 91 -279 33 -122 40 -140 48 -131 6 6 -19 143 -49 258 -64 254 -354 1046 -450 1229 -40 77 -95 158 -95 141z"
         id="path1125" />
      <path
         d="M9881 19745 c-2 -42 141 -558 225 -817 43 -131 64 -174 64 -128 0 69 -287 1007 -289 945z"
         id="path1127" />
    </g>
  </g>
</svg>
