<svg xmlns="http://www.w3.org/2000/svg" viewBox="0 0 500 500"><g id="freepik--background-complete--inject-140"><rect y="382.4" width="500" height="0.25" style="fill:#ebebeb"></rect><rect x="416.78" y="398.49" width="33.12" height="0.25" style="fill:#ebebeb"></rect><rect x="322.53" y="401.21" width="8.69" height="0.25" style="fill:#ebebeb"></rect><rect x="396.59" y="389.21" width="19.19" height="0.25" style="fill:#ebebeb"></rect><rect x="52.46" y="390.89" width="43.19" height="0.25" style="fill:#ebebeb"></rect><rect x="104.56" y="390.89" width="6.33" height="0.25" style="fill:#ebebeb"></rect><rect x="131.47" y="395.11" width="93.68" height="0.25" style="fill:#ebebeb"></rect><path d="M237,337.8H43.91a5.71,5.71,0,0,1-5.7-5.71V60.66A5.71,5.71,0,0,1,43.91,55H237a5.71,5.71,0,0,1,5.71,5.71V332.09A5.71,5.71,0,0,1,237,337.8ZM43.91,55.2a5.46,5.46,0,0,0-5.45,5.46V332.09a5.46,5.46,0,0,0,5.45,5.46H237a5.47,5.47,0,0,0,5.46-5.46V60.66A5.47,5.47,0,0,0,237,55.2Z" style="fill:#ebebeb"></path><path d="M453.31,337.8H260.21a5.72,5.72,0,0,1-5.71-5.71V60.66A5.72,5.72,0,0,1,260.21,55h193.1A5.71,5.71,0,0,1,459,60.66V332.09A5.71,5.71,0,0,1,453.31,337.8ZM260.21,55.2a5.47,5.47,0,0,0-5.46,5.46V332.09a5.47,5.47,0,0,0,5.46,5.46h193.1a5.47,5.47,0,0,0,5.46-5.46V60.66a5.47,5.47,0,0,0-5.46-5.46Z" style="fill:#ebebeb"></path><path d="M300.51,267H66.34a9,9,0,0,1-9.07-9.69l13.24-205a10.53,10.53,0,0,1,10.32-9.7H315a9,9,0,0,1,9.07,9.7l-13.24,205A10.52,10.52,0,0,1,300.51,267Z" style="fill:#ebebeb"></path><path d="M61.39,256,73.84,63.17a7.46,7.46,0,0,1,7.34-6.89h231.7a6.38,6.38,0,0,1,6.44,6.89L306.87,256a7.45,7.45,0,0,1-7.33,6.88H67.83A6.37,6.37,0,0,1,61.39,256Z" style="fill:#fafafa"></path><polygon points="165.83 184.67 94.44 184.67 101.92 63.58 173.31 63.58 165.83 184.67" style="fill:#f5f5f5"></polygon><polygon points="270.99 150.84 220.78 150.84 226.04 65.68 276.25 65.68 270.99 150.84" style="fill:#f5f5f5"></polygon><path d="M315,42.55H80.83a10.53,10.53,0,0,0-10.32,9.7H324.07A9,9,0,0,0,315,42.55Z" style="fill:#f5f5f5"></path><path d="M86.54,47.4A2.54,2.54,0,0,1,84,49.75a2.18,2.18,0,0,1-2.2-2.35,2.55,2.55,0,0,1,2.51-2.35A2.17,2.17,0,0,1,86.54,47.4Z" style="fill:#fff"></path><path d="M98,47.4a2.54,2.54,0,0,1-2.5,2.35,2.18,2.18,0,0,1-2.2-2.35,2.54,2.54,0,0,1,2.5-2.35A2.18,2.18,0,0,1,98,47.4Z" style="fill:#fff"></path><path d="M109.44,47.4a2.55,2.55,0,0,1-2.51,2.35,2.17,2.17,0,0,1-2.19-2.35,2.54,2.54,0,0,1,2.5-2.35A2.18,2.18,0,0,1,109.44,47.4Z" style="fill:#fff"></path><path d="M419.63,360.22h-290a11.14,11.14,0,0,1-11.22-12L134.83,94.36a13,13,0,0,1,12.77-12h290a11.14,11.14,0,0,1,11.22,12L432.4,348.22A13,13,0,0,1,419.63,360.22Z" style="fill:#f5f5f5"></path><path d="M123.54,346.69,139,107.89A9.24,9.24,0,0,1,148,99.36h286.9a7.9,7.9,0,0,1,8,8.53L427.5,346.69a9.23,9.23,0,0,1-9.08,8.53H131.51A7.89,7.89,0,0,1,123.54,346.69Z" style="fill:#fff"></path><polygon points="300.31 263.46 211.9 263.46 221.16 113.52 309.57 113.52 300.31 263.46" style="fill:#f5f5f5"></polygon><polygon points="375.12 316.19 312.95 316.19 319.47 210.74 381.63 210.74 375.12 316.19" style="fill:#f5f5f5"></polygon><path d="M437.57,82.36h-290a13,13,0,0,0-12.77,12h314A11.14,11.14,0,0,0,437.57,82.36Z" style="fill:#ebebeb"></path><path d="M154.68,88.36a3.14,3.14,0,0,1-3.09,2.91,2.7,2.7,0,0,1-2.73-2.91,3.16,3.16,0,0,1,3.1-2.91A2.69,2.69,0,0,1,154.68,88.36Z" style="fill:#fff"></path><path d="M168.86,88.36a3.15,3.15,0,0,1-3.1,2.91A2.69,2.69,0,0,1,163,88.36a3.15,3.15,0,0,1,3.09-2.91A2.71,2.71,0,0,1,168.86,88.36Z" style="fill:#fff"></path><path d="M183,88.36a3.14,3.14,0,0,1-3.1,2.91,2.69,2.69,0,0,1-2.72-2.91,3.15,3.15,0,0,1,3.1-2.91A2.7,2.7,0,0,1,183,88.36Z" style="fill:#fff"></path></g><g id="freepik--Shadow--inject-140"><ellipse id="freepik--path--inject-140" cx="250" cy="416.24" rx="193.89" ry="11.32" style="fill:#f5f5f5"></ellipse></g><g id="freepik--Screens--inject-140"><polygon points="425.81 191.57 369.89 191.57 375.75 96.71 431.68 96.71 425.81 191.57" style="fill:#407BFF"></polygon><polygon points="425.81 191.57 369.89 191.57 375.75 96.71 431.68 96.71 425.81 191.57" style="fill:#fff;opacity:0.7000000000000001"></polygon><polygon points="411.68 163.5 387.49 163.5 387.75 159.29 411.94 159.29 411.68 163.5" style="fill:#407BFF;opacity:0.30000000000000004"></polygon><polygon points="411.25 170.38 387.07 170.38 387.33 166.16 411.51 166.16 411.25 170.38" style="fill:#407BFF;opacity:0.30000000000000004"></polygon><ellipse cx="401.28" cy="136" rx="18.68" ry="17.56" transform="translate(18.51 317.69) rotate(-44.11)" style="fill:#407BFF"></ellipse><ellipse cx="401.28" cy="136" rx="13.48" ry="12.68" transform="translate(18.52 317.71) rotate(-44.12)" style="fill:#fff"></ellipse><polygon points="244.31 172.44 188.38 172.44 194.24 77.58 250.17 77.58 244.31 172.44" style="fill:#407BFF"></polygon><polygon points="244.31 172.44 188.38 172.44 194.24 77.58 250.17 77.58 244.31 172.44" style="fill:#fff;opacity:0.7000000000000001"></polygon><polygon points="241.76 123.78 196.94 123.78 199.34 85 244.16 85 241.76 123.78" style="fill:#fff"></polygon><polygon points="241.38 129.97 196.56 129.97 196.78 126.31 241.61 126.31 241.38 129.97" style="fill:#fff"></polygon><polygon points="218.54 136.85 196.13 136.85 196.36 133.18 218.77 133.18 218.54 136.85" style="fill:#fff"></polygon><polygon points="239.22 164.9 194.4 164.9 195.93 140.06 240.76 140.06 239.22 164.9" style="fill:#407BFF;opacity:0.30000000000000004"></polygon><polygon points="228.48 104.39 215.5 96.62 214.54 112.16 228.48 104.39" style="fill:#407BFF"></polygon><polygon points="338.68 209.63 282.75 209.63 288.61 114.77 344.54 114.77 338.68 209.63" style="fill:#407BFF"></polygon><polygon points="338.68 209.63 282.75 209.63 288.61 114.77 344.54 114.77 338.68 209.63" style="fill:#fff;opacity:0.7000000000000001"></polygon><polygon points="326.16 126.52 293.44 126.52 293.56 124.43 326.29 124.43 326.16 126.52" style="fill:#407BFF;opacity:0.30000000000000004"></polygon><polygon points="337.97 131.21 293.15 131.21 293.27 129.12 338.1 129.12 337.97 131.21" style="fill:#407BFF;opacity:0.30000000000000004"></polygon><polygon points="337.68 135.9 292.86 135.9 292.99 133.81 337.81 133.81 337.68 135.9" style="fill:#407BFF;opacity:0.30000000000000004"></polygon><polygon points="336.91 148.41 292.08 148.41 292.56 140.69 337.38 140.69 336.91 148.41" style="fill:#fff"></polygon><polygon points="336.25 159.09 291.42 159.09 291.9 151.37 336.73 151.37 336.25 159.09" style="fill:#fff"></polygon><polygon points="335.6 169.56 290.78 169.56 291.25 161.84 336.08 161.84 335.6 169.56" style="fill:#407BFF;opacity:0.30000000000000004"></polygon><polygon points="334.95 180.03 290.13 180.03 290.61 172.31 335.43 172.31 334.95 180.03" style="fill:#fff"></polygon><path d="M320.29,200.58h-18a5.42,5.42,0,0,1-5.46-5.82h0a6.3,6.3,0,0,1,6.18-5.82h18a5.42,5.42,0,0,1,5.46,5.82h0A6.29,6.29,0,0,1,320.29,200.58Z" style="fill:#407BFF"></path><polygon points="236.67 296.13 180.74 296.13 186.6 201.27 242.53 201.27 236.67 296.13" style="fill:#407BFF"></polygon><polygon points="236.67 296.13 180.74 296.13 186.6 201.27 242.53 201.27 236.67 296.13" style="fill:#fff;opacity:0.7000000000000001"></polygon><polygon points="210.98 225.91 190.67 225.91 191.91 205.86 212.22 205.86 210.98 225.91" style="fill:#fff"></polygon><polygon points="231.51 289.74 186.73 289.74 187.4 278.84 232.19 278.84 231.51 289.74" style="fill:#407BFF;opacity:0.30000000000000004"></polygon><polygon points="235.41 225.91 215.1 225.91 216.34 205.86 236.65 205.86 235.41 225.91" style="fill:#fff"></polygon><polygon points="209.49 250.09 189.18 250.09 190.41 230.04 210.72 230.04 209.49 250.09" style="fill:#fff"></polygon><polygon points="233.92 250.09 213.61 250.09 214.85 230.04 235.16 230.04 233.92 250.09" style="fill:#407BFF"></polygon><polygon points="207.99 274.26 187.68 274.26 188.92 254.21 209.23 254.21 207.99 274.26" style="fill:#407BFF;opacity:0.30000000000000004"></polygon><polygon points="232.43 274.26 212.12 274.26 213.36 254.21 233.67 254.21 232.43 274.26" style="fill:#fff"></polygon><polygon points="417.5 326.1 361.58 326.1 367.44 231.24 423.37 231.24 417.5 326.1" style="fill:#407BFF"></polygon><polygon points="417.5 326.1 361.58 326.1 367.44 231.24 423.37 231.24 417.5 326.1" style="fill:#fff;opacity:0.7000000000000001"></polygon><polygon points="412.62 307.95 368.71 307.95 372.8 241.63 416.71 241.63 412.62 307.95" style="fill:#fff"></polygon><polygon points="416.85 239.39 372.94 239.39 372.8 241.63 416.71 241.63 416.85 239.39" style="fill:#407BFF"></polygon><path d="M375.77,315.43a4,4,0,0,1-4,3.76,3.49,3.49,0,0,1-3.53-3.76,4.05,4.05,0,0,1,4-3.77A3.5,3.5,0,0,1,375.77,315.43Z" style="fill:#fff"></path><ellipse cx="385.76" cy="315.43" rx="3.88" ry="3.65" transform="translate(-110.76 357.5) rotate(-44.12)" style="fill:#fff"></ellipse><ellipse cx="399.51" cy="315.43" rx="3.88" ry="3.65" transform="matrix(0.72, -0.7, 0.7, 0.72, -106.89, 367.07)" style="fill:#407BFF;opacity:0.30000000000000004"></ellipse><g style="opacity:0.5"><path d="M240.13,240.3a.24.24,0,0,1-.24-.24.24.24,0,0,1,.24-.24h.48a.26.26,0,0,1,.25.24.25.25,0,0,1-.24.25Z" style="fill:#407BFF"></path><path d="M241.57,240.23a.25.25,0,0,1-.24-.22.24.24,0,0,1,.22-.26c.31,0,.62-.08.93-.14a.24.24,0,0,1,.28.2.24.24,0,0,1-.2.28c-.31.06-.64.1-1,.14Zm1.89-.34a.26.26,0,0,1-.24-.19.24.24,0,0,1,.18-.29c.3-.08.6-.17.89-.27a.24.24,0,0,1,.31.15.23.23,0,0,1-.15.31c-.31.1-.62.2-.93.28Zm1.81-.62a.23.23,0,0,1-.22-.14.23.23,0,0,1,.12-.32l.86-.4a.25.25,0,0,1,.33.11.24.24,0,0,1-.11.32c-.29.15-.59.29-.89.41A.15.15,0,0,1,245.27,239.27Zm1.71-.86a.24.24,0,0,1-.12-.45c.27-.16.54-.32.8-.5a.25.25,0,0,1,.34.07.24.24,0,0,1-.07.33c-.27.18-.55.36-.82.52A.31.31,0,0,1,247,238.41Zm1.6-1.06a.23.23,0,0,1-.2-.1.25.25,0,0,1,.05-.34c.25-.19.5-.38.75-.59a.25.25,0,0,1,.34,0,.26.26,0,0,1,0,.35c-.25.21-.51.41-.77.6A.24.24,0,0,1,248.58,237.35Zm1.47-1.23a.23.23,0,0,1-.17-.08.24.24,0,0,1,0-.34q.35-.31.69-.66a.25.25,0,0,1,.34,0,.24.24,0,0,1,0,.35l-.7.67A.27.27,0,0,1,250.05,236.12Zm1.37-1.35a.23.23,0,0,1-.17-.07.25.25,0,0,1,0-.34c.22-.23.43-.47.64-.71a.24.24,0,0,1,.34,0,.23.23,0,0,1,0,.34c-.22.25-.43.49-.65.72A.27.27,0,0,1,251.42,234.77Zm1.27-1.45a.3.3,0,0,1-.16,0,.25.25,0,0,1,0-.35l.6-.74a.23.23,0,0,1,.34,0,.25.25,0,0,1,0,.34c-.2.25-.4.51-.6.75A.25.25,0,0,1,252.69,233.32Zm1.18-1.52a.28.28,0,0,1-.15,0,.25.25,0,0,1-.05-.34c.19-.26.38-.51.56-.78a.25.25,0,0,1,.34-.06.24.24,0,0,1,.06.34l-.57.79A.23.23,0,0,1,253.87,231.8Zm1.11-1.56a.27.27,0,0,1-.14-.05.23.23,0,0,1-.06-.33l.53-.8a.25.25,0,1,1,.41.27l-.54.8A.24.24,0,0,1,255,230.24Zm1-1.61a.33.33,0,0,1-.13,0,.25.25,0,0,1-.07-.34c.17-.27.34-.54.5-.81a.25.25,0,0,1,.34-.08.24.24,0,0,1,.08.33l-.51.82A.27.27,0,0,1,256,228.63Zm1-1.65a.31.31,0,0,1-.13,0,.24.24,0,0,1-.08-.33l.48-.83a.25.25,0,0,1,.34-.09.24.24,0,0,1,.08.33l-.48.83A.25.25,0,0,1,257,227Zm1-1.66-.12,0a.26.26,0,0,1-.09-.33c.16-.28.32-.56.47-.84a.25.25,0,0,1,.33-.1.25.25,0,0,1,.1.33q-.24.43-.48.84A.23.23,0,0,1,258,225.32Zm.94-1.68-.12,0a.24.24,0,0,1-.09-.33l.45-.85a.25.25,0,0,1,.33-.1.25.25,0,0,1,.1.33c-.15.29-.31.57-.46.85A.24.24,0,0,1,258.94,223.64Zm.91-1.7a.2.2,0,0,1-.11,0,.23.23,0,0,1-.1-.32l.45-.85a.23.23,0,0,1,.32-.1.25.25,0,0,1,.11.33l-.45.84A.24.24,0,0,1,259.85,221.94Zm.9-1.7a.2.2,0,0,1-.11,0,.25.25,0,0,1-.11-.33L261,219a.25.25,0,0,1,.33-.11.26.26,0,0,1,.1.33l-.45.85A.22.22,0,0,1,260.75,220.24Zm.89-1.7a.2.2,0,0,1-.11,0,.25.25,0,0,1-.11-.33l.45-.85a.25.25,0,0,1,.33-.11.26.26,0,0,1,.1.33l-.45.86A.24.24,0,0,1,261.64,218.54Zm.89-1.71-.12,0a.25.25,0,0,1-.1-.33l.45-.85a.24.24,0,0,1,.33-.1.25.25,0,0,1,.1.33l-.45.85A.24.24,0,0,1,262.53,216.83Zm.89-1.71-.11,0a.24.24,0,0,1-.1-.33l.45-.85a.24.24,0,0,1,.33-.1.24.24,0,0,1,.1.32l-.45.85A.24.24,0,0,1,263.42,215.12Zm.91-1.69-.12,0a.25.25,0,0,1-.1-.33l.46-.85a.24.24,0,0,1,.33-.1.25.25,0,0,1,.1.33l-.46.85A.24.24,0,0,1,264.33,213.43Zm.92-1.69-.12,0a.24.24,0,0,1-.09-.33c.15-.28.31-.57.47-.84a.24.24,0,0,1,.42.24c-.16.27-.31.55-.47.83A.24.24,0,0,1,265.25,211.74Zm.95-1.68a.24.24,0,0,1-.21-.36l.48-.83a.25.25,0,0,1,.34-.09.24.24,0,0,1,.08.33l-.48.83A.25.25,0,0,1,266.2,210.06Zm1-1.65a.22.22,0,0,1-.13,0A.24.24,0,0,1,267,208l.51-.82a.24.24,0,1,1,.41.26c-.17.27-.34.54-.5.81A.25.25,0,0,1,267.18,208.41Zm1-1.63a.23.23,0,0,1-.14,0,.24.24,0,0,1-.07-.33l.54-.81a.23.23,0,0,1,.33-.06.24.24,0,0,1,.07.33c-.18.26-.36.53-.53.8A.26.26,0,0,1,268.21,206.78Zm1.07-1.59a.27.27,0,0,1-.14-.05.23.23,0,0,1-.05-.33c.18-.27.37-.53.56-.79a.24.24,0,1,1,.39.29c-.19.25-.37.51-.56.77A.24.24,0,0,1,269.28,205.19Zm1.15-1.55a.27.27,0,0,1-.15,0,.23.23,0,0,1,0-.34c.19-.26.4-.51.6-.76a.25.25,0,0,1,.34,0,.24.24,0,0,1,0,.34c-.2.24-.39.49-.59.75A.25.25,0,0,1,270.43,203.64Zm1.22-1.48a.23.23,0,0,1-.16-.06.25.25,0,0,1,0-.35l.65-.72a.24.24,0,0,1,.36.33c-.22.23-.43.47-.64.71A.24.24,0,0,1,271.65,202.16Zm1.31-1.41a.21.21,0,0,1-.17-.07.23.23,0,0,1,0-.34c.23-.23.46-.46.7-.67a.24.24,0,0,1,.34,0,.25.25,0,0,1,0,.34l-.69.66A.23.23,0,0,1,273,200.75Zm1.41-1.3a.23.23,0,0,1-.18-.08.23.23,0,0,1,0-.34l.76-.61a.24.24,0,1,1,.29.39c-.25.19-.5.38-.74.59A.24.24,0,0,1,274.37,199.45Zm1.53-1.15a.26.26,0,0,1-.2-.11.25.25,0,0,1,.07-.34l.82-.52a.24.24,0,0,1,.25.42c-.27.16-.54.33-.8.51A.23.23,0,0,1,275.9,198.3Zm1.66-1a.23.23,0,0,1-.22-.13.24.24,0,0,1,.11-.32c.29-.15.58-.29.88-.42a.24.24,0,0,1,.31.13.23.23,0,0,1-.12.32c-.29.12-.57.26-.85.4A.23.23,0,0,1,277.56,197.32Zm1.76-.74a.24.24,0,0,1-.23-.17.24.24,0,0,1,.15-.31c.3-.1.61-.2.93-.28a.24.24,0,0,1,.3.17.25.25,0,0,1-.18.3l-.9.27Zm1.85-.49a.24.24,0,0,1-.24-.2.23.23,0,0,1,.19-.28c.32-.06.64-.11,1-.15a.23.23,0,0,1,.27.22.24.24,0,0,1-.22.26l-.93.14Z" style="fill:#407BFF"></path><path d="M283.13,195.87a.24.24,0,1,1,0-.48h.49a.24.24,0,0,1,.24.24.24.24,0,0,1-.24.24h-.49Z" style="fill:#407BFF"></path><path d="M339.66,193.92a.24.24,0,0,1-.24-.24.24.24,0,0,1,.24-.24l.46,0a.24.24,0,0,1,.27.22.25.25,0,0,1-.23.26A4.1,4.1,0,0,1,339.66,193.92Z" style="fill:#407BFF"></path><path d="M341.1,193.74a.25.25,0,0,1-.24-.18.24.24,0,0,1,.18-.29,6.88,6.88,0,0,0,.87-.3.24.24,0,0,1,.19.45,6.51,6.51,0,0,1-.94.32Zm1.76-.74a.22.22,0,0,1-.2-.12.24.24,0,0,1,.08-.33,9,9,0,0,0,.78-.53.24.24,0,1,1,.29.39,9.79,9.79,0,0,1-.82.55A.2.2,0,0,1,342.86,193Zm1.54-1.16a.27.27,0,0,1-.18-.08.24.24,0,0,1,0-.34c.23-.21.45-.43.67-.67a.25.25,0,0,1,.35,0,.25.25,0,0,1,0,.34c-.23.25-.47.48-.7.7A.27.27,0,0,1,344.4,191.84Zm1.33-1.41a.25.25,0,0,1-.15-.05.25.25,0,0,1,0-.35c.2-.24.4-.49.59-.75a.24.24,0,0,1,.39.29c-.2.27-.4.52-.6.77A.25.25,0,0,1,345.73,190.43Zm1.16-1.56a.23.23,0,0,1-.14,0,.24.24,0,0,1-.07-.33c.18-.26.36-.53.53-.81a.24.24,0,1,1,.41.26l-.53.82A.25.25,0,0,1,346.89,188.87Zm1-1.64a.24.24,0,0,1-.21-.37q.24-.41.48-.84a.24.24,0,1,1,.42.24c-.16.29-.31.57-.48.85A.22.22,0,0,1,347.91,187.23Zm.93-1.7-.11,0a.24.24,0,0,1-.1-.33c.14-.28.29-.57.43-.86a.25.25,0,0,1,.33-.11.24.24,0,0,1,.11.32c-.15.3-.29.59-.44.87A.24.24,0,0,1,348.84,185.53Zm.86-1.75a.16.16,0,0,1-.1,0,.23.23,0,0,1-.12-.32c.13-.29.27-.58.4-.88a.24.24,0,0,1,.32-.12.23.23,0,0,1,.12.32c-.13.3-.27.59-.4.88A.24.24,0,0,1,349.7,183.78Zm.79-1.77a.15.15,0,0,1-.09,0,.24.24,0,0,1-.13-.32c.13-.29.25-.59.38-.89a.25.25,0,0,1,.32-.13.25.25,0,0,1,.13.32c-.13.3-.26.6-.38.9A.24.24,0,0,1,350.49,182Zm.75-1.79a.15.15,0,0,1-.09,0,.24.24,0,0,1-.14-.31l.36-.9a.24.24,0,0,1,.32-.14.25.25,0,0,1,.13.32l-.36.9A.25.25,0,0,1,351.24,180.22Zm.71-1.81h-.09a.24.24,0,0,1-.14-.31c.12-.3.23-.61.34-.91a.24.24,0,0,1,.31-.14.24.24,0,0,1,.15.31c-.12.3-.23.61-.35.91A.22.22,0,0,1,352,178.41Zm.68-1.82h-.09a.24.24,0,0,1-.14-.31l.33-.91a.24.24,0,0,1,.31-.15.24.24,0,0,1,.14.31l-.33.92A.24.24,0,0,1,352.63,176.59Zm.65-1.82-.08,0a.23.23,0,0,1-.15-.3l.32-.92a.24.24,0,0,1,.31-.15.25.25,0,0,1,.15.31l-.32.92A.25.25,0,0,1,353.28,174.77Zm.63-1.84h-.07a.25.25,0,0,1-.16-.31l.31-.91a.25.25,0,0,1,.31-.16.23.23,0,0,1,.15.31l-.31.92A.24.24,0,0,1,353.91,172.93Zm.62-1.84h-.07a.24.24,0,0,1-.16-.3l.31-.92a.24.24,0,0,1,.3-.16.25.25,0,0,1,.16.31l-.31.92A.24.24,0,0,1,354.53,171.09Zm.61-1.84h-.08a.25.25,0,0,1-.15-.31l.3-.92a.24.24,0,1,1,.46.16l-.3.92A.24.24,0,0,1,355.14,169.25Zm.6-1.84h-.08a.25.25,0,0,1-.15-.31l.3-.92a.24.24,0,0,1,.3-.16.25.25,0,0,1,.16.31l-.3.92A.23.23,0,0,1,355.74,167.41Zm.6-1.85h-.08a.24.24,0,0,1-.15-.3l.3-.93a.24.24,0,0,1,.3-.16.25.25,0,0,1,.16.31l-.3.92A.23.23,0,0,1,356.34,165.56Zm.59-1.85h-.07a.25.25,0,0,1-.16-.31l.3-.92a.23.23,0,0,1,.31-.15.22.22,0,0,1,.15.3l-.3.92A.23.23,0,0,1,356.93,163.71Zm.6-1.84-.07,0a.24.24,0,0,1-.16-.3l.3-.92a.25.25,0,0,1,.31-.16.23.23,0,0,1,.15.31l-.3.92A.24.24,0,0,1,357.53,161.87Zm.61-1.85h-.08a.25.25,0,0,1-.15-.31l.3-.92a.24.24,0,0,1,.31-.15.23.23,0,0,1,.15.3l-.3.92A.23.23,0,0,1,358.14,160Zm.61-1.84h-.08a.25.25,0,0,1-.15-.31l.31-.92a.25.25,0,0,1,.31-.15.23.23,0,0,1,.15.31L359,158A.23.23,0,0,1,358.75,158.18Zm.63-1.84h-.08a.23.23,0,0,1-.15-.31l.32-.92a.24.24,0,0,1,.31-.14.24.24,0,0,1,.15.3l-.32.92A.25.25,0,0,1,359.38,156.34Zm.64-1.83h-.08a.25.25,0,0,1-.15-.31l.33-.92a.24.24,0,0,1,.31-.14.24.24,0,0,1,.15.31l-.33.91A.25.25,0,0,1,360,154.51Zm.66-1.82-.08,0a.23.23,0,0,1-.14-.31l.34-.91a.24.24,0,0,1,.31-.14.24.24,0,0,1,.14.31c-.11.3-.22.61-.34.91A.24.24,0,0,1,360.68,152.69Zm.7-1.82h-.09a.24.24,0,0,1-.14-.32l.36-.9a.23.23,0,0,1,.32-.13.24.24,0,0,1,.13.31l-.36.9A.22.22,0,0,1,361.38,150.87Zm.72-1.79-.09,0a.25.25,0,0,1-.13-.32c.12-.3.25-.6.38-.9a.24.24,0,0,1,.32-.12.23.23,0,0,1,.12.31l-.37.9A.25.25,0,0,1,362.1,149.08Zm.77-1.79a.18.18,0,0,1-.1,0,.23.23,0,0,1-.12-.32c.13-.3.27-.59.4-.88a.25.25,0,0,1,.33-.12.24.24,0,0,1,.11.32l-.4.88A.24.24,0,0,1,362.87,147.29Zm.82-1.75a.19.19,0,0,1-.1,0,.25.25,0,0,1-.12-.32c.15-.3.29-.59.44-.87a.25.25,0,0,1,.33-.11.24.24,0,0,1,.1.33l-.43.86A.24.24,0,0,1,363.69,145.54Zm.89-1.73-.12,0a.24.24,0,0,1-.09-.33l.48-.85a.25.25,0,0,1,.33-.09.26.26,0,0,1,.09.33l-.48.84A.22.22,0,0,1,364.58,143.81Zm1-1.68-.12,0a.24.24,0,0,1-.08-.34c.17-.28.35-.55.53-.82a.24.24,0,0,1,.34-.06.23.23,0,0,1,.06.33c-.17.26-.35.53-.52.81A.25.25,0,0,1,365.55,142.13Zm1.09-1.6a.24.24,0,0,1-.14-.05.25.25,0,0,1-.06-.34c.2-.27.4-.53.61-.77a.24.24,0,0,1,.34,0,.25.25,0,0,1,0,.35c-.2.24-.39.49-.58.75A.25.25,0,0,1,366.64,140.53Zm1.23-1.49a.24.24,0,0,1-.16-.07.24.24,0,0,1,0-.34c.23-.25.47-.48.7-.7a.24.24,0,0,1,.34,0,.23.23,0,0,1,0,.34c-.23.21-.45.43-.67.67A.25.25,0,0,1,367.87,139Zm1.42-1.31a.25.25,0,0,1-.19-.09.24.24,0,0,1,0-.34,6.91,6.91,0,0,1,.81-.56.24.24,0,0,1,.33.08.23.23,0,0,1-.08.33c-.26.16-.52.34-.77.53A.27.27,0,0,1,369.29,137.73Zm1.65-1a.25.25,0,0,1-.22-.15.24.24,0,0,1,.12-.32,7.08,7.08,0,0,1,1-.32.24.24,0,1,1,.12.46,6,6,0,0,0-.87.31Z" style="fill:#407BFF"></path><path d="M372.84,136.27a.24.24,0,0,1-.24-.23.24.24,0,0,1,.22-.26l.5,0a.25.25,0,0,1,0,.49,3.46,3.46,0,0,0-.46,0Z" style="fill:#407BFF"></path><path d="M340,195.89h0a3.44,3.44,0,0,0-.46,0,.24.24,0,0,1-.24-.24.24.24,0,0,1,.24-.24,4.24,4.24,0,0,1,.51,0,.24.24,0,0,1,.22.27A.25.25,0,0,1,340,195.89Z" style="fill:#407BFF"></path><path d="M363.29,274.76h-.09a6.3,6.3,0,0,1-.9-.45.25.25,0,0,1-.07-.34.24.24,0,0,1,.33-.07,5.06,5.06,0,0,0,.81.4.24.24,0,0,1-.08.47Zm-1.61-1a.25.25,0,0,1-.16-.06c-.23-.21-.46-.45-.69-.7a.25.25,0,0,1,0-.35.25.25,0,0,1,.34,0c.21.24.43.46.64.66a.24.24,0,0,1,0,.34A.25.25,0,0,1,361.68,273.76Zm-1.25-1.43a.26.26,0,0,1-.2-.1c-.18-.26-.36-.53-.54-.82a.24.24,0,0,1,.08-.33.24.24,0,0,1,.34.08c.17.27.34.54.51.78a.24.24,0,0,1-.05.34A.3.3,0,0,1,360.43,272.33Zm-1-1.64a.26.26,0,0,1-.22-.13c-.15-.28-.29-.57-.43-.87a.24.24,0,0,1,.12-.33.25.25,0,0,1,.32.12c.14.3.28.58.42.85a.24.24,0,0,1-.1.33Zm-.82-1.74a.25.25,0,0,1-.23-.15l-.36-.9a.24.24,0,1,1,.45-.18c.12.31.24.6.36.89a.25.25,0,0,1-.13.32Zm-.7-1.8a.24.24,0,0,1-.22-.16c-.11-.3-.21-.61-.32-.92a.25.25,0,0,1,.16-.31.26.26,0,0,1,.31.16l.3.91a.23.23,0,0,1-.15.3Zm-.59-1.83a.26.26,0,0,1-.24-.17l-.27-.93a.25.25,0,0,1,.47-.14c.09.32.18.62.27.92a.26.26,0,0,1-.16.31Zm-.53-1.86a.25.25,0,0,1-.24-.18l-.24-.93a.25.25,0,0,1,.17-.3.25.25,0,0,1,.3.18l.24.93a.24.24,0,0,1-.17.29Zm-.48-1.87a.23.23,0,0,1-.23-.18c-.08-.31-.15-.63-.22-.94a.24.24,0,1,1,.47-.11c.07.31.15.63.22.93a.25.25,0,0,1-.18.3Zm-.43-1.88a.23.23,0,0,1-.23-.19l-.2-.94a.24.24,0,0,1,.18-.29.25.25,0,0,1,.29.19l.2.94a.24.24,0,0,1-.19.29Zm-.39-1.88a.25.25,0,0,1-.24-.2l-.18-.95a.24.24,0,0,1,.47-.09c.07.32.13.63.19,1a.24.24,0,0,1-.19.28Zm-.36-1.9a.24.24,0,0,1-.24-.19l-.18-1a.26.26,0,0,1,.2-.29.25.25,0,0,1,.28.2l.18,1a.25.25,0,0,1-.2.28Zm-.34-1.89a.25.25,0,0,1-.24-.21l-.16-1a.24.24,0,0,1,.2-.28.26.26,0,0,1,.28.2l.16.95a.25.25,0,0,1-.2.28Zm-.32-1.91a.24.24,0,0,1-.24-.2l-.15-1a.24.24,0,0,1,.2-.28.24.24,0,0,1,.27.2l.16.95a.24.24,0,0,1-.2.28Zm-.3-1.9a.23.23,0,0,1-.24-.2l-.15-1a.25.25,0,0,1,.2-.28.26.26,0,0,1,.28.21l.15.95a.25.25,0,0,1-.21.28Zm-.29-1.91a.24.24,0,0,1-.24-.2l-.14-1a.24.24,0,0,1,.48-.07l.14.95a.24.24,0,0,1-.21.28Zm-.28-1.9a.25.25,0,0,1-.24-.21l-.13-1a.24.24,0,0,1,.2-.27.24.24,0,0,1,.28.21l.13.95a.23.23,0,0,1-.2.27Zm-.26-1.91a.26.26,0,0,1-.25-.21l-.13-1a.25.25,0,0,1,.21-.27.23.23,0,0,1,.27.21l.14.95a.25.25,0,0,1-.21.27Zm-.26-1.91a.24.24,0,0,1-.24-.21l-.13-1a.24.24,0,0,1,.21-.27.23.23,0,0,1,.27.21l.13.95a.24.24,0,0,1-.21.27Zm-.26-1.91a.25.25,0,0,1-.24-.21l-.12-1a.24.24,0,0,1,.21-.27.23.23,0,0,1,.27.21l.12.95a.23.23,0,0,1-.21.27Zm-.25-1.92a.24.24,0,0,1-.24-.21l-.12-.95a.23.23,0,0,1,.21-.27.23.23,0,0,1,.27.2l.12,1a.23.23,0,0,1-.21.27Zm-.24-1.91a.24.24,0,0,1-.24-.21l-.13-1a.26.26,0,0,1,.21-.28.23.23,0,0,1,.27.21l.13,1a.24.24,0,0,1-.21.27Zm-.25-1.91a.25.25,0,0,1-.24-.21l-.12-1a.24.24,0,0,1,.21-.27.23.23,0,0,1,.27.21l.12,1a.24.24,0,0,1-.21.27Zm-.24-1.92a.25.25,0,0,1-.25-.21l-.12-.95a.25.25,0,0,1,.21-.28.23.23,0,0,1,.27.21l.13,1a.25.25,0,0,1-.21.27Zm-.25-1.91a.24.24,0,0,1-.24-.21l-.13-.95a.25.25,0,0,1,.21-.27.23.23,0,0,1,.27.21l.13.95a.24.24,0,0,1-.21.27Zm-.25-1.91a.23.23,0,0,1-.24-.21l-.13-.95a.23.23,0,0,1,.21-.27.24.24,0,0,1,.27.21l.13.95a.24.24,0,0,1-.21.27Zm-.26-1.91a.24.24,0,0,1-.24-.21c0-.31-.09-.63-.13-1a.24.24,0,0,1,.48-.07c0,.32.09.64.13,1a.24.24,0,0,1-.21.27Zm-.26-1.91a.24.24,0,0,1-.24-.2l-.14-1a.24.24,0,0,1,.21-.27.23.23,0,0,1,.27.2l.14,1a.24.24,0,0,1-.21.27Zm-.27-1.9a.24.24,0,0,1-.24-.21l-.14-1a.24.24,0,0,1,.2-.27.24.24,0,0,1,.28.2l.14,1a.24.24,0,0,1-.21.27Zm-.29-1.91a.25.25,0,0,1-.24-.21l-.14-1a.25.25,0,0,1,.2-.28.24.24,0,0,1,.28.21l.14,1a.25.25,0,0,1-.2.28Zm-.29-1.91a.24.24,0,0,1-.24-.2l-.15-.95a.24.24,0,0,1,.2-.28.25.25,0,0,1,.28.2l.15.95a.24.24,0,0,1-.2.28Zm-.31-1.9a.24.24,0,0,1-.24-.2l-.16-.95a.24.24,0,0,1,.2-.28.25.25,0,0,1,.28.2l.16,1a.25.25,0,0,1-.2.28Zm-.33-1.9a.24.24,0,0,1-.24-.2c-.06-.32-.11-.63-.17-.94a.24.24,0,1,1,.47-.09l.18,1a.25.25,0,0,1-.2.28ZM349,214a.24.24,0,0,1-.24-.2c-.06-.32-.12-.63-.19-.94a.25.25,0,0,1,.2-.29.25.25,0,0,1,.28.19c.06.31.13.63.19.95a.24.24,0,0,1-.2.28Zm-.38-1.9a.24.24,0,0,1-.24-.19c-.06-.31-.13-.63-.2-.94a.25.25,0,1,1,.48-.1c.06.31.13.63.2.94a.26.26,0,0,1-.19.29Zm-.41-1.88A.24.24,0,0,1,348,210c-.07-.31-.14-.63-.22-.93a.24.24,0,0,1,.18-.29.23.23,0,0,1,.29.17c.08.31.15.63.22.95a.23.23,0,0,1-.18.29Zm-.45-1.87a.26.26,0,0,1-.24-.19l-.24-.93a.24.24,0,0,1,.17-.29.24.24,0,0,1,.3.17l.24.94a.24.24,0,0,1-.17.29Zm-.5-1.86a.25.25,0,0,1-.24-.18l-.27-.92a.24.24,0,0,1,.16-.3.24.24,0,0,1,.31.16q.14.45.27.93a.24.24,0,0,1-.17.3Zm-.57-1.85a.24.24,0,0,1-.23-.17c-.1-.3-.2-.61-.31-.9a.25.25,0,0,1,.15-.31.24.24,0,0,1,.31.14c.11.3.21.61.31.92a.23.23,0,0,1-.15.31ZM346,202.8a.24.24,0,0,1-.23-.15c-.12-.31-.24-.6-.36-.89a.25.25,0,0,1,.13-.32.25.25,0,0,1,.32.13l.36.9a.24.24,0,0,1-.14.32Zm-.75-1.77a.23.23,0,0,1-.22-.14c-.14-.29-.28-.58-.43-.85a.25.25,0,0,1,.1-.33.24.24,0,0,1,.33.1c.15.28.29.57.44.88a.25.25,0,0,1-.12.32Zm-.91-1.7a.25.25,0,0,1-.21-.12c-.17-.27-.34-.54-.52-.78a.24.24,0,0,1,.06-.34.25.25,0,0,1,.34,0c.18.26.36.53.54.82a.26.26,0,0,1-.09.34A.24.24,0,0,1,344.37,199.33Zm-1.13-1.55a.24.24,0,0,1-.18-.09,6.64,6.64,0,0,0-.65-.65.24.24,0,0,1,0-.34.23.23,0,0,1,.34,0,9.15,9.15,0,0,1,.69.7.25.25,0,0,1,0,.35A.23.23,0,0,1,343.24,197.78Zm-1.44-1.25a.28.28,0,0,1-.12,0,4.31,4.31,0,0,0-.81-.39.25.25,0,0,1,.17-.46,4.9,4.9,0,0,1,.89.44.24.24,0,0,1-.13.45Z" style="fill:#407BFF"></path><path d="M364.75,275l-.51,0a.23.23,0,0,1-.21-.27.23.23,0,0,1,.26-.21l.46,0a.25.25,0,0,1,0,.49Z" style="fill:#407BFF"></path><path d="M249,104.65h0a3.62,3.62,0,0,0-.47,0,.25.25,0,0,1,0-.49l.5,0a.25.25,0,0,1,.23.26A.25.25,0,0,1,249,104.65Z" style="fill:#407BFF"></path><path d="M282.23,193.75h-.06a8,8,0,0,1-.95-.3.24.24,0,1,1,.17-.45,5.69,5.69,0,0,0,.89.27.25.25,0,0,1,.18.3A.23.23,0,0,1,282.23,193.75Zm-1.79-.69-.12,0a8.39,8.39,0,0,1-.83-.54.24.24,0,0,1-.05-.34.24.24,0,0,1,.33-.05,7.45,7.45,0,0,0,.79.5.25.25,0,0,1-.12.46Zm-1.56-1.13a.22.22,0,0,1-.16-.06c-.23-.2-.47-.44-.7-.68a.25.25,0,0,1,0-.35.25.25,0,0,1,.34,0c.22.24.45.46.67.66a.24.24,0,0,1,0,.34A.21.21,0,0,1,278.88,191.93Zm-1.32-1.39a.28.28,0,0,1-.19-.09c-.2-.25-.4-.51-.59-.78a.24.24,0,0,1,.06-.34.23.23,0,0,1,.33,0c.19.27.38.52.58.76a.24.24,0,0,1,0,.34A.22.22,0,0,1,277.56,190.54ZM276.43,189a.21.21,0,0,1-.2-.11c-.17-.27-.34-.54-.51-.83a.23.23,0,0,1,.09-.33.24.24,0,0,1,.33.08c.16.29.33.56.5.82a.25.25,0,0,1-.08.34A.28.28,0,0,1,276.43,189Zm-1-1.67a.22.22,0,0,1-.21-.13c-.16-.28-.3-.57-.45-.87a.24.24,0,0,1,.11-.32.25.25,0,0,1,.33.11c.14.29.29.58.43.86a.23.23,0,0,1-.1.32A.2.2,0,0,1,275.46,187.29Zm-.85-1.74a.24.24,0,0,1-.23-.14l-.39-.9a.24.24,0,0,1,.13-.31.23.23,0,0,1,.32.12l.39.89a.25.25,0,0,1-.12.32Zm-.76-1.79a.24.24,0,0,1-.23-.15c-.12-.3-.23-.6-.35-.91a.25.25,0,0,1,.46-.17c.11.31.23.61.34.9a.25.25,0,0,1-.13.32Zm-.68-1.81a.25.25,0,0,1-.23-.16c-.11-.31-.22-.61-.32-.93a.24.24,0,0,1,.15-.3.23.23,0,0,1,.31.15c.1.31.21.61.32.91a.24.24,0,0,1-.15.31Zm-.62-1.84a.24.24,0,0,1-.23-.17c-.1-.31-.2-.62-.29-.93a.24.24,0,0,1,.16-.3.24.24,0,0,1,.3.16c.09.31.19.62.29.92a.25.25,0,0,1-.16.31Zm-.57-1.86a.24.24,0,0,1-.23-.17l-.27-.94a.24.24,0,0,1,.16-.3.24.24,0,0,1,.3.17l.27.93a.24.24,0,0,1-.16.3Zm-.53-1.87a.23.23,0,0,1-.23-.18c-.09-.31-.17-.62-.25-.94a.23.23,0,0,1,.17-.29.24.24,0,0,1,.3.17c.08.32.16.63.25.94a.26.26,0,0,1-.18.3ZM271,174.5a.25.25,0,0,1-.24-.18c-.07-.31-.15-.63-.23-.94a.26.26,0,0,1,.18-.3.24.24,0,0,1,.29.18l.24.94a.26.26,0,0,1-.18.3Zm-.46-1.88a.24.24,0,0,1-.23-.19c-.08-.31-.15-.63-.23-.94a.25.25,0,0,1,.19-.3.25.25,0,0,1,.29.19c.07.31.14.63.22.94a.24.24,0,0,1-.18.29Zm-.43-1.89a.25.25,0,0,1-.24-.19l-.21-.95a.24.24,0,0,1,.19-.29.22.22,0,0,1,.28.18l.21,1a.24.24,0,0,1-.18.29Zm-.42-1.9a.24.24,0,0,1-.23-.19l-.2-1a.23.23,0,0,1,.19-.28.23.23,0,0,1,.28.19l.2.95a.23.23,0,0,1-.19.28Zm-.39-1.9a.25.25,0,0,1-.24-.2l-.19-.95a.26.26,0,0,1,.19-.29.25.25,0,0,1,.29.19l.19,1a.24.24,0,0,1-.19.28Zm-.38-1.91a.24.24,0,0,1-.23-.19l-.19-1a.24.24,0,0,1,.48-.09l.18,1a.24.24,0,0,1-.19.28Zm-.36-1.9a.26.26,0,0,1-.24-.2l-.18-1a.25.25,0,0,1,.2-.28.23.23,0,0,1,.28.2l.18,1a.24.24,0,0,1-.19.28Zm-.35-1.91a.24.24,0,0,1-.24-.2l-.17-1a.23.23,0,0,1,.19-.28.24.24,0,0,1,.28.2l.18.95a.25.25,0,0,1-.2.28Zm-.34-1.91a.25.25,0,0,1-.24-.2c-.06-.32-.12-.64-.17-1a.24.24,0,0,1,.2-.28.23.23,0,0,1,.28.2c.05.32.11.63.17.95a.25.25,0,0,1-.2.28Zm-.34-1.92a.25.25,0,0,1-.24-.2l-.16-1a.24.24,0,0,1,.2-.28.25.25,0,0,1,.28.2l.16.95a.25.25,0,0,1-.2.28Zm-.33-1.91a.25.25,0,0,1-.24-.2l-.16-1a.24.24,0,0,1,.48-.08l.16,1a.24.24,0,0,1-.2.28Zm-.32-1.91a.25.25,0,0,1-.24-.21l-.16-.95a.25.25,0,0,1,.2-.28.24.24,0,0,1,.28.2l.16,1a.24.24,0,0,1-.2.28Zm-.32-1.92a.24.24,0,0,1-.24-.2l-.16-1a.24.24,0,0,1,.48-.08l.16,1a.25.25,0,0,1-.2.28Zm-.32-1.91a.25.25,0,0,1-.24-.2l-.16-1a.24.24,0,1,1,.48-.08l.16,1a.24.24,0,0,1-.2.27Zm-.32-1.92a.24.24,0,0,1-.24-.2l-.16-1a.25.25,0,0,1,.2-.28.24.24,0,0,1,.28.2l.16,1a.25.25,0,0,1-.2.28Zm-.32-1.92a.25.25,0,0,1-.24-.2l-.16-1a.25.25,0,0,1,.2-.28.25.25,0,0,1,.28.2l.16,1a.25.25,0,0,1-.2.28Zm-.32-1.91a.24.24,0,0,1-.24-.2l-.16-1a.24.24,0,0,1,.2-.28.25.25,0,0,1,.28.2l.16,1a.25.25,0,0,1-.2.28Zm-.33-1.91a.24.24,0,0,1-.24-.2l-.16-1a.24.24,0,0,1,.2-.28.25.25,0,0,1,.28.2l.16,1a.25.25,0,0,1-.2.28Zm-.33-1.91a.25.25,0,0,1-.24-.2l-.17-1a.25.25,0,0,1,.2-.28.23.23,0,0,1,.28.2l.17,1a.25.25,0,0,1-.2.28Zm-.34-1.91a.26.26,0,0,1-.24-.2l-.17-1a.25.25,0,0,1,.2-.28.23.23,0,0,1,.28.19l.17,1a.24.24,0,0,1-.2.28Zm-.34-1.92a.24.24,0,0,1-.24-.19l-.18-1a.24.24,0,0,1,.19-.28.25.25,0,0,1,.29.19l.17,1a.23.23,0,0,1-.19.28Zm-.36-1.9a.24.24,0,0,1-.24-.2l-.18-.95a.25.25,0,0,1,.19-.29.24.24,0,0,1,.28.2l.19.95a.25.25,0,0,1-.2.28Zm-.37-1.91a.24.24,0,0,1-.24-.19l-.19-1a.24.24,0,0,1,.19-.29.23.23,0,0,1,.28.19l.2.95a.26.26,0,0,1-.19.29Zm-.39-1.9a.26.26,0,0,1-.24-.19l-.19-1a.24.24,0,0,1,.18-.29.25.25,0,0,1,.29.19l.2,1a.23.23,0,0,1-.19.28Zm-.4-1.9a.26.26,0,0,1-.24-.19l-.21-1a.25.25,0,0,1,.19-.29.24.24,0,0,1,.29.19l.21.94a.25.25,0,0,1-.19.29Zm-.42-1.9a.25.25,0,0,1-.24-.18l-.22-1a.24.24,0,1,1,.47-.11l.22,1a.24.24,0,0,1-.18.29Zm-.45-1.88a.26.26,0,0,1-.24-.19c-.07-.31-.15-.63-.23-.94a.24.24,0,0,1,.17-.29.24.24,0,0,1,.3.17c.08.31.16.63.23,1a.23.23,0,0,1-.17.29Zm-.48-1.89a.23.23,0,0,1-.23-.18c-.09-.31-.17-.63-.25-.93a.24.24,0,0,1,.17-.3.24.24,0,0,1,.3.17c.08.31.16.62.25.94a.24.24,0,0,1-.18.29Zm-.51-1.87a.24.24,0,0,1-.23-.18l-.27-.93a.24.24,0,1,1,.47-.13l.27.93a.25.25,0,0,1-.17.3Zm-.54-1.86a.26.26,0,0,1-.24-.17c-.09-.32-.19-.62-.29-.93a.24.24,0,0,1,.16-.3.25.25,0,0,1,.31.15c.09.31.19.62.29.93a.26.26,0,0,1-.16.31Zm-.6-1.85a.24.24,0,0,1-.23-.17l-.31-.91a.24.24,0,0,1,.14-.31.25.25,0,0,1,.31.15c.11.3.22.61.32.92a.25.25,0,0,1-.15.31Zm-.65-1.83a.25.25,0,0,1-.23-.16c-.11-.3-.23-.6-.35-.9a.25.25,0,0,1,.14-.31.25.25,0,0,1,.32.13c.11.3.23.6.35.91a.24.24,0,0,1-.14.31Zm-.72-1.8a.25.25,0,0,1-.22-.15c-.13-.3-.26-.6-.39-.88a.24.24,0,1,1,.44-.2l.39.89a.23.23,0,0,1-.13.32Zm-.81-1.77a.26.26,0,0,1-.22-.13c-.14-.3-.29-.58-.43-.86a.24.24,0,1,1,.42-.23c.16.28.3.57.45.87a.25.25,0,0,1-.11.33Zm-.91-1.71a.24.24,0,0,1-.21-.12c-.17-.28-.33-.56-.5-.82a.24.24,0,0,1,.07-.33.25.25,0,0,1,.34.07q.25.41.51.84a.24.24,0,0,1-.09.33Zm-1.05-1.63a.23.23,0,0,1-.2-.1c-.19-.26-.38-.51-.58-.75a.24.24,0,0,1,0-.34.23.23,0,0,1,.34,0q.31.38.6.78a.24.24,0,0,1-.05.34A.25.25,0,0,1,255.24,108.73ZM254,107.24a.25.25,0,0,1-.18-.08c-.22-.23-.45-.45-.68-.65a.24.24,0,0,1,0-.34.25.25,0,0,1,.34,0,9.17,9.17,0,0,1,.71.69.24.24,0,0,1,0,.34A.2.2,0,0,1,254,107.24ZM252.56,106a.3.3,0,0,1-.15,0,9.21,9.21,0,0,0-.78-.49.24.24,0,0,1-.1-.33.24.24,0,0,1,.33-.1,9.72,9.72,0,0,1,.84.53.24.24,0,0,1-.14.44Zm-1.69-.91-.08,0a6,6,0,0,0-.89-.26.24.24,0,1,1,.11-.47,7.25,7.25,0,0,1,1,.28.25.25,0,0,1,.14.31A.25.25,0,0,1,250.87,105.06Z" style="fill:#407BFF"></path><path d="M283.74,193.92h-.5a.25.25,0,0,1-.23-.26.24.24,0,0,1,.26-.23l.47,0a.24.24,0,0,1,.24.24A.24.24,0,0,1,283.74,193.92Z" style="fill:#407BFF"></path></g></g><g id="freepik--Character--inject-140"><path d="M135.85,164.63c-2.28,4-4.6,8.33-6.69,12.57a116,116,0,0,0-5.61,12.86c-.21.54-.37,1.07-.54,1.6l-.42,1.3a4.77,4.77,0,0,0-.09,1.88,26.83,26.83,0,0,0,1.63,6,118.9,118.9,0,0,0,6,12.81L125.64,217a63.41,63.41,0,0,1-9.45-12.42,30.87,30.87,0,0,1-3.31-7.94,14.27,14.27,0,0,1-.34-5.48l.14-.81.12-.49.23-1c.16-.65.3-1.32.49-1.95A98.5,98.5,0,0,1,119,172.35c1.07-2.33,2.17-4.63,3.38-6.87s2.39-4.45,3.81-6.72Z" style="fill:#ff8b7b"></path><path d="M129,212.12l4.88,2.6-5.61,6.57s-3.51-2.37-3.67-6Z" style="fill:#ff8b7b"></path><polygon points="140.45 218.77 134.43 223.55 128.26 221.29 133.87 214.72 140.45 218.77" style="fill:#ff8b7b"></polygon><path d="M161,124c.12.59.53,1,.92.93s.6-.63.48-1.22-.53-1-.92-.93S160.88,123.36,161,124Z" style="fill:#263238"></path><path d="M161.48,125a21.86,21.86,0,0,0,3.85,4.48,3.49,3.49,0,0,1-2.72,1.11Z" style="fill:#ff5652"></path><path d="M210.27,163.81l-2.72-6.43,8.93-2.63s2.23,5.57-1.81,9.23Z" style="fill:#ff8b7b"></path><polygon points="209.66 150.84 216.37 149.99 216.48 154.75 207.56 157.38 209.66 150.84" style="fill:#ff8b7b"></polygon><path d="M158.17,121.1a.36.36,0,0,1-.24-.09.34.34,0,0,1,0-.5,3.53,3.53,0,0,1,3-1.18.35.35,0,0,1-.11.7h0a2.81,2.81,0,0,0-2.38,1A.38.38,0,0,1,158.17,121.1Z" style="fill:#263238"></path><path d="M144.57,134.71c1.08,5.48,1.72,13.07-2.11,16.72,0,0,1.5,5.56,11.67,5.56,11.19,0,5.39-4.88,5.39-4.88-4.65-1.44-4.61-6.74-3.55-11Z" style="fill:#ff8b7b"></path><path d="M140.37,155.09c-1-1.41-1-5.87.1-6.65,1.72-1.27,9.07-1.56,19,.71-1.06,4.32,1.22,6.58,1.22,6.58Z" style="fill:#263238"></path><path d="M164.43,409c1,0,1.89-.13,2.2-.57a.66.66,0,0,0,0-.77.85.85,0,0,0-.56-.41c-1.25-.34-3.87,1.15-4,1.21a.18.18,0,0,0-.08.18.18.18,0,0,0,.14.15A13.55,13.55,0,0,0,164.43,409Zm1.19-1.45a1.18,1.18,0,0,1,.34,0,.49.49,0,0,1,.35.25c.13.22.08.32,0,.39-.34.48-2.24.49-3.63.3A8,8,0,0,1,165.62,407.53Z" style="fill:#407BFF"></path><path d="M162.17,408.77h.07c.91-.41,2.7-2,2.56-2.87,0-.2-.17-.45-.66-.5a1.31,1.31,0,0,0-1,.3,5,5,0,0,0-1.16,2.89.17.17,0,0,0,.07.16A.19.19,0,0,0,162.17,408.77Zm1.83-3h.1c.32,0,.34.16.35.2.08.51-1.13,1.78-2,2.34a4.13,4.13,0,0,1,1-2.31A.92.92,0,0,1,164,405.74Z" style="fill:#407BFF"></path><polygon points="153.94 408.59 161.43 408.59 162.17 391.26 154.69 391.26 153.94 408.59" style="fill:#ff8b7b"></polygon><path d="M161.38,407.73H153.2a.64.64,0,0,0-.63.51l-1.48,6.65a1.08,1.08,0,0,0,1.07,1.33c3-.05,7.21-.22,10.92-.22,4.33,0,7.06.24,12.15.24,3.07,0,3.92-3.11,2.63-3.39-5.85-1.28-9.62-1.42-14.68-4.54A3.46,3.46,0,0,0,161.38,407.73Z" style="fill:#263238"></path><path d="M129.06,153.12c-7,1.61-11.86,20.33-11.86,20.33l13.15,9.93a30.78,30.78,0,0,0,7.47-13.84C140.23,160.16,136.23,151.48,129.06,153.12Z" style="fill:#407BFF"></path><path d="M129.06,153.12c-7,1.61-11.86,20.33-11.86,20.33l13.15,9.93a30.78,30.78,0,0,0,7.47-13.84C140.23,160.16,136.23,151.48,129.06,153.12Z" style="fill:#fff;opacity:0.4"></path><path d="M170.28,158.51c3.95,4.4,7.85,8.82,11.79,13.06,2,2.11,4,4.16,5.94,6a37.63,37.63,0,0,0,3,2.51,13,13,0,0,0,2.4,1.5c.25.11.3.09.09.13a1.44,1.44,0,0,0-.37.14l-.09,0,0,0,.09,0,.41-.22a25.23,25.23,0,0,0,3.14-2,33,33,0,0,0,5.61-5.32,46.46,46.46,0,0,0,4.62-6.7c.68-1.2,1.35-2.43,2-3.69s1.17-2.61,1.63-3.76l5.49,1.17a37.65,37.65,0,0,1-.92,4.79c-.4,1.54-.85,3.07-1.4,4.58a45.61,45.61,0,0,1-4.28,8.74,37.12,37.12,0,0,1-6.51,7.72,29.29,29.29,0,0,1-4.15,3.16l-.56.36-.15.09-.29.16-.59.28a10.94,10.94,0,0,1-1.25.45c-.42.1-.85.18-1.27.24a10.68,10.68,0,0,1-4.31-.42,19.76,19.76,0,0,1-5.43-2.7,46,46,0,0,1-4-3.06c-2.48-2.08-4.68-4.25-6.85-6.42-4.29-4.37-8.29-8.86-12.18-13.41Z" style="fill:#ff8b7b"></path><path d="M135.07,166.29c-3.81,3.77-5,10.64-5.35,16.61l.63.48a30.78,30.78,0,0,0,7.47-13.84c.15-.56.27-1.12.37-1.67Z" style="opacity:0.2"></path><path d="M116.7,172.43l-.28.72a1,1,0,0,0,.34,1.17l12.57,9.56a1,1,0,0,0,1.39-.16l.05-.06a1,1,0,0,0-.13-1.42L118.29,172A1,1,0,0,0,116.7,172.43Z" style="fill:#263238"></path><path d="M173.39,160.63c1.53,8.08,2.49,24.69-1.95,57.57h-40c-.27-6.14,3.59-36.12-2.34-65.08a105.57,105.57,0,0,1,13.4-1.69,146.32,146.32,0,0,1,17,0c1.88.17,3.72.44,5.36.73A10.61,10.61,0,0,1,173.39,160.63Z" style="fill:#407BFF"></path><path d="M173.39,160.63c1.53,8.08,2.49,24.69-1.95,57.57h-40c-.27-6.14,3.59-36.12-2.34-65.08a105.57,105.57,0,0,1,13.4-1.69,146.32,146.32,0,0,1,17,0c1.88.17,3.72.44,5.36.73A10.61,10.61,0,0,1,173.39,160.63Z" style="fill:#fff;opacity:0.4"></path><path d="M167.27,172.58l7.23-1.73c.22,4.38.24,9.81-.08,16.52C171.09,183.58,166.84,177.67,167.27,172.58Z" style="opacity:0.2"></path><polygon points="162.17 391.27 161.79 400.2 154.3 400.2 154.68 391.27 162.17 391.27" style="opacity:0.2"></polygon><path d="M141,126.7c1.93,7.18,2.69,11.48,7.12,14.46,6.66,4.49,15-.66,15.21-8.27.23-6.84-3-17.43-10.65-18.87A10.13,10.13,0,0,0,141,126.7Z" style="fill:#ff8b7b"></path><path d="M157.6,128.33c.94-1.56.65-8.17-.95-10.09,2.43,0,5-2.21,4-5.09-1.84-5.05-8-3.64-12.87-1.15-4,2-8.47,5.66-12.54,6.62a1.16,1.16,0,0,0-.39,2.07,18.42,18.42,0,0,0,1.61,1,8.91,8.91,0,0,0,.95,7.92c2.6,4.29,5.5,7.39,3.9,9.4,4,2.69,10.46,2.81,10.88-2S160,131.78,157.6,128.33Z" style="fill:#263238"></path><path d="M136.38,116.41a7.47,7.47,0,0,1-2.27-.33,1.07,1.07,0,0,1,.66-2c2.45.79,5.95-.6,9.33-2,1.41-.56,2.86-1.14,4.22-1.55,2.85-.86,6.81-1.55,9.54,0a5.57,5.57,0,0,1,2.69,3.71,1.06,1.06,0,1,1-2.07.5,3.55,3.55,0,0,0-1.68-2.37c-1.62-.92-4.41-.86-7.86.17-1.28.39-2.62.93-4.05,1.5C142,115.23,139,116.41,136.38,116.41Z" style="fill:#263238"></path><path d="M154.4,127.27a8.46,8.46,0,0,0,2.1,5c1.64,1.8,3.34.68,3.63-1.51.26-2-.28-5.28-2.27-6.28S154.27,125.05,154.4,127.27Z" style="fill:#ff8b7b"></path><path d="M98.33,406.4c0-1-.12-1.89-.55-2.21a.67.67,0,0,0-.78,0,.89.89,0,0,0-.42.56c-.34,1.24,1.13,3.87,1.19,4a.18.18,0,0,0,.19.09.17.17,0,0,0,.14-.14A13.32,13.32,0,0,0,98.33,406.4Zm-1.45-1.2a1.67,1.67,0,0,1,0-.34.55.55,0,0,1,.25-.35c.23-.12.33-.08.4,0,.48.35.48,2.24.27,3.63A8.12,8.12,0,0,1,96.88,405.2Z" style="fill:#407BFF"></path><path d="M98.1,408.65s0,0,0-.07c-.4-.9-2-2.7-2.85-2.57-.2,0-.45.17-.5.65a1.31,1.31,0,0,0,.29,1c.78,1,2.79,1.17,2.88,1.18a.17.17,0,0,0,.16-.07A.2.2,0,0,0,98.1,408.65Zm-3-1.84a.41.41,0,0,1,0-.11c0-.32.16-.34.2-.34.51-.08,1.77,1.14,2.32,2.07a4.21,4.21,0,0,1-2.3-1A1,1,0,0,1,95.08,406.81Z" style="fill:#407BFF"></path><polygon points="97.99 408.7 105.3 409.22 109.4 391.75 102.09 391.23 97.99 408.7" style="fill:#ff8b7b"></polygon><path d="M98,407l8.14-.72a.65.65,0,0,1,.68.45l2.06,6.5a1.09,1.09,0,0,1-1,1.42c-2.94.21-7.2.41-10.89.74-4.32.38-1.52.37-6.58.82-3.06.27-4.19-2.75-2.93-3.15,5.72-1.79,6.75-3,8.73-5.32A2.52,2.52,0,0,1,98,407Z" style="fill:#263238"></path><polygon points="109.4 391.75 107.28 400.76 99.98 400.24 102.09 391.24 109.4 391.75" style="opacity:0.2"></polygon><path d="M157.24,218.2S144,275.7,139,297c-5.53,23.37-27.37,100.9-27.37,100.9L98.19,395s13.4-63.56,18.28-96.28c3.75-25.14,14.93-80.56,14.93-80.56Z" style="fill:#263238"></path><path d="M114,393.86c.06,0-1.3,5.15-1.3,5.15l-15.88-1.7.08-4.72Z" style="fill:#407BFF"></path><path d="M149.55,244.85c-9.44,1.25-10.93,34.46-11,53.94.13-.62.28-1.2.41-1.76,2.76-11.65,7.95-34.1,12.1-52.07A3.29,3.29,0,0,0,149.55,244.85Z" style="opacity:0.30000000000000004"></path><path d="M171.44,218.2s-1,56-1.78,78.79c-.85,23.74-5.08,101.48-5.08,101.48H151.9s-4.53-76.35-5.09-99.67c-.61-25.42-1.69-80.6-1.69-80.6Z" style="fill:#263238"></path><path d="M167,393.42s-.72,5.26-.72,5.26H150.88l-.42-4.69Z" style="fill:#407BFF"></path><path d="M157.7,163.08c-3.59,9.68,18.17,21.39,18.17,21.39l8.46-12.06s-6.09-12.12-13.57-17.58C161.53,148.08,160.43,155.72,157.7,163.08Z" style="fill:#407BFF"></path><path d="M157.7,163.08c-3.59,9.68,18.17,21.39,18.17,21.39l8.46-12.06s-6.09-12.12-13.57-17.58C161.53,148.08,160.43,155.72,157.7,163.08Z" style="fill:#fff;opacity:0.4"></path><path d="M184.49,171.34l.47.62a1,1,0,0,1,0,1.21l-8.52,11.44a1,1,0,0,1-1.29.29l-.13-.07a1,1,0,0,1-.35-1.46l8.18-12A1,1,0,0,1,184.49,171.34Z" style="fill:#263238"></path></g></svg>