<?xml version="1.0" encoding="UTF-8" standalone="no"?>
<svg xmlns:dc="http://purl.org/dc/elements/1.1/" xmlns:cc="http://creativecommons.org/ns#" xmlns:rdf="http://www.w3.org/1999/02/22-rdf-syntax-ns#" xmlns:svg="http://www.w3.org/2000/svg" xmlns="http://www.w3.org/2000/svg" xmlns:sodipodi="http://sodipodi.sourceforge.net/DTD/sodipodi-0.dtd" xmlns:inkscape="http://www.inkscape.org/namespaces/inkscape" width="12pt" height="12pt" viewBox="0 0 12 12" version="1.1" id="svg9" sodipodi:docname="ar.svg" inkscape:version="0.92.5 (2060ec1f9f, 2020-04-08)">
  <metadata id="metadata15">
    <rdf:RDF>
      <cc:Work rdf:about="">
        <dc:format>image/svg+xml</dc:format>
        <dc:type rdf:resource="http://purl.org/dc/dcmitype/StillImage"/>
      </cc:Work>
    </rdf:RDF>
  </metadata>
  <defs id="defs13">
    <clipPath id="clip1">
      <path inkscape:connector-curvature="0" d="M 0,0 H 80.398438 V 80.398438 H 0 Z m 0,0" id="path2-3"/>
    </clipPath>
  </defs>
  <sodipodi:namedview pagecolor="#ffffff" bordercolor="#666666" borderopacity="1" objecttolerance="10" gridtolerance="10" guidetolerance="10" inkscape:pageopacity="0" inkscape:pageshadow="2" inkscape:window-width="1920" inkscape:window-height="1015" id="namedview11" showgrid="false" inkscape:zoom="14.75" inkscape:cx="-20.576271" inkscape:cy="8" inkscape:window-x="0" inkscape:window-y="0" inkscape:window-maximized="1" inkscape:current-layer="svg9"/>
  <g transform="matrix(0.14925,0,0,0.14925,2.6657917e-4,0.15026658)" id="surface1" style="stroke:#000000;stroke-width:4.0201005;stroke-miterlimit:4;stroke-dasharray:none;stroke-opacity:1;stroke-linejoin:round;stroke-linecap:round">
    <g style="clip-rule:nonzero;stroke:#000000;stroke-width:4.0201005;stroke-miterlimit:4;stroke-dasharray:none;stroke-opacity:1;stroke-linejoin:round;stroke-linecap:round" clip-path="url(#clip1)" id="g11">
      <path inkscape:connector-curvature="0" style="fill:none;stroke:#000000;stroke-width:40.20100503;stroke-linecap:round;stroke-linejoin:round;stroke-miterlimit:4;stroke-dasharray:none;stroke-opacity:1" d="m 116.05469,451.07031 c -31.406252,31.40625 -49.062502,74.02344 -49.062502,118.4375 0,44.41406 17.65625,87.03125 49.062502,118.4375 31.40625,31.40625 74.02343,49.0625 118.4375,49.0625 92.5,0 167.5,-75 167.5,-167.5 V 67.007812" transform="matrix(0.1,0,0,-0.1,0,80.4)" id="path7"/>
      <path inkscape:connector-curvature="0" style="fill:none;stroke:#000000;stroke-width:40.20100503;stroke-linecap:round;stroke-linejoin:round;stroke-miterlimit:4;stroke-dasharray:none;stroke-opacity:1" d="m 401.99219,569.50781 c 0,92.5 75,167.5 167.5,167.5 44.41406,0 87.03125,-17.65625 118.4375,-49.0625 31.40625,-31.40625 49.0625,-74.02344 49.0625,-118.4375 0,-44.41406 -17.65625,-87.03125 -49.0625,-118.4375" transform="matrix(0.1,0,0,-0.1,0,80.4)" id="path9"/>
    </g>
  </g>
</svg>