<?xml version="1.0" encoding="UTF-8" standalone="no"?>
<svg xmlns:dc="http://purl.org/dc/elements/1.1/" xmlns:cc="http://creativecommons.org/ns#" xmlns:rdf="http://www.w3.org/1999/02/22-rdf-syntax-ns#" xmlns:svg="http://www.w3.org/2000/svg" xmlns="http://www.w3.org/2000/svg" xmlns:sodipodi="http://sodipodi.sourceforge.net/DTD/sodipodi-0.dtd" xmlns:inkscape="http://www.inkscape.org/namespaces/inkscape" width="12pt" height="12pt" viewBox="0 0 12 12" version="1.1" id="svg9" sodipodi:docname="can.svg" inkscape:version="0.92.5 (2060ec1f9f, 2020-04-08)">
  <metadata id="metadata15">
    <rdf:RDF>
      <cc:Work rdf:about="">
        <dc:format>image/svg+xml</dc:format>
        <dc:type rdf:resource="http://purl.org/dc/dcmitype/StillImage"/>
      </cc:Work>
    </rdf:RDF>
  </metadata>
  <defs id="defs13">
    <clipPath id="clip1">
      <path inkscape:connector-curvature="0" d="M 0,0 H 80.398438 V 80.398438 H 0 Z m 0,0" id="path2-5"/>
    </clipPath>
  </defs>
  <sodipodi:namedview pagecolor="#ffffff" bordercolor="#666666" borderopacity="1" objecttolerance="10" gridtolerance="10" guidetolerance="10" inkscape:pageopacity="0" inkscape:pageshadow="2" inkscape:window-width="1920" inkscape:window-height="1015" id="namedview11" showgrid="false" inkscape:zoom="14.75" inkscape:cx="14.677966" inkscape:cy="8" inkscape:window-x="0" inkscape:window-y="0" inkscape:window-maximized="1" inkscape:current-layer="svg9"/>
  <g transform="matrix(0.14925,0,0,0.14925,2.6657917e-4,2.6657918e-4)" id="surface1" style="stroke:#000000;stroke-width:4.0201005;stroke-miterlimit:4;stroke-dasharray:none;stroke-opacity:1;stroke-linejoin:round;stroke-linecap:round">
    <g style="clip-rule:nonzero;stroke:#000000;stroke-width:4.0201005;stroke-miterlimit:4;stroke-dasharray:none;stroke-opacity:1;stroke-linejoin:round;stroke-linecap:round" clip-path="url(#clip1)" id="g15">
      <path inkscape:connector-curvature="0" style="fill:none;stroke:#000000;stroke-width:40.20100503;stroke-linecap:round;stroke-linejoin:round;stroke-miterlimit:4;stroke-dasharray:none;stroke-opacity:1" d="m 736.99219,402.00781 c 0,185 -149.96094,335 -335,335 -88.82813,0 -174.0625,-35.3125 -236.875,-98.125" transform="matrix(0.1,0,0,-0.1,0,80.4)" id="path7"/>
      <path inkscape:connector-curvature="0" style="fill:none;stroke:#000000;stroke-width:40.20100503;stroke-linecap:round;stroke-linejoin:round;stroke-miterlimit:4;stroke-dasharray:none;stroke-opacity:1" d="m 736.99219,402.00781 c 0,61.67969 -50,111.67969 -111.67969,111.67969 -61.64063,0 -111.64063,-50 -111.64063,-111.67969 0,-61.67969 50,-111.67969 111.64063,-111.67969 61.67969,0 111.67969,50 111.67969,111.67969 z m 0,0" transform="matrix(0.1,0,0,-0.1,0,80.4)" id="path9"/>
      <path inkscape:connector-curvature="0" style="fill:none;stroke:#000000;stroke-width:40.20100503;stroke-linecap:round;stroke-linejoin:round;stroke-miterlimit:4;stroke-dasharray:none;stroke-opacity:1" d="m 66.992188,402.00781 c 0,-185.03906 150.000002,-334.999998 335.000002,-334.999998 88.86718,0 174.0625,35.273438 236.875,98.124998" transform="matrix(0.1,0,0,-0.1,0,80.4)" id="path11"/>
      <path inkscape:connector-curvature="0" style="fill:none;stroke:#000000;stroke-width:40.20100503;stroke-linecap:round;stroke-linejoin:round;stroke-miterlimit:4;stroke-dasharray:none;stroke-opacity:1" d="m 66.992188,402.00781 c 0,-61.67969 50.000002,-111.67969 111.679682,-111.67969 61.67969,0 111.64063,50 111.64063,111.67969 0,61.67969 -49.96094,111.67969 -111.64063,111.67969 -61.67968,0 -111.679682,-50 -111.679682,-111.67969 z m 0,0" transform="matrix(0.1,0,0,-0.1,0,80.4)" id="path13"/>
    </g>
  </g>
</svg>